<svg width="24" height="24" viewBox="0 0 24 24" fill="none" xmlns="http://www.w3.org/2000/svg">
    <mask id="mask0_495_53662" style="mask-type:alpha" maskUnits="userSpaceOnUse" x="0" y="0"
        width="24" height="24">
        <rect width="24" height="24" fill="#D9D9D9" />
    </mask>
    <g mask="url(#mask0_495_53662)">
        <path
            d="M3 10V4H5V6.35C5.85 5.28333 6.8875 4.45833 8.1125 3.875C9.3375 3.29167 10.6333 3 12 3C14.5 3 16.625 3.875 18.375 5.625C20.125 7.375 21 9.5 21 12H19C19 10.05 18.3208 8.39583 16.9625 7.0375C15.6042 5.67917 13.95 5 12 5C10.85 5 9.775 5.26667 8.775 5.8C7.775 6.33333 6.93333 7.06667 6.25 8H9V10H3ZM3.05 13H5.1C5.3 14.55 5.9375 15.8625 7.0125 16.9375C8.0875 18.0125 9.375 18.6667 10.875 18.9L12.075 21C9.775 21 7.75833 20.2375 6.025 18.7125C4.29167 17.1875 3.3 15.2833 3.05 13ZM13.35 14.75L11 12.4V7H13V11.6L14.4 13L13.35 14.75ZM17.975 24L17.675 22.5C17.475 22.4167 17.2875 22.3292 17.1125 22.2375C16.9375 22.1458 16.7583 22.0333 16.575 21.9L15.125 22.35L14.125 20.65L15.275 19.65C15.2417 19.4333 15.225 19.2167 15.225 19C15.225 18.7833 15.2417 18.5667 15.275 18.35L14.125 17.35L15.125 15.65L16.575 16.1C16.7583 15.9667 16.9375 15.8542 17.1125 15.7625C17.2875 15.6708 17.475 15.5833 17.675 15.5L17.975 14H19.975L20.275 15.5C20.475 15.5833 20.6667 15.6792 20.85 15.7875C21.0333 15.8958 21.2083 16.0167 21.375 16.15L22.825 15.65L23.825 17.4L22.675 18.4C22.7083 18.6167 22.725 18.825 22.725 19.025C22.725 19.225 22.7083 19.4333 22.675 19.65L23.825 20.65L22.825 22.35L21.375 21.9C21.1917 22.0333 21.0125 22.1458 20.8375 22.2375C20.6625 22.3292 20.475 22.4167 20.275 22.5L19.975 24H17.975ZM18.975 21C19.525 21 19.9958 20.8042 20.3875 20.4125C20.7792 20.0208 20.975 19.55 20.975 19C20.975 18.45 20.7792 17.9792 20.3875 17.5875C19.9958 17.1958 19.525 17 18.975 17C18.425 17 17.9542 17.1958 17.5625 17.5875C17.1708 17.9792 16.975 18.45 16.975 19C16.975 19.55 17.1708 20.0208 17.5625 20.4125C17.9542 20.8042 18.425 21 18.975 21Z"
            fill="#989898" />
    </g>
</svg>