<svg width="17" height="18" viewBox="0 0 17 18" fill="none" xmlns="http://www.w3.org/2000/svg">
<path d="M8.5 17.7207C6.24573 17.7207 4.08352 16.8251 2.4896 15.2311C0.895582 13.637 0 11.475 0 9.2207C0 6.96643 0.895582 4.80422 2.4896 3.21031C4.08375 1.61629 6.24573 0.720703 8.5 0.720703C10.7543 0.720703 12.9165 1.61629 14.5104 3.21031C16.1044 4.80446 17 6.96643 17 9.2207C16.9973 11.4742 16.1009 13.6349 14.5074 15.2281C12.9139 16.8216 10.7533 17.718 8.5 17.7207ZM11.7779 7.03452V7.03439C11.9269 6.89041 12.0119 6.69262 12.0137 6.48538C12.0156 6.27814 11.9341 6.0788 11.7875 5.93223C11.6409 5.78565 11.4416 5.70416 11.2343 5.70597C11.0271 5.70778 10.8293 5.79277 10.6853 5.9418L8.5 8.12792L6.31468 5.9418C6.11844 5.75228 5.8368 5.68023 5.57356 5.75241C5.31043 5.8246 5.10488 6.03015 5.03269 6.29328C4.9605 6.55653 5.03256 6.83815 5.22208 7.0344L7.4074 9.22052L5.22208 11.4066C5.07305 11.5506 4.98806 11.7484 4.98625 11.9556C4.98444 12.1629 5.06594 12.3622 5.2125 12.5088C5.35907 12.6554 5.55841 12.7369 5.76566 12.7351C5.9729 12.7332 6.17068 12.6483 6.31467 12.4992L8.49999 10.3131L10.6853 12.4992C10.8293 12.6483 11.0271 12.7332 11.2343 12.7351C11.4416 12.7369 11.6409 12.6554 11.7875 12.5088C11.9341 12.3622 12.0155 12.1629 12.0137 11.9556C12.0119 11.7484 11.9269 11.5506 11.7779 11.4066L9.59258 9.22052L11.7779 7.03452Z" fill="#E6E6E6"/>
</svg>
