<svg width="204" height="183" viewBox="0 0 204 183" fill="none" xmlns="http://www.w3.org/2000/svg">
<path opacity="0.7" d="M191.574 86.7985C191.574 86.7985 204.566 73.1902 201.395 48.6374C198.224 24.0847 178.112 14.4305 164.382 18.6765C150.652 22.9226 147.342 30.9901 136.11 35.3016C124.878 39.6131 103.957 35.6906 92.9141 51.0466C81.8712 66.4026 94.4277 92.8768 110.978 109.773C127.528 126.67 171.508 117.898 191.574 86.7985Z" fill="#FFEBEB"/>
<path d="M41.8773 91.6572C41.0172 80.7394 19.8404 62.831 27.2922 53.7396C36.552 42.4448 71.7538 58.4793 87.5028 55.3939C104.39 52.0999 133.769 21.3559 148.625 28.5039C166.259 37.0097 142.176 78.1591 144.646 95.3172C146.034 104.961 162.946 126.339 155.308 133.747C143.193 145.459 105.986 126.391 87.8103 127.69C73.6936 128.7 40.944 147.198 31.1681 138.714C21.0519 129.93 42.8472 104.002 41.8773 91.6572Z" fill="#FFCF47"/>
<path opacity="0.9" d="M41.8773 91.6572C41.0172 80.7394 19.8404 62.831 27.2922 53.7396C36.552 42.4448 71.7538 58.4793 87.5028 55.3939C104.39 52.0999 133.769 21.3559 148.625 28.5039C166.259 37.0097 142.176 78.1591 144.646 95.3172C146.034 104.961 162.946 126.339 155.308 133.747C143.193 145.459 105.986 126.391 87.8103 127.69C73.6936 128.7 40.944 147.198 31.1681 138.714C21.0519 129.93 42.8472 104.002 41.8773 91.6572Z" fill="white"/>
<path d="M91.4999 156.487C130.692 156.487 162.464 154.632 162.464 152.344C162.464 150.056 130.692 148.201 91.4999 148.201C52.3077 148.201 20.5361 150.056 20.5361 152.344C20.5361 154.632 52.3077 156.487 91.4999 156.487Z" fill="#F5F5F5"/>
<path d="M162.712 29.1377V109.746L153.013 119.445H96.8652V29.1377H162.712Z" fill="#FFCF47"/>
<path opacity="0.8" d="M162.712 29.1377V109.746L153.013 119.445H96.8652V29.1377H162.712Z" fill="white"/>
<path opacity="0.2" d="M153.014 119.445V110.031H162.713L153.204 119.54" fill="black"/>
<path opacity="0.1" d="M121.783 36.9669H103.622C103.366 36.9669 103.122 36.8655 102.941 36.685C102.761 36.5045 102.659 36.2596 102.659 36.0043C102.659 35.8776 102.683 35.752 102.731 35.6348C102.78 35.5176 102.85 35.4111 102.94 35.3213C103.029 35.2315 103.136 35.1603 103.253 35.1117C103.37 35.0631 103.495 35.0381 103.622 35.0381H121.783C122.038 35.0391 122.283 35.1413 122.464 35.3224C122.644 35.5035 122.745 35.7487 122.745 36.0043C122.745 36.2596 122.644 36.5045 122.463 36.685C122.283 36.8655 122.038 36.9669 121.783 36.9669Z" fill="black"/>
<path opacity="0.1" d="M154.722 44.7765H110.941C110.814 44.7765 110.689 44.7515 110.572 44.7029C110.455 44.6543 110.349 44.583 110.259 44.4933C110.17 44.4035 110.099 44.2969 110.051 44.1797C110.003 44.0625 109.978 43.937 109.979 43.8102C109.979 43.5549 110.08 43.3101 110.26 43.1296C110.441 42.9491 110.686 42.8477 110.941 42.8477H154.722C154.977 42.8477 155.222 42.9491 155.403 43.1296C155.583 43.3101 155.685 43.5549 155.685 43.8102C155.685 44.0659 155.583 44.3111 155.403 44.4922C155.222 44.6733 154.978 44.7755 154.722 44.7765Z" fill="black"/>
<path opacity="0.1" d="M154.723 48.5724H103.622C103.366 48.5724 103.122 48.471 102.941 48.2904C102.761 48.1099 102.659 47.8651 102.659 47.6098C102.659 47.4831 102.683 47.3575 102.731 47.2403C102.78 47.1231 102.85 47.0165 102.94 46.9268C103.029 46.837 103.136 46.7658 103.253 46.7172C103.37 46.6686 103.495 46.6436 103.622 46.6436H154.723C154.978 46.6445 155.223 46.7467 155.404 46.9279C155.584 47.109 155.685 47.3542 155.685 47.6098C155.685 47.8651 155.584 48.1099 155.403 48.2904C155.223 48.471 154.978 48.5724 154.723 48.5724Z" fill="black"/>
<path opacity="0.1" d="M154.723 52.8614H103.622C103.495 52.8614 103.37 52.8364 103.253 52.7878C103.136 52.7392 103.029 52.668 102.94 52.5782C102.85 52.4884 102.78 52.3819 102.731 52.2647C102.683 52.1475 102.659 52.0219 102.659 51.8952C102.659 51.6399 102.761 51.3951 102.941 51.2146C103.122 51.034 103.366 50.9326 103.622 50.9326H154.723C154.978 50.9326 155.223 51.034 155.403 51.2146C155.584 51.3951 155.685 51.6399 155.685 51.8952C155.685 52.1508 155.584 52.396 155.404 52.5771C155.223 52.7582 154.978 52.8605 154.723 52.8614Z" fill="black"/>
<path opacity="0.1" d="M154.723 57.1478H103.622C103.366 57.1478 103.122 57.0464 102.941 56.8659C102.761 56.6854 102.659 56.4405 102.659 56.1852C102.659 55.9299 102.761 55.6851 102.941 55.5046C103.122 55.3241 103.366 55.2227 103.622 55.2227H154.723C154.978 55.2227 155.223 55.3241 155.403 55.5046C155.584 55.6851 155.685 55.9299 155.685 56.1852C155.685 56.4405 155.584 56.6854 155.403 56.8659C155.223 57.0464 154.978 57.1478 154.723 57.1478Z" fill="black"/>
<path opacity="0.1" d="M154.723 61.4369H103.622C103.366 61.4369 103.122 61.3355 102.941 61.155C102.761 60.9744 102.659 60.7296 102.659 60.4743C102.659 60.3478 102.683 60.2224 102.731 60.1054C102.78 59.9884 102.851 59.8821 102.94 59.7926C103.03 59.7031 103.136 59.6322 103.253 59.584C103.37 59.5358 103.495 59.5112 103.622 59.5117H154.723C154.978 59.5117 155.223 59.6131 155.403 59.7937C155.584 59.9742 155.685 60.219 155.685 60.4743C155.685 60.7296 155.584 60.9744 155.403 61.155C155.223 61.3355 154.978 61.4369 154.723 61.4369Z" fill="black"/>
<path opacity="0.1" d="M154.723 65.7267H103.622C103.366 65.7267 103.122 65.6253 102.941 65.4447C102.761 65.2642 102.659 65.0194 102.659 64.7641C102.659 64.6374 102.683 64.5118 102.731 64.3946C102.78 64.2774 102.85 64.1709 102.94 64.0811C103.029 63.9913 103.136 63.9201 103.253 63.8715C103.37 63.8229 103.495 63.7979 103.622 63.7979H154.723C154.978 63.7988 155.223 63.901 155.404 64.0821C155.584 64.2632 155.685 64.5085 155.685 64.7641C155.685 65.0194 155.584 65.2642 155.403 65.4447C155.223 65.6253 154.978 65.7267 154.723 65.7267Z" fill="black"/>
<path opacity="0.1" d="M154.726 68.0879H103.622C103.09 68.0879 102.659 68.5189 102.659 69.0505V69.0541C102.659 69.5857 103.09 70.0167 103.622 70.0167H154.726C155.258 70.0167 155.689 69.5857 155.689 69.0541V69.0505C155.689 68.5189 155.258 68.0879 154.726 68.0879Z" fill="black"/>
<path opacity="0.1" d="M154.723 74.2982H103.622C103.366 74.2982 103.122 74.1968 102.941 74.0163C102.761 73.8358 102.659 73.5909 102.659 73.3356C102.659 73.0803 102.761 72.8355 102.941 72.655C103.122 72.4745 103.366 72.373 103.622 72.373H154.723C154.978 72.373 155.223 72.4745 155.403 72.655C155.584 72.8355 155.685 73.0803 155.685 73.3356C155.685 73.5909 155.584 73.8358 155.403 74.0163C155.223 74.1968 154.978 74.2982 154.723 74.2982Z" fill="black"/>
<path opacity="0.1" d="M154.723 78.5912H103.622C103.366 78.5912 103.122 78.4898 102.941 78.3092C102.761 78.1287 102.659 77.8839 102.659 77.6286C102.659 77.5021 102.683 77.3767 102.731 77.2597C102.78 77.1427 102.851 77.0364 102.94 76.9469C103.03 76.8574 103.136 76.7865 103.253 76.7383C103.37 76.6901 103.495 76.6655 103.622 76.666H154.723C154.978 76.666 155.223 76.7674 155.403 76.948C155.584 77.1285 155.685 77.3733 155.685 77.6286C155.685 77.8839 155.584 78.1287 155.403 78.3092C155.223 78.4898 154.978 78.5912 154.723 78.5912Z" fill="black"/>
<path opacity="0.1" d="M154.723 82.881H103.622C103.366 82.881 103.122 82.7796 102.941 82.599C102.761 82.4185 102.659 82.1737 102.659 81.9184C102.659 81.7917 102.683 81.6661 102.731 81.5489C102.78 81.4317 102.85 81.3251 102.94 81.2354C103.029 81.1456 103.136 81.0744 103.253 81.0258C103.37 80.9772 103.495 80.9521 103.622 80.9521H154.723C154.978 80.9531 155.223 81.0553 155.404 81.2364C155.584 81.4175 155.685 81.6628 155.685 81.9184C155.685 82.1737 155.584 82.4185 155.403 82.599C155.223 82.7796 154.978 82.881 154.723 82.881Z" fill="black"/>
<path opacity="0.1" d="M154.723 87.171H103.622C103.495 87.171 103.37 87.146 103.253 87.0974C103.136 87.0488 103.029 86.9776 102.94 86.8878C102.85 86.798 102.78 86.6915 102.731 86.5743C102.683 86.4571 102.659 86.3315 102.659 86.2048C102.659 85.9495 102.761 85.7046 102.941 85.5241C103.122 85.3436 103.366 85.2422 103.622 85.2422H154.723C154.978 85.2422 155.223 85.3436 155.403 85.5241C155.584 85.7046 155.685 85.9495 155.685 86.2048C155.685 86.4604 155.584 86.7056 155.404 86.8867C155.223 87.0678 154.978 87.17 154.723 87.171Z" fill="black"/>
<path opacity="0.1" d="M125.443 91.4564H103.622C103.366 91.4564 103.122 91.355 102.941 91.1745C102.761 90.994 102.659 90.7491 102.659 90.4938C102.659 90.2385 102.761 89.9937 102.941 89.8132C103.122 89.6327 103.366 89.5312 103.622 89.5313H125.443C125.698 89.5312 125.943 89.6327 126.123 89.8132C126.304 89.9937 126.405 90.2385 126.405 90.4938C126.405 90.7491 126.304 90.994 126.123 91.1745C125.943 91.355 125.698 91.4564 125.443 91.4564Z" fill="black"/>
<path d="M150.792 48.8903L150.722 48.8317C150.525 48.6817 150.411 48.7329 150.32 48.4438C150.254 48.2351 150.32 48.0009 150.243 47.785C150.068 47.4132 149.869 47.0537 149.646 46.7089L148.746 45.0875C148.545 44.7285 148.21 44.4638 147.814 44.3513C147.418 44.2388 146.994 44.2877 146.634 44.4873L138.344 49.1062C138.311 49.3844 138.081 49.5747 138.033 49.8382C138.017 49.9161 138.021 49.9969 138.045 50.0726C138.07 50.1483 138.113 50.2164 138.172 50.2701C138.079 50.2683 137.989 50.2361 137.916 50.1786C137.422 49.9041 137.29 49.6845 136.781 49.9626C136.562 50.0798 136.346 50.2042 136.13 50.3286L133.934 51.5548L127.053 55.3868L119.001 59.8813L112.292 63.6181C111.377 64.1269 110.268 64.5734 109.452 65.2212C109.679 65.3383 109.719 65.5177 109.518 65.6933L109.152 66.0264C109.152 66.1179 109.284 66.1179 109.368 66.0813L109.822 65.8873C109.506 66.2877 109.127 66.6328 108.698 66.9085C107.978 67.3263 107.205 67.644 106.4 67.8527L106.788 67.366C106.817 67.3257 106.853 67.2744 106.828 67.2269C106.802 67.1793 106.755 67.1756 106.711 67.172C106.517 67.15 106.323 67.172 106.18 67.0292C104.928 67.7612 103.618 68.4566 102.344 69.1667C101.985 69.3677 101.721 69.7028 101.608 70.0986C101.496 70.4944 101.545 70.9187 101.744 71.2785L110.104 86.2845C110.202 86.4625 110.335 86.6193 110.495 86.7458C110.654 86.8723 110.837 86.9662 111.033 87.0219C111.229 87.0777 111.434 87.0943 111.636 87.0707C111.838 87.0472 112.034 86.984 112.212 86.8847L114.411 85.644C114.411 85.3841 114.616 85.095 114.463 84.8571C114.441 84.8282 114.427 84.7941 114.422 84.7583C114.422 84.7107 114.466 84.6741 114.507 84.6485C114.732 84.5053 114.99 84.4222 115.257 84.4069C115.348 84.4069 115.469 84.4472 115.454 84.535C115.454 84.4545 115.927 84.2861 116.003 84.2605C116.04 84.4582 115.905 84.6704 116.135 84.7107C116.366 84.751 116.717 84.3447 116.867 84.2715L119.063 83.0454L126.017 79.1768L133.645 74.9275L138.714 72.102C138.897 71.9959 139.113 71.8714 139.288 71.7836C139.352 71.4479 139.515 71.1393 139.757 70.8979C140.123 70.6453 140.701 70.9235 141.005 70.5648C141.064 70.4953 141.1 70.4111 141.151 70.3379C141.254 70.2188 141.378 70.1207 141.517 70.0487C141.606 69.9793 141.713 69.9373 141.825 69.928C141.935 69.928 142.052 70.0195 142.037 70.1293C142.791 69.9536 143.472 69.4448 144.138 69.0679C144.379 68.9324 146.499 67.9369 146.491 67.7795C146.462 67.2928 146.758 66.8755 146.744 66.3741C146.744 66.2789 146.557 65.6421 146.641 65.5945C144.738 66.7291 142.762 67.7612 140.822 68.8373C140.756 68.8775 140.507 68.9617 140.456 69.0349C140.456 69.0349 140.438 69.0679 140.43 69.0862L140.375 69.2069V69.2362C140.297 69.4853 140.204 69.7297 140.097 69.9682C140.097 70.0012 139.684 70.5136 139.651 70.3928C139.49 69.8035 139.285 69.712 138.835 69.9536L138.19 70.3196L136.144 71.4578L129.253 75.3008L121.131 79.8246L114.364 83.5944L111.527 85.1719C110.961 84.1471 110.391 83.1235 109.818 82.1011L108.72 80.1284C108.609 79.8549 108.445 79.6061 108.237 79.3964C108.08 79.2793 107.812 79.3085 107.673 79.2024C107.333 78.9425 107.088 78.4704 106.766 78.1666C106.546 77.9617 106.213 77.3468 106.304 77.0064C106.414 77.0503 106.524 77.0979 106.634 77.1308C106.576 76.9055 106.589 76.668 106.67 76.4501C105.572 74.6018 104.562 72.6693 103.512 70.7807L103.442 70.66L106.004 69.2326L107.875 68.1895C108.259 68.0241 108.627 67.8219 108.973 67.5856C109.211 67.3806 109.452 67.1244 109.705 66.9048C109.874 66.7759 110.058 66.6677 110.254 66.5827L110.945 66.246C110.981 66.2246 111.021 66.2121 111.062 66.2094C111.104 66.2139 111.144 66.2238 111.183 66.2387C111.549 66.3155 112.457 65.6384 112.786 65.4554L114.916 64.2696L121.343 60.6865L129.352 56.2286L137.367 51.7597L143.816 48.1693L147.11 46.3393L147.264 46.2551L150.825 52.6491C151.045 53.0801 151.398 53.429 151.831 53.6446C151.978 53.6922 152.142 53.7947 152.124 53.9447C152.106 54.0948 151.886 54.2192 151.937 54.373C151.989 54.5267 152.27 54.4681 152.336 54.6072C152.402 54.7463 152.223 54.9732 152.245 55.1635C152.32 55.3914 152.433 55.6053 152.578 55.7967L153.614 57.6596C154.192 58.6917 154.767 59.7275 155.348 60.7706L149.017 64.2989C149.048 64.3241 149.074 64.3552 149.094 64.3904L149.126 64.4746C149.252 64.5191 149.375 64.5729 149.492 64.6356C149.543 64.6638 149.585 64.7054 149.613 64.7557C149.642 64.8061 149.656 64.8633 149.654 64.9211C149.653 64.9782 149.637 65.0341 149.607 65.083C149.577 65.1318 149.535 65.172 149.485 65.1992L149.097 65.4188C149.083 65.5037 149.044 65.5824 148.985 65.6445C148.925 65.7065 148.848 65.7491 148.764 65.7665C148.719 65.7703 148.674 65.7703 148.629 65.7665C148.59 65.7948 148.546 65.8143 148.499 65.8238C148.453 65.8332 148.404 65.8324 148.358 65.8214C148.275 65.7959 148.205 65.7395 148.163 65.6638C148.121 65.5881 148.109 65.4991 148.131 65.4152C148.146 65.3775 148.166 65.3419 148.19 65.309C148.162 65.2557 148.149 65.1958 148.153 65.1358C148.157 65.0758 148.177 65.018 148.211 64.9686H148.094C148.028 64.9686 147.97 64.9321 147.908 64.9138C147.579 65.1171 147.322 65.4195 147.176 65.7775C147.16 65.797 147.152 65.8219 147.154 65.8471C147.154 65.8983 147.234 65.9019 147.282 65.9239C147.392 65.9751 147.366 66.1362 147.311 66.2423C147.256 66.3485 147.19 66.4839 147.264 66.5791C147.291 66.6111 147.322 66.6405 147.355 66.6669C147.512 66.8462 147.271 67.3659 147.655 67.1537C147.628 67.0406 147.645 66.9216 147.703 66.8206C147.768 66.7187 147.868 66.6444 147.985 66.612C148.269 66.5429 148.56 66.5013 148.852 66.4876L156.483 62.22C156.842 62.019 157.107 61.6839 157.219 61.288C157.332 60.8922 157.283 60.468 157.083 60.1082L157.039 60.0313L153.592 53.8423L151.601 50.2628C151.407 49.9224 151.235 49.5674 151.022 49.2306C150.964 49.1057 150.886 48.9908 150.792 48.8903Z" fill="#FFCF47"/>
<path d="M115.531 69.1119C115.278 68.8045 115.355 68.7972 115.308 68.4678C115.308 68.4678 115.308 68.4678 115.308 68.4458L115.278 68.4129L115.235 68.3616C115.063 68.4385 114.891 68.5227 114.719 68.6178L111.348 70.4954L112.706 72.9293C112.515 72.5926 113.189 72.6914 113.214 72.6878C113.286 72.6667 113.359 72.6544 113.434 72.6512C113.507 72.6667 113.571 72.71 113.613 72.7719C113.754 73.0181 113.796 73.3086 113.73 73.5845C113.69 73.9505 113.884 74.3165 113.675 74.6825C113.855 74.9753 115.476 77.9252 115.483 77.9215L118.854 76.044C119.048 75.9342 119.509 75.7402 119.623 75.5462C119.736 75.3522 119.557 75.0485 119.758 74.957C119.834 74.9291 119.915 74.9187 119.996 74.9263C120.076 74.9339 120.154 74.9594 120.223 75.0009C120.865 74.3652 121.278 73.5343 121.396 72.6387C121.515 71.743 121.333 70.8334 120.878 70.0526C119.93 68.3507 117.778 67.3368 115.893 68.1274C115.762 68.1823 115.937 68.7716 115.623 68.8374C115.683 68.7194 115.769 68.6168 115.875 68.5373M117.976 74.6642L116.406 75.5389C116.278 75.3083 116.153 75.0777 116.021 74.8545C116.186 75.1326 115.732 75.0448 115.637 74.9826C115.407 74.8289 115.344 74.386 115.337 74.1371C115.332 73.7103 115.205 73.2939 114.971 72.9366C114.603 72.2705 114.237 71.6044 113.873 70.9383L115.443 70.0635C116.907 69.2437 118.371 69.5841 119.162 71.0042C119.952 72.4242 119.451 73.8553 117.976 74.6642Z" fill="#FFCF47"/>
<path d="M126.676 62.8791C126.756 63.053 126.779 63.2477 126.742 63.4354C126.724 63.5379 126.559 63.8014 126.581 63.8673C126.64 64.0137 126.698 64.1601 126.753 64.3065C126.763 64.3305 126.777 64.3527 126.793 64.3724C126.822 64.3913 126.855 64.4015 126.889 64.4017C127.471 64.4529 127.445 64.5115 127.482 65.0019C127.514 65.4228 127.877 65.6644 128.082 66.0304C128.357 66.5113 128.477 67.0656 128.424 67.6172C128.372 68.1688 128.15 68.6906 127.789 69.111C127.428 69.5313 126.945 69.8296 126.408 69.9648C125.871 70.1 125.305 70.0655 124.788 69.8661C124.774 69.8793 124.759 69.8916 124.744 69.9027C124.667 69.9414 124.579 69.9518 124.495 69.9319C124.305 69.8781 124.132 69.7738 123.997 69.6301C123.861 69.4865 123.766 69.3087 123.723 69.1158C123.717 69.0867 123.717 69.057 123.723 69.0279C123.619 68.8998 123.527 68.7626 123.448 68.618C123.26 68.3156 123.137 67.9776 123.085 67.6252C123.034 67.2728 123.056 66.9136 123.149 66.57C123.243 66.2265 123.407 65.906 123.63 65.6286C123.854 65.3512 124.132 65.1229 124.447 64.958C124.905 64.697 125.43 64.5772 125.955 64.614L125.926 64.57C125.611 64.1528 126.746 63.9844 126.233 63.7026C126.018 63.5855 126.054 63.0548 125.999 62.8389C125.168 62.8576 124.354 63.0828 123.631 63.494C121.289 64.8006 120.48 67.3882 121.71 69.5952C122.227 70.5447 123.083 71.2647 124.107 71.6119C124.348 71.7167 124.606 71.7763 124.868 71.7876C125.168 71.7619 125.022 71.7876 125.15 71.6082C125.278 71.4289 125.201 71.352 125.395 71.1617C125.589 70.9714 125.816 70.8579 125.857 70.5651C125.857 70.6969 126.003 70.792 126.003 70.9311C126.003 70.9714 126.003 71.0116 126.003 71.0482C126.011 71.0961 126.032 71.1406 126.065 71.1763C126.19 71.3447 126.398 71.5423 126.402 71.7363C126.937 71.6475 127.451 71.4588 127.917 71.18C130.249 69.8807 131.076 67.2967 129.839 65.0824C129.198 63.9515 127.994 62.9523 126.676 62.8791Z" fill="#FFCF47"/>
<path d="M134.161 57.7841L136.672 62.2896L130.472 59.8374L129.052 60.6316C130.011 62.3518 131.028 64.0537 131.929 65.8068C131.991 65.6165 132.137 65.5799 132.313 65.5543C132.642 65.5104 132.631 65.6751 132.811 66.0008C132.833 66.0411 132.858 66.0813 132.898 66.0887C132.939 66.096 133.019 66.0301 133.085 66.0374C133.151 66.0447 133.177 66.1253 133.158 66.1875C133.135 66.2484 133.104 66.3062 133.067 66.3595C132.961 66.5608 133.136 66.6889 133.114 66.8719C133.114 66.9671 132.796 67.355 132.833 67.4209L133.199 68.0504L134.897 67.1061L134.443 66.2936H134.359C133.865 66.3595 134.084 65.7117 133.974 65.4445C133.797 65.066 133.595 64.6993 133.371 64.3465L132.371 62.586L137.411 64.5698C137.398 64.425 137.416 64.2791 137.462 64.1415C137.503 64.0647 137.828 63.9219 137.828 63.8487C137.847 64.0848 137.958 64.3041 138.136 64.46C138.33 64.632 138.33 64.6064 138.293 64.9101L138.593 65.0309L140.006 64.244L135.87 56.8252L134.161 57.7841Z" fill="#FFCF47"/>
<path d="M142.692 60.9501L141.733 59.2336L145.181 57.3121L144.449 55.9762L141.005 57.8977L140.108 56.2836L142.436 54.988C142.535 54.8612 142.659 54.7575 142.802 54.6842C142.874 54.647 142.958 54.6379 143.036 54.6586L144.021 54.1132C144.021 54.1132 143.322 52.8652 143.256 52.7334C142.919 52.8871 143.256 53.3117 142.916 53.5166C142.985 53.5898 143.088 53.8497 142.916 53.8826C142.817 53.8826 142.744 53.7582 142.645 53.7692C142.546 53.7802 142.542 53.8277 142.491 53.8131C142.476 53.8087 142.461 53.8008 142.449 53.79C142.437 53.7793 142.428 53.7659 142.422 53.7509C142.374 53.6405 142.314 53.5361 142.242 53.4398C142.012 53.2165 139.907 54.6183 139.614 54.783L137.656 55.881L141.788 63.2998L143.439 62.3812L143.472 62.3372C143.593 62.1835 143.71 62.0261 143.838 61.8834C143.89 61.834 143.957 61.8026 144.028 61.794C144.099 61.7855 144.171 61.8001 144.233 61.8358C144.263 61.8512 144.289 61.8724 144.31 61.898L147.535 60.101L146.766 58.7212L142.692 60.9501Z" fill="#FFCF47"/>
<path d="M56.9608 51.1484H44.1837C43.6916 51.1484 43.2196 51.3439 42.8716 51.6919C42.5236 52.0399 42.3281 52.5119 42.3281 53.0041V65.4261C42.3281 65.9182 42.5236 66.3902 42.8716 66.7382C43.2196 67.0862 43.6916 67.2817 44.1837 67.2817H48.272L45.5196 71.0222L50.2776 67.2817H56.9571C57.4493 67.2817 57.9213 67.0862 58.2693 66.7382C58.6173 66.3902 58.8128 65.9182 58.8128 65.4261V53.0041C58.8128 52.5126 58.6178 52.0411 58.2706 51.6932C57.9234 51.3453 57.4523 51.1494 56.9608 51.1484Z" fill="#FFCF47"/>
<path opacity="0.6" d="M56.9608 51.1484H44.1837C43.6916 51.1484 43.2196 51.3439 42.8716 51.6919C42.5236 52.0399 42.3281 52.5119 42.3281 53.0041V65.4261C42.3281 65.9182 42.5236 66.3902 42.8716 66.7382C43.2196 67.0862 43.6916 67.2817 44.1837 67.2817H48.272L45.5196 71.0222L50.2776 67.2817H56.9571C57.4493 67.2817 57.9213 67.0862 58.2693 66.7382C58.6173 66.3902 58.8128 65.9182 58.8128 65.4261V53.0041C58.8128 52.5126 58.6178 52.0411 58.2706 51.6932C57.9234 51.3453 57.4523 51.1494 56.9608 51.1484Z" fill="white"/>
<path d="M50.5745 65.0163C53.7784 65.0163 56.3756 62.419 56.3756 59.2152C56.3756 56.0113 53.7784 53.4141 50.5745 53.4141C47.3707 53.4141 44.7734 56.0113 44.7734 59.2152C44.7734 62.419 47.3707 65.0163 50.5745 65.0163Z" fill="#FFCF47"/>
<path opacity="0.2" d="M55.4133 60.3544C56.0443 57.6808 54.3885 55.0019 51.7149 54.3709C49.0414 53.7398 46.3625 55.3957 45.7314 58.0692C45.1004 60.7428 46.7562 63.4217 49.4298 64.0527C52.1034 64.6837 54.7823 63.0279 55.4133 60.3544Z" fill="black"/>
<path d="M49.9559 61.5906C49.8885 61.5921 49.8215 61.5802 49.7587 61.5557C49.6959 61.5312 49.6386 61.4946 49.5899 61.4479L47.4781 59.38C47.3811 59.2858 47.3254 59.157 47.3233 59.0218C47.3212 58.8865 47.373 58.7561 47.4671 58.659C47.5613 58.5619 47.6902 58.5062 47.8254 58.5042C47.9606 58.5021 48.0911 58.5538 48.1882 58.648L49.9193 60.3426L52.9132 57.001C53.005 56.9085 53.1288 56.8547 53.2591 56.8508C53.3894 56.8469 53.5162 56.8931 53.6134 56.98C53.7105 57.0669 53.7707 57.1877 53.7814 57.3176C53.7921 57.4475 53.7525 57.5765 53.6708 57.6781L50.3219 61.415C50.2758 61.4666 50.2194 61.5082 50.1565 61.5372C50.0935 61.5662 50.0252 61.5819 49.9559 61.5833V61.5906Z" fill="white"/>
<path d="M34.0014 143.809L44.5458 142.769V130.878H48.7256V142.766L59.3139 143.809C59.8213 143.858 60.2922 144.094 60.6346 144.472C60.977 144.85 61.1665 145.341 61.1659 145.851V147.436H32.1494V145.851C32.1489 145.341 32.3383 144.85 32.6807 144.472C33.0231 144.094 33.494 143.858 34.0014 143.809Z" fill="#263238"/>
<path opacity="0.1" d="M34.0014 143.809L44.5458 142.769V130.878H48.7256V142.766L59.3139 143.809C59.8213 143.858 60.2922 144.094 60.6346 144.472C60.977 144.85 61.1665 145.341 61.1659 145.851V147.436H32.1494V145.851C32.1489 145.341 32.3383 144.85 32.6807 144.472C33.0231 144.094 33.494 143.858 34.0014 143.809Z" fill="white"/>
<path d="M60.0504 152.131C61.5604 152.131 62.7844 150.907 62.7844 149.397C62.7844 147.887 61.5604 146.663 60.0504 146.663C58.5405 146.663 57.3164 147.887 57.3164 149.397C57.3164 150.907 58.5405 152.131 60.0504 152.131Z" fill="#263238"/>
<path d="M33.2662 152.131C34.7762 152.131 36.0003 150.907 36.0003 149.397C36.0003 147.887 34.7762 146.663 33.2662 146.663C31.7563 146.663 30.5322 147.887 30.5322 149.397C30.5322 150.907 31.7563 152.131 33.2662 152.131Z" fill="#263238"/>
<path d="M47.9318 134.062H45.3259C44.925 134.062 44.5405 133.902 44.257 133.619C43.9735 133.335 43.8143 132.951 43.8143 132.55V120.86H49.4434V132.55C49.4434 132.951 49.2841 133.335 49.0006 133.619C48.7172 133.902 48.3327 134.062 47.9318 134.062Z" fill="#263238"/>
<path opacity="0.2" d="M47.9318 134.062H45.3259C44.925 134.062 44.5405 133.902 44.257 133.619C43.9735 133.335 43.8143 132.951 43.8143 132.55V120.86H49.4434V132.55C49.4434 132.951 49.2841 133.335 49.0006 133.619C48.7172 133.902 48.3327 134.062 47.9318 134.062Z" fill="white"/>
<path d="M32.0401 97.9482C32.0401 97.9482 35.173 117.485 41.3584 120.864H35.0705C35.0705 120.864 28.8485 114.202 26.9746 97.9482H32.0401Z" fill="#263238"/>
<path opacity="0.1" d="M32.0401 97.9482C32.0401 97.9482 35.173 117.485 41.3584 120.864H35.0705C35.0705 120.864 28.8485 114.202 26.9746 97.9482H32.0401Z" fill="white"/>
<path d="M34.7704 118.101H59.2631C59.7485 118.101 60.214 118.293 60.5572 118.637C60.9003 118.98 61.0931 119.445 61.0931 119.931V122.379H32.9404V119.931C32.9404 119.445 33.1332 118.98 33.4764 118.637C33.8196 118.293 34.2851 118.101 34.7704 118.101Z" fill="#FFCF47"/>
<path d="M61.518 120.238H32.4905C32.0842 120.238 31.7549 120.568 31.7549 120.974V121.64C31.7549 122.046 32.0842 122.376 32.4905 122.376H61.518C61.9243 122.376 62.2537 122.046 62.2537 121.64V120.974C62.2537 120.568 61.9243 120.238 61.518 120.238Z" fill="#263238"/>
<path opacity="0.6" d="M61.518 120.238H32.4905C32.0842 120.238 31.7549 120.568 31.7549 120.974V121.64C31.7549 122.046 32.0842 122.376 32.4905 122.376H61.518C61.9243 122.376 62.2537 122.046 62.2537 121.64V120.974C62.2537 120.568 61.9243 120.238 61.518 120.238Z" fill="white"/>
<path d="M26.2316 101.923H36.2929C39.2429 101.923 41.1571 99.5587 40.5715 96.6417L39.7882 92.7474C39.2026 89.8194 36.3369 87.4697 33.3906 87.4697H23.3292C20.3793 87.4697 18.4651 89.8341 19.0507 92.7474L19.8339 96.6417C20.4195 99.5514 23.2816 101.923 26.2316 101.923Z" fill="#FFCF47"/>
<path d="M79.6201 134.647L77.3143 135.551L75.6564 132.425L74.1484 129.582L76.7031 128.052L78.2476 131.54L79.6201 134.647Z" fill="#E4897B"/>
<path opacity="0.2" d="M78.2476 131.54L75.6564 132.425L74.1484 129.582L76.7031 128.052L78.2476 131.54Z" fill="black"/>
<path d="M77.7685 129.834L74.6319 131.518C74.6319 131.518 62.7771 110.674 60.9545 110.85C59.1318 111.026 41.8383 122.042 36.5642 117.972C31.2902 113.902 36.4215 101.649 36.4215 101.649C36.4215 101.649 47.3319 98.5305 48.4995 100.917C48.8072 101.631 49.0688 102.365 49.2827 103.113C49.5133 103.863 49.689 104.496 49.689 104.496C50.022 104.361 60.7971 99.9432 65.6063 102.3C70.5144 104.723 77.7685 129.834 77.7685 129.834Z" fill="#263238"/>
<path opacity="0.3" d="M77.7685 129.834L74.6319 131.518C74.6319 131.518 62.7771 110.674 60.9545 110.85C59.1318 111.026 41.8383 122.042 36.5642 117.972C31.2902 113.902 36.4215 101.649 36.4215 101.649C36.4215 101.649 47.3319 98.5305 48.4995 100.917C48.8072 101.631 49.0688 102.365 49.2827 103.113C49.5133 103.863 49.689 104.496 49.689 104.496C50.022 104.361 60.7971 99.9432 65.6063 102.3C70.5144 104.723 77.7685 129.834 77.7685 129.834Z" fill="white"/>
<path d="M60.7268 146.832L58.2673 146.55L58.2527 143.08L58.249 139.896L61.2246 139.757L60.9611 143.501L60.7268 146.832Z" fill="#E4897B"/>
<path opacity="0.2" d="M60.9545 143.578L58.2461 143.146V139.929L61.2217 139.771L60.9545 143.578Z" fill="black"/>
<path d="M73.0977 130.482L77.6873 128.184L78.1668 130.131L74.6898 131.924L73.0977 130.482Z" fill="#FFCF47"/>
<path d="M44.7109 118.005C44.7109 118.005 45.4649 117.921 57.0634 115.772C57.0634 115.772 57.327 130.603 57.876 141.66L61.4481 141.773C61.4481 141.773 66.5721 117.251 65.9682 113.532C65.3643 109.814 60.9577 109.327 60.9577 109.327C60.9577 109.327 53.3046 115.289 44.7109 118.005Z" fill="#263238"/>
<path opacity="0.4" d="M44.7109 118.005C44.7109 118.005 45.4649 117.921 57.0634 115.772C57.0634 115.772 57.327 130.603 57.876 141.66L61.4481 141.773C61.4481 141.773 66.5721 117.251 65.9682 113.532C65.3643 109.814 60.9577 109.327 60.9577 109.327C60.9577 109.327 53.3046 115.289 44.7109 118.005Z" fill="white"/>
<path opacity="0.3" d="M44.7109 118.005C44.7109 118.005 45.4649 117.921 57.0634 115.772C57.0634 115.772 57.327 130.603 57.876 141.66L61.4481 141.773C61.4481 141.773 66.5721 117.251 65.9682 113.532C65.3643 109.814 60.9577 109.327 60.9577 109.327C60.9577 109.327 53.3046 115.289 44.7109 118.005Z" fill="black"/>
<path d="M57.2207 140.672L62.0922 140.559L61.426 142.564L57.4732 142.601L57.2207 140.672Z" fill="#FFCF47"/>
<path opacity="0.3" d="M49.7036 104.504L43.3828 106.754C43.3828 106.754 46.7061 104.273 49.2974 103.12C49.528 103.87 49.7036 104.504 49.7036 104.504Z" fill="black"/>
<path d="M35.6895 100.894L35.9237 102.648L47.7711 100.133L47.4966 98.0615L35.6895 100.894Z" fill="#263238"/>
<path opacity="0.2" d="M35.6895 100.894L35.9237 102.648L47.7711 100.133L47.4966 98.0615L35.6895 100.894Z" fill="black"/>
<path d="M39.6146 99.621L39.0244 99.7305L39.5819 102.735L40.172 102.626L39.6146 99.621Z" fill="#263238"/>
<path d="M44.7803 98.8608L42.1953 99.4434L42.6371 101.404L45.2221 100.821L44.7803 98.8608Z" fill="white"/>
<path d="M46.4427 97.6361L45.8545 97.7441L46.4046 100.739L46.9928 100.631L46.4427 97.6361Z" fill="#263238"/>
<path opacity="0.3" d="M39.6146 99.621L39.0244 99.7305L39.5819 102.735L40.172 102.626L39.6146 99.621Z" fill="white"/>
<path opacity="0.3" d="M46.4427 97.6361L45.8545 97.7441L46.4046 100.739L46.9928 100.631L46.4427 97.6361Z" fill="white"/>
<path d="M84.2027 138.739C83.8179 138.621 83.4146 138.575 83.0132 138.604C83.0132 138.604 81.5236 137.981 79.7192 135.021L78.182 135.222C77.9233 135.261 77.6828 135.378 77.4929 135.558C77.3031 135.738 77.1731 135.972 77.1206 136.228C77.1095 136.301 77.1095 136.375 77.1206 136.448C77.1868 136.819 77.2772 137.186 77.3914 137.546C77.7856 138.736 78.2512 139.9 78.7859 141.034L79.0348 140.931L78.2405 138.713C77.977 137.956 78.8957 138.596 79.3825 139.328C79.8692 140.06 80.561 140.77 82.2043 140.148C84.1148 139.402 84.8725 139.006 84.2027 138.739Z" fill="#263238"/>
<path d="M79.3349 134.233C79.3349 134.233 81.8018 137.981 83.0132 138.603C83.0132 138.603 81.6554 139.701 79.8437 137.937C77.5049 135.672 77.1133 136.448 77.1133 136.448C77.0924 136.004 77.1133 135.559 77.1755 135.119C77.3622 134.259 79.3349 134.233 79.3349 134.233Z" fill="#E4897B"/>
<path d="M64.4159 151.195C64.0654 150.992 63.6809 150.856 63.2813 150.792C63.2813 150.792 61.982 149.837 60.9389 146.535L59.3981 146.367C59.1366 146.342 58.8739 146.399 58.6464 146.531C58.4189 146.662 58.2377 146.86 58.1281 147.099C58.0952 147.165 58.073 147.235 58.0622 147.308C58.0366 147.682 58.0366 148.057 58.0622 148.431C58.1615 149.68 58.3375 150.922 58.5892 152.15L58.8564 152.11L58.6185 149.76C58.5416 148.962 59.2846 149.804 59.5847 150.631C59.8849 151.458 60.3863 152.311 62.1284 152.095C64.1634 151.82 64.9906 151.615 64.4159 151.195Z" fill="#263238"/>
<path d="M60.7565 145.667C60.7565 145.667 62.2644 149.895 63.2929 150.791C63.2929 150.791 61.7154 151.523 60.3649 149.393C58.6264 146.637 58.0664 147.3 58.0664 147.3C58.1483 146.865 58.2708 146.438 58.4324 146.026C58.8204 145.221 60.7565 145.667 60.7565 145.667Z" fill="#E4897B"/>
<path d="M33.1085 71.0033L30.0122 71.6255C29.8912 71.7274 29.7483 71.7999 29.5946 71.8374C29.441 71.8748 29.2807 71.8762 29.1264 71.8414C28.2041 71.4754 26.8755 70.4031 26.7072 70.0114C26.4583 69.4588 26.7072 67.8374 27.3587 67.5446C28.0101 67.2518 30.2537 69.9602 30.2537 69.9602L33.5807 69.2099L33.1085 71.0033Z" fill="#E4897B"/>
<path d="M42.8732 81.2957C42.8732 81.2957 42.5914 71.2637 41.4312 70.8355C40.271 70.4072 31.5492 71.6041 31.5492 71.6041L31.3369 69.3129C31.3369 69.3129 41.4861 67.7501 43.4515 68.6761C45.4169 69.6021 46.0648 84.5532 45.7061 87.4336L42.8732 81.2957Z" fill="#FFCF47"/>
<path opacity="0.6" d="M42.8732 81.2957C42.8732 81.2957 42.5914 71.2637 41.4312 70.8355C40.271 70.4072 31.5492 71.6041 31.5492 71.6041L31.3369 69.3129C31.3369 69.3129 41.4861 67.7501 43.4515 68.6761C45.4169 69.6021 46.0648 84.5532 45.7061 87.4336L42.8732 81.2957Z" fill="white"/>
<path d="M31.6994 71.8231L31.0918 69.305L31.9629 68.9902L32.5155 71.8999L31.6994 71.8231Z" fill="#FFCF47"/>
<path opacity="0.7" d="M31.6994 71.8231L31.0918 69.305L31.9629 68.9902L32.5155 71.8999L31.6994 71.8231Z" fill="white"/>
<path d="M42.8219 80.0439C42.8219 80.0439 42.0424 83.0964 38.2872 84.0699C34.532 85.0435 30.3779 82.4998 30.3779 82.4998L31.2051 89.7832L35.8021 101.257L47.5506 98.1939C47.5506 98.1939 46.8479 84.8459 42.8219 80.0439Z" fill="#FFCF47"/>
<path opacity="0.7" d="M42.8219 80.0439C42.8219 80.0439 42.0424 83.0964 38.2872 84.0699C34.532 85.0435 30.3779 82.4998 30.3779 82.4998L31.2051 89.7832L35.8021 101.257L47.5506 98.1939C47.5506 98.1939 46.8479 84.8459 42.8219 80.0439Z" fill="white"/>
<path opacity="0.6" d="M44.8647 92.1468L46.2399 91.713C46.3922 91.6649 46.4767 91.5025 46.4286 91.3502L45.6093 88.7534C45.5613 88.6011 45.3989 88.5166 45.2466 88.5646L43.8714 88.9985C43.7191 89.0465 43.6346 89.2089 43.6826 89.3612L44.5019 91.9581C44.55 92.1104 44.7124 92.1949 44.8647 92.1468Z" fill="#FFCF47"/>
<path opacity="0.2" d="M44.5838 91.3556L46.1475 90.8623L45.4724 88.7227L43.9087 89.216L44.5838 91.3556Z" fill="black"/>
<path d="M44.5321 87.9486L44.1865 88.0576L44.5841 89.3177L44.9296 89.2086L44.5321 87.9486Z" fill="#263238"/>
<path d="M34.8365 68.6426C31.9414 68.6426 30.0309 71.7097 30.708 76.5738C31.3851 81.4379 34.0972 82.8397 34.0972 82.8397L33.9251 81.6649C36.9359 82.3481 40.04 82.5213 43.1081 82.1773C43.1081 82.1773 41.71 78.2098 42.1638 74.1582C42.1638 74.1582 43.0825 68.6353 34.8365 68.6426Z" fill="#263238"/>
<path opacity="0.2" d="M40.5861 83.0811L41.7683 87.4731L39.6894 85.8883C39.6894 85.8883 41.7134 90.5146 42.2514 93.2083C42.2514 93.2083 40.5019 88.6224 38.994 86.1079L38.112 88.626L34.5654 85.0136C34.5654 85.0136 37.6984 82.6126 40.5861 83.0811Z" fill="black"/>
<path d="M38.8587 84.498L35.25 84.6079C36.8494 82.5619 33.958 78.9971 33.958 78.9971L37.5228 79.7693C38.372 83.2976 39.8396 83.4037 39.8396 83.4037L38.8587 84.498Z" fill="#E4897B"/>
<path opacity="0.2" d="M38.5184 82.3021C37.1413 82.1869 35.8606 81.5492 34.9389 80.5196C34.6541 79.9908 34.326 79.4864 33.958 79.0117L37.5228 79.7876C37.7116 80.6756 38.0481 81.5255 38.5184 82.3021Z" fill="black"/>
<path d="M37.5192 70.1322C40.6266 70.392 41.4903 72.1379 41.4501 75.3623C41.4025 79.3883 40.2752 82.1589 36.4615 80.9804C31.2789 79.381 32.355 69.7003 37.5192 70.1322Z" fill="#E4897B"/>
<path d="M39.4555 75.0293C39.6659 75.5146 39.9338 75.973 40.2534 76.3945C40.1511 76.5145 40.0179 76.6042 39.8682 76.6539C39.7185 76.7036 39.5581 76.7113 39.4043 76.6763L39.4555 75.0293Z" fill="#DE5753"/>
<path d="M37.3506 74.5096L38.024 74.29C38.024 74.29 37.6653 74.8244 37.3506 74.5096Z" fill="#263238"/>
<path d="M37.5845 74.4329C37.4593 74.3714 37.316 74.3575 37.1813 74.3939C37.0466 74.4303 36.9298 74.5144 36.8525 74.6306C36.9674 74.5782 37.0923 74.5511 37.2185 74.5511C37.3448 74.5511 37.4696 74.5782 37.5845 74.6306V74.4329Z" fill="#263238"/>
<path d="M36.333 72.9506C36.2984 72.9497 36.2656 72.9353 36.2415 72.9103C36.2288 72.8984 36.2186 72.8839 36.2117 72.8679C36.2048 72.8518 36.2012 72.8345 36.2012 72.817C36.2012 72.7995 36.2048 72.7822 36.2117 72.7662C36.2186 72.7501 36.2288 72.7357 36.2415 72.7237C36.4456 72.5452 36.6884 72.4165 36.9507 72.3479C37.2131 72.2793 37.4878 72.2726 37.7531 72.3284C37.7876 72.3357 37.8177 72.3564 37.8369 72.3859C37.8562 72.4154 37.8629 72.4513 37.8556 72.4858C37.8483 72.5202 37.8276 72.5504 37.7981 72.5696C37.7686 72.5888 37.7327 72.5955 37.6982 72.5883C37.4768 72.543 37.248 72.5482 37.0288 72.6033C36.8096 72.6584 36.6056 72.7621 36.4318 72.9067C36.4196 72.9208 36.4044 72.932 36.3873 72.9396C36.3702 72.9472 36.3517 72.9509 36.333 72.9506Z" fill="#263238"/>
<path d="M41.2083 73.006C41.1793 73.0071 41.1508 72.998 41.1278 72.9804C40.9813 72.8461 40.8068 72.7462 40.6168 72.688C40.4269 72.6297 40.2263 72.6146 40.0298 72.6436C40.013 72.6482 39.9954 72.6494 39.9781 72.6472C39.9609 72.645 39.9442 72.6394 39.929 72.6307C39.9139 72.622 39.9007 72.6105 39.89 72.5967C39.8793 72.5829 39.8715 72.5671 39.8669 72.5503C39.8624 72.5335 39.8612 72.5159 39.8634 72.4986C39.8656 72.4814 39.8712 72.4647 39.8799 72.4495C39.8885 72.4344 39.9001 72.4212 39.9139 72.4105C39.9277 72.3998 39.9434 72.392 39.9603 72.3874C40.1975 72.3455 40.4412 72.3583 40.6727 72.4249C40.9042 72.4915 41.1175 72.6101 41.2962 72.7717C41.3233 72.794 41.3407 72.8258 41.3448 72.8606C41.3489 72.8954 41.3393 72.9305 41.3181 72.9584C41.3049 72.9744 41.288 72.9871 41.2689 72.9954C41.2499 73.0036 41.2291 73.0073 41.2083 73.006Z" fill="#263238"/>
<path d="M33.6722 75.088C33.6722 75.088 35.3375 72.6577 35.2826 70.6667C35.2826 70.6667 41.6546 68.661 41.4387 74.9416C41.4387 74.9416 42.5001 69.4516 37.1675 68.8696C31.8349 68.2877 31.2163 76.1274 33.782 78.6894C33.782 78.6894 32.651 76.6105 33.6722 75.088Z" fill="#263238"/>
<path d="M34.1374 75.7868C34.1374 75.4244 33.9937 75.0768 33.7378 74.8202C33.4818 74.5636 33.1346 74.4189 32.7722 74.418C31.7986 74.4436 31.1764 76.3834 33.5335 77.0605C33.8702 77.1556 34.0935 76.8372 34.1374 75.7868Z" fill="#E4897B"/>
<path d="M39.4295 77.5917C39.2016 77.8978 38.9973 78.2208 38.8183 78.5579C38.7561 78.536 38.6902 78.5177 38.628 78.492C37.7679 78.1883 37.4677 77.76 37.3982 77.394C37.3654 77.2081 37.3793 77.017 37.4385 76.8377C37.4689 76.7346 37.5133 76.6361 37.5702 76.5449C38.0174 76.9699 38.552 77.2922 39.1367 77.4892C39.3124 77.5551 39.4295 77.5917 39.4295 77.5917Z" fill="#263238"/>
<path d="M39.1367 77.4814L38.9501 77.7632C38.1375 77.4741 37.6068 77.163 37.4385 76.8299C37.469 76.7268 37.5133 76.6283 37.5702 76.5371C38.0174 76.9621 38.5521 77.2844 39.1367 77.4814Z" fill="white"/>
<path d="M38.6282 78.4916C37.7681 78.1878 37.468 77.7596 37.3984 77.3936C37.7238 77.5134 38.025 77.6907 38.2878 77.9169C38.4582 78.0685 38.5772 78.2693 38.6282 78.4916Z" fill="#DE5753"/>
<path d="M37.4352 70.3633C37.4352 70.3633 35.7552 75.3739 32.5417 75.0298C29.3283 74.6858 34.8366 68.6322 34.8366 68.6322C34.8366 68.6322 40.257 67.084 42.6177 70.0962C44.9784 73.1083 41.4502 74.9347 41.4502 74.9347C41.4502 74.9347 41.9772 71.0038 37.4352 70.3633Z" fill="#263238"/>
<path d="M34.8727 74.6268C34.8542 74.6259 34.8362 74.62 34.8207 74.6097C34.8052 74.5994 34.7928 74.585 34.7849 74.5682C34.7765 74.5449 34.7776 74.5192 34.7878 74.4967C34.7981 74.4741 34.8167 74.4565 34.8398 74.4474C37.4018 73.4702 37.3432 70.0335 37.3432 69.9969C37.3422 69.9849 37.3437 69.9728 37.3477 69.9615C37.3517 69.9502 37.358 69.9398 37.3664 69.9312C37.3747 69.9225 37.3848 69.9157 37.3959 69.9113C37.4071 69.9068 37.4191 69.9048 37.4311 69.9054C37.4549 69.9061 37.4776 69.9154 37.495 69.9315C37.5125 69.9477 37.5236 69.9696 37.5262 69.9932C37.5262 70.0298 37.5848 73.5947 34.9057 74.6195L34.8727 74.6268Z" fill="#263238"/>
<path d="M40.5059 74.8136L41.1793 74.5977C41.1793 74.5977 40.817 75.1284 40.5059 74.8136Z" fill="#263238"/>
<path d="M40.7398 74.7368C40.6143 74.6748 40.4705 74.6611 40.3355 74.6982C40.2006 74.7353 40.0839 74.8207 40.0078 74.9381C40.121 74.8818 40.245 74.8506 40.3714 74.8468C40.4978 74.843 40.6235 74.8667 40.7398 74.9161V74.7368Z" fill="#263238"/>
<path d="M35.7583 83.1289L38.4777 84.5124L38.4338 87.2684L34.5469 85.0028L35.7583 83.1289Z" fill="#FFCF47"/>
<path d="M38.8916 82.6094L39.0526 84.282L40.8277 86.1596L40.5862 83.0705L38.8916 82.6094Z" fill="#FFCF47"/>
<path d="M26.3272 63.6835L25.1926 60.7555C25.2133 60.599 25.1973 60.4398 25.1459 60.2905C25.0944 60.1412 25.0089 60.006 24.8961 59.8954C24.1056 59.3062 22.4732 58.7718 22.0633 58.834C21.4667 58.9219 20.2333 60.0016 20.3394 60.708C20.4456 61.4143 23.9299 61.8499 23.9299 61.8499L25.0865 65.0597L26.3272 63.6835Z" fill="#E4897B"/>
<path d="M31.2132 89.7833C31.2132 89.7833 33.4092 88.0375 32.5345 84.1799L30.1738 73.5073L26.1185 62.4834L24.1348 63.4862C24.1348 63.4862 27.4654 74.2576 27.7728 74.986C27.9302 75.352 28.556 80.9408 29.4088 84.685C30.1921 88.1327 31.2132 89.7833 31.2132 89.7833Z" fill="#FFCF47"/>
<path opacity="0.6" d="M31.2132 89.7833C31.2132 89.7833 33.4092 88.0375 32.5345 84.1799L30.1738 73.5073L26.1185 62.4834L24.1348 63.4862C24.1348 63.4862 27.4654 74.2576 27.7728 74.986C27.9302 75.352 28.556 80.9408 29.4088 84.685C30.1921 88.1327 31.2132 89.7833 31.2132 89.7833Z" fill="white"/>
<path d="M23.7871 63.171L26.1039 62.0107L26.609 62.783L23.9006 63.9835L23.7871 63.171Z" fill="#FFCF47"/>
<path opacity="0.7" d="M23.7871 63.171L26.1039 62.0107L26.609 62.783L23.9006 63.9835L23.7871 63.171Z" fill="white"/>
<path opacity="0.6" d="M35.7583 83.1289L38.4777 84.5124L38.4338 87.2684L34.5469 85.0028L35.7583 83.1289Z" fill="white"/>
<path opacity="0.6" d="M38.8916 82.6094L39.0526 84.282L40.8277 86.1596L40.5862 83.0705L38.8916 82.6094Z" fill="white"/>
<path d="M116.118 77.376H105.152V85.8965H116.118V77.376Z" fill="white"/>
<path opacity="0.1" d="M116.118 77.376H113.307V85.8965H116.118V77.376Z" fill="black"/>
<path d="M104.522 93.4215H116.919V77.958H112.926L104.522 81.9804V93.4215Z" fill="#FFCF47"/>
<path opacity="0.2" d="M116.919 77.958H112.926V93.4215H116.919V77.958Z" fill="black"/>
<path opacity="0.7" d="M111.605 85.0293H105.8V87.8109H111.605V85.0293Z" fill="white"/>
<path opacity="0.7" d="M111.605 88.7402H105.8V89.1392H111.605V88.7402Z" fill="white"/>
<path opacity="0.7" d="M116.531 89.9082H113.307V92.2689H116.531V89.9082Z" fill="white"/>
<path d="M111.459 76.9111H100.493V85.8964H111.459V76.9111Z" fill="white"/>
<path opacity="0.1" d="M111.458 76.9111H108.647V85.8964H111.458V76.9111Z" fill="black"/>
<path d="M99.8633 93.4215H112.26V77.958H108.267L99.8633 81.9804V93.4215Z" fill="#FFCF47"/>
<path opacity="0.2" d="M112.26 77.958H108.267V93.4215H112.26V77.958Z" fill="black"/>
<path opacity="0.7" d="M106.945 85.0293H101.141V87.8109H106.945V85.0293Z" fill="white"/>
<path opacity="0.7" d="M106.945 88.7402H101.141V89.1392H106.945V88.7402Z" fill="white"/>
<path opacity="0.7" d="M111.872 89.9082H108.647V92.2689H111.872V89.9082Z" fill="white"/>
<path d="M92.1631 152.131H94.4067L98.4327 96.042H95.4571L92.1631 152.131Z" fill="#263238"/>
<path opacity="0.1" d="M92.1631 152.132H94.4067L98.235 98.8275L98.4327 96.1338H95.4571L95.2997 98.8275L92.1631 152.132Z" fill="white"/>
<path opacity="0.2" d="M95.2988 98.6958H98.2341L98.4318 96.1338H95.4562L95.2988 98.6958Z" fill="black"/>
<path d="M75.7068 152.131H77.9504L78.3164 96.042H75.3408L75.7068 152.131Z" fill="#263238"/>
<path opacity="0.1" d="M75.3379 96.1338L75.4001 105.181L75.7039 152.132H77.9475L78.2549 105.181L78.3135 96.1338H75.3379Z" fill="white"/>
<path opacity="0.2" d="M75.3379 96.1338L75.4001 105.284H78.2549L78.3135 96.1338H75.3379Z" fill="black"/>
<path d="M51.9023 152.131H54.1459L58.1719 96.042H55.1963L51.9023 152.131Z" fill="#263238"/>
<path opacity="0.1" d="M51.9023 152.132H54.1459L57.9779 98.8275L58.1719 96.1338H55.1963L55.039 98.8275L51.9023 152.132Z" fill="white"/>
<path opacity="0.2" d="M55.0391 98.6958H57.978L58.172 96.1338H55.1964L55.0391 98.6958Z" fill="black"/>
<path d="M117.812 152.131H120.055L116.758 96.042H113.782L117.812 152.131Z" fill="#263238"/>
<path opacity="0.1" d="M113.782 96.1338L113.984 98.8275L117.812 152.132H120.052L116.919 98.8275L116.758 96.1338H113.782Z" fill="white"/>
<path opacity="0.2" d="M116.758 96.1338H113.782L113.984 98.6958H116.919L116.758 96.1338Z" fill="black"/>
<path d="M118.328 97.4473L53.6334 97.4473C53.5296 97.4473 53.4268 97.4268 53.3309 97.3871C53.235 97.3474 53.1478 97.2891 53.0744 97.2157C53.001 97.1423 52.9428 97.0552 52.9031 96.9592C52.8633 96.8633 52.8429 96.7605 52.8429 96.6567V94.6401L119.118 94.6401V96.6567C119.118 96.7605 119.098 96.8633 119.058 96.9592C119.018 97.0552 118.96 97.1423 118.887 97.2157C118.813 97.2891 118.726 97.3474 118.63 97.3871C118.534 97.4268 118.431 97.4473 118.328 97.4473Z" fill="#FFCF47"/>
<path opacity="0.4" d="M118.328 97.4473L53.6334 97.4473C53.5296 97.4473 53.4268 97.4268 53.3309 97.3871C53.235 97.3474 53.1478 97.2891 53.0744 97.2157C53.001 97.1423 52.9428 97.0552 52.9031 96.9592C52.8633 96.8633 52.8429 96.7605 52.8429 96.6567V94.6401L119.118 94.6401V96.6567C119.118 96.7605 119.098 96.8633 119.058 96.9592C119.018 97.0552 118.96 97.1423 118.887 97.2157C118.813 97.2891 118.726 97.3474 118.63 97.3871C118.534 97.4268 118.431 97.4473 118.328 97.4473Z" fill="white"/>
<path opacity="0.2" d="M52.8429 96.042L119.118 96.042V94.6366L52.8429 94.6366V96.042Z" fill="black"/>
<path d="M51.4524 95.003H120.506C120.61 95.0035 120.713 94.9834 120.809 94.9438C120.905 94.9042 120.992 94.846 121.066 94.7725C121.139 94.699 121.197 94.6117 121.237 94.5155C121.277 94.4194 121.297 94.3164 121.296 94.2124C121.296 94.0028 121.213 93.8017 121.065 93.6534C120.916 93.5052 120.715 93.4219 120.506 93.4219H51.4524C51.2424 93.4219 51.041 93.505 50.8921 93.6532C50.7433 93.8014 50.6592 94.0024 50.6582 94.2124C50.6582 94.3166 50.6788 94.4197 50.7187 94.5158C50.7587 94.612 50.8172 94.6993 50.891 94.7727C50.9648 94.8462 51.0524 94.9044 51.1488 94.9439C51.2451 94.9834 51.3483 95.0035 51.4524 95.003Z" fill="#FFCF47"/>
<path opacity="0.4" d="M51.4524 95.003H120.506C120.61 95.0035 120.713 94.9834 120.809 94.9438C120.905 94.9042 120.992 94.846 121.066 94.7725C121.139 94.699 121.197 94.6117 121.237 94.5155C121.277 94.4194 121.297 94.3164 121.296 94.2124C121.296 94.0028 121.213 93.8017 121.065 93.6534C120.916 93.5052 120.715 93.4219 120.506 93.4219H51.4524C51.2424 93.4219 51.041 93.505 50.8921 93.6532C50.7433 93.8014 50.6592 94.0024 50.6582 94.2124C50.6582 94.3166 50.6788 94.4197 50.7187 94.5158C50.7587 94.612 50.8172 94.6993 50.891 94.7727C50.9648 94.8462 51.0524 94.9044 51.1488 94.9439C51.2451 94.9834 51.3483 95.0035 51.4524 95.003Z" fill="white"/>
<path d="M105.668 93.4144V92.1774H106.499L105.668 91.6942H106.29L105.459 91.1526H104.673V90.5304H105.588L104.673 90.168V88.8175H105.588V87.9354H106.499L105.588 87.628V86.9985H106.239L105.705 86.4678L105.243 86.0029H91.1013V86.6361H90.168L91.2074 87.1046V87.628H89.3005V88.6015H88.4551L89.3005 89.0261V90.1131H89.9008V90.6328H91.1013V92.1774H90.4278L90.9805 92.73V93.4218L105.668 93.4144Z" fill="#FFCF47"/>
<path opacity="0.7" d="M105.668 93.4144V92.1774H106.499L105.668 91.6942H106.29L105.459 91.1526H104.673V90.5304H105.588L104.673 90.168V88.8175H105.588V87.9354H106.499L105.588 87.628V86.9985H106.239L105.705 86.4678L105.243 86.0029H91.1013V86.6361H90.168L91.2074 87.1046V87.628H89.3005V88.6015H88.4551L89.3005 89.0261V90.1131H89.9008V90.6328H91.1013V92.1774H90.4278L90.9805 92.73V93.4218L105.668 93.4144Z" fill="white"/>
<path opacity="0.1" d="M105.668 93.4144V92.1774H106.499L105.668 91.6942H106.29L105.459 91.1526H104.672V90.5304H105.587L104.672 90.168V88.8175H105.587V87.9354H106.499L105.587 87.628V86.9985H106.239L105.705 86.4678L105.243 86.0029H97.7954V86.6361H96.862L97.8978 87.1046V87.628H95.991V88.6015H95.1455L95.991 89.0261V90.1131H96.5912V90.6328H97.7954V92.1774H97.1219L97.6709 92.73V93.4218L105.668 93.4144Z" fill="black"/>
<path opacity="0.1" d="M91.207 87.6273H97.8975L91.207 87.3857V87.6273Z" fill="black"/>
<path opacity="0.1" d="M91.1016 90.6328H97.7957L97.825 91.1013L91.1016 90.6328Z" fill="black"/>
<path opacity="0.1" d="M89.9004 90.1123H96.5909L89.9004 90.3465V90.1123Z" fill="black"/>
<path opacity="0.1" d="M91.1016 92.1769H97.7957L91.1016 91.9316V92.1769Z" fill="black"/>
<path opacity="0.1" d="M90.9805 92.7295H97.6709V92.9857L90.9805 92.7295Z" fill="black"/>
<path opacity="0.1" d="M89.3008 88.601H95.9913L89.3008 88.3887V88.601Z" fill="black"/>
<path opacity="0.1" d="M91.1016 86.6356H97.7957L91.1016 86.4014V86.6356Z" fill="black"/>
<path opacity="0.1" d="M105.587 86.998H98.7979L105.587 87.2067V86.998Z" fill="black"/>
<path opacity="0.1" d="M97.8975 87.6279H105.587L98.6148 87.8548L97.8975 87.6279Z" fill="black"/>
<path opacity="0.1" d="M95.9912 88.6016L105.588 88.8175V88.6016H95.9912Z" fill="black"/>
<path opacity="0.1" d="M95.9912 89.0254H100.738L95.9912 89.256V89.0254Z" fill="black"/>
<path opacity="0.1" d="M104.672 90.1676L97.7949 90.1127L104.672 89.959V90.1676Z" fill="black"/>
<path opacity="0.1" d="M104.672 90.5303H97.6709L104.672 90.7645V90.5303Z" fill="black"/>
<path opacity="0.1" d="M105.668 91.6943H97.8975V91.9322L105.668 91.6943Z" fill="black"/>
<path opacity="0.1" d="M105.668 92.1768H100.039L105.668 92.3341V92.1768Z" fill="black"/>
<path d="M87.6605 91.8184V92.9932C87.6605 93.2933 87.2945 93.4178 87.0054 93.4178H63.5375C63.2373 93.4178 62.875 93.2933 62.875 92.9932V91.8184H87.6605Z" fill="#263238"/>
<path opacity="0.4" d="M87.6605 91.8184V92.9932C87.6605 93.2933 87.2945 93.4178 87.0054 93.4178H63.5375C63.2373 93.4178 62.875 93.2933 62.875 92.9932V91.8184H87.6605Z" fill="white"/>
<path opacity="0.2" d="M87.6612 91.8184V92.9932C87.6612 93.2933 87.2952 93.4178 87.0061 93.4178H71.5279C71.2278 93.4178 70.8691 93.2933 70.8691 92.9932V91.8184H87.6612Z" fill="black"/>
<path d="M91.5883 79.6235L88.792 92.2981C88.7439 92.5038 88.6285 92.6875 88.4641 92.8202C88.2996 92.9528 88.0956 93.0267 87.8844 93.0301H72.6258C72.5309 93.028 72.4377 93.004 72.3536 92.9598C72.2695 92.9157 72.1968 92.8527 72.1411 92.7758C72.0855 92.6988 72.0484 92.6101 72.0328 92.5164C72.0172 92.4227 72.0235 92.3267 72.0512 92.2359L74.8401 79.6601C74.8973 79.4682 75.0187 79.3016 75.1839 79.1884C75.3491 79.0752 75.5481 79.022 75.7478 79.0379H91.01C91.4199 79.0233 91.6761 79.2099 91.5883 79.6235Z" fill="#263238"/>
<path opacity="0.4" d="M91.5878 79.6228L88.7916 92.2973C88.7435 92.503 88.6281 92.6868 88.4636 92.8194C88.2992 92.952 88.0951 93.0259 87.8839 93.0293H73.1414C73.0465 93.0273 72.9533 93.0032 72.8692 92.9591C72.7851 92.915 72.7124 92.852 72.6568 92.775C72.6011 92.6981 72.564 92.6093 72.5484 92.5156C72.5328 92.422 72.5391 92.3259 72.5668 92.2351L75.3594 79.6594C75.416 79.467 75.5372 79.3001 75.7025 79.1868C75.8679 79.0734 76.0673 79.0206 76.2671 79.0372H91.0096C91.4195 79.0225 91.6757 79.2092 91.5878 79.6228Z" fill="white"/>
<path opacity="0.2" d="M84.063 86.0653C84.063 87.1633 82.8991 88.0307 82.0463 88.0307C81.1935 88.0307 80.6884 87.1486 80.9483 86.0653C81.2082 84.9819 82.0463 84.1365 82.8735 84.1035C82.6319 85.2015 83.1516 86.0653 84.0007 86.0653H84.063Z" fill="black"/>
</svg>
