<svg width="21" height="23" viewBox="0 0 21 23" fill="none" xmlns="http://www.w3.org/2000/svg">
<path d="M6 13.75C5.68125 13.75 5.41406 13.6422 5.19844 13.4266C4.98281 13.2109 4.875 12.9438 4.875 12.625C4.875 12.3062 4.98281 12.0391 5.19844 11.8234C5.41406 11.6078 5.68125 11.5 6 11.5C6.31875 11.5 6.58594 11.6078 6.80156 11.8234C7.01719 12.0391 7.125 12.3062 7.125 12.625C7.125 12.9438 7.01719 13.2109 6.80156 13.4266C6.58594 13.6422 6.31875 13.75 6 13.75ZM10.5 13.75C10.1812 13.75 9.91406 13.6422 9.69844 13.4266C9.48281 13.2109 9.375 12.9438 9.375 12.625C9.375 12.3062 9.48281 12.0391 9.69844 11.8234C9.91406 11.6078 10.1812 11.5 10.5 11.5C10.8188 11.5 11.0859 11.6078 11.3016 11.8234C11.5172 12.0391 11.625 12.3062 11.625 12.625C11.625 12.9438 11.5172 13.2109 11.3016 13.4266C11.0859 13.6422 10.8188 13.75 10.5 13.75ZM15 13.75C14.6812 13.75 14.4141 13.6422 14.1984 13.4266C13.9828 13.2109 13.875 12.9438 13.875 12.625C13.875 12.3062 13.9828 12.0391 14.1984 11.8234C14.4141 11.6078 14.6812 11.5 15 11.5C15.3188 11.5 15.5859 11.6078 15.8016 11.8234C16.0172 12.0391 16.125 12.3062 16.125 12.625C16.125 12.9438 16.0172 13.2109 15.8016 13.4266C15.5859 13.6422 15.3188 13.75 15 13.75ZM2.625 22.75C2.00625 22.75 1.47656 22.5297 1.03594 22.0891C0.595313 21.6484 0.375 21.1187 0.375 20.5V4.75C0.375 4.13125 0.595313 3.60156 1.03594 3.16094C1.47656 2.72031 2.00625 2.5 2.625 2.5H3.75V0.25H6V2.5H15V0.25H17.25V2.5H18.375C18.9937 2.5 19.5234 2.72031 19.9641 3.16094C20.4047 3.60156 20.625 4.13125 20.625 4.75V20.5C20.625 21.1187 20.4047 21.6484 19.9641 22.0891C19.5234 22.5297 18.9937 22.75 18.375 22.75H2.625ZM2.625 20.5H18.375V9.25H2.625V20.5ZM2.625 7H18.375V4.75H2.625V7Z" fill="#1C1B1F"/>
</svg>
