<svg width="24" height="24" viewBox="0 0 24 24" fill="none" xmlns="http://www.w3.org/2000/svg">
<mask id="mask0_367_7784" style="mask-type:alpha" maskUnits="userSpaceOnUse" x="0" y="0" width="24" height="24">
<rect width="24" height="24" fill="#D9D9D9"/>
</mask>
<g mask="url(#mask0_367_7784)">
<path d="M7 20H4C3.45 20 2.97917 19.8042 2.5875 19.4125C2.19583 19.0208 2 18.55 2 18V6C2 5.45 2.19583 4.97917 2.5875 4.5875C2.97917 4.19583 3.45 4 4 4H20V6H4V18H7V20ZM11 17.5C11.4167 17.5 11.7708 17.3542 12.0625 17.0625C12.3542 16.7708 12.5 16.4167 12.5 16C12.5 15.5833 12.3542 15.2292 12.0625 14.9375C11.7708 14.6458 11.4167 14.5 11 14.5C10.5833 14.5 10.2292 14.6458 9.9375 14.9375C9.64583 15.2292 9.5 15.5833 9.5 16C9.5 16.4167 9.64583 16.7708 9.9375 17.0625C10.2292 17.3542 10.5833 17.5 11 17.5ZM9 20V18.225C8.68333 17.9417 8.4375 17.6083 8.2625 17.225C8.0875 16.8417 8 16.4333 8 16C8 15.5667 8.0875 15.1583 8.2625 14.775C8.4375 14.3917 8.68333 14.0583 9 13.775V12H13V13.775C13.3167 14.0583 13.5625 14.3917 13.7375 14.775C13.9125 15.1583 14 15.5667 14 16C14 16.4333 13.9125 16.8417 13.7375 17.225C13.5625 17.6083 13.3167 17.9417 13 18.225V20H9ZM21 20H16C15.7167 20 15.4792 19.9042 15.2875 19.7125C15.0958 19.5208 15 19.2833 15 19V10C15 9.71667 15.0958 9.47917 15.2875 9.2875C15.4792 9.09583 15.7167 9 16 9H21C21.2833 9 21.5208 9.09583 21.7125 9.2875C21.9042 9.47917 22 9.71667 22 10V19C22 19.2833 21.9042 19.5208 21.7125 19.7125C21.5208 19.9042 21.2833 20 21 20Z" fill="#A9A9A9"/>
</g>
</svg>
