<svg width="20" height="16" viewBox="0 0 20 16" fill="none" xmlns="http://www.w3.org/2000/svg">
<path d="M5 16H2C1.45 16 0.979167 15.8042 0.5875 15.4125C0.195833 15.0208 0 14.55 0 14V2C0 1.45 0.195833 0.979167 0.5875 0.5875C0.979167 0.195833 1.45 0 2 0H18V2H2V14H5V16ZM9 13.5C9.41667 13.5 9.77083 13.3542 10.0625 13.0625C10.3542 12.7708 10.5 12.4167 10.5 12C10.5 11.5833 10.3542 11.2292 10.0625 10.9375C9.77083 10.6458 9.41667 10.5 9 10.5C8.58333 10.5 8.22917 10.6458 7.9375 10.9375C7.64583 11.2292 7.5 11.5833 7.5 12C7.5 12.4167 7.64583 12.7708 7.9375 13.0625C8.22917 13.3542 8.58333 13.5 9 13.5ZM7 16V14.225C6.68333 13.9417 6.4375 13.6083 6.2625 13.225C6.0875 12.8417 6 12.4333 6 12C6 11.5667 6.0875 11.1583 6.2625 10.775C6.4375 10.3917 6.68333 10.0583 7 9.775V8H11V9.775C11.3167 10.0583 11.5625 10.3917 11.7375 10.775C11.9125 11.1583 12 11.5667 12 12C12 12.4333 11.9125 12.8417 11.7375 13.225C11.5625 13.6083 11.3167 13.9417 11 14.225V16H7ZM19 16H14C13.7167 16 13.4792 15.9042 13.2875 15.7125C13.0958 15.5208 13 15.2833 13 15V6C13 5.71667 13.0958 5.47917 13.2875 5.2875C13.4792 5.09583 13.7167 5 14 5H19C19.2833 5 19.5208 5.09583 19.7125 5.2875C19.9042 5.47917 20 5.71667 20 6V15C20 15.2833 19.9042 15.5208 19.7125 15.7125C19.5208 15.9042 19.2833 16 19 16Z" fill="#1C1C1C"/>
</svg>
