<svg width="47" height="47" viewBox="0 0 47 47" fill="none" xmlns="http://www.w3.org/2000/svg">
<mask id="mask0_958_40226" style="mask-type:alpha" maskUnits="userSpaceOnUse" x="0" y="0" width="47" height="47">
<rect x="0.888672" y="0.861328" width="45.3679" height="45.3679" fill="#D9D9D9"/>
</mask>
<g mask="url(#mask0_958_40226)">
<path d="M33.9681 34.8898C35.7954 34.8898 37.3549 34.2439 38.6466 32.9522C39.9383 31.6605 40.5842 30.1009 40.5842 28.2736C40.5842 26.4463 39.9383 24.8868 38.6466 23.5951C37.3549 22.3033 35.7954 21.6575 33.9681 21.6575C32.1407 21.6575 30.5812 22.3033 29.2895 23.5951C27.9978 24.8868 27.3519 26.4463 27.3519 28.2736C27.3519 30.1009 27.9978 31.6605 29.2895 32.9522C30.5812 34.2439 32.1407 34.8898 33.9681 34.8898ZM8.44862 42.4511C7.40894 42.4511 6.51892 42.0809 5.77854 41.3405C5.03816 40.6001 4.66797 39.7101 4.66797 38.6704V8.42519C4.66797 7.38551 5.03816 6.49548 5.77854 5.7551C6.51892 5.01472 7.40894 4.64453 8.44862 4.64453H23.5712C24.6109 4.64453 25.501 5.01472 26.2413 5.7551C26.9817 6.49548 27.3519 7.38551 27.3519 8.42519V15.7029C26.6273 16.081 25.9499 16.5142 25.3198 17.0025C24.6897 17.4909 24.1068 18.0344 23.5712 18.633V14.0962H8.44862V32.9994H20.594C21.1296 34.6062 21.933 36.0555 23.0042 37.3472C24.0753 38.6389 25.3513 39.7101 26.8321 40.5608C26.4855 41.1594 26.0208 41.6241 25.4379 41.9549C24.8551 42.2857 24.2329 42.4511 23.5712 42.4511H8.44862ZM29.2422 42.4511V37.5362C27.4779 36.6541 26.0917 35.386 25.0835 33.732C24.0753 32.0779 23.5712 30.2585 23.5712 28.2736C23.5712 26.2888 24.0753 24.4693 25.0835 22.8153C26.0917 21.1613 27.4779 19.8932 29.2422 19.011V14.0962H38.6939V19.011C40.4582 19.8932 41.8444 21.1613 42.8526 22.8153C43.8608 24.4693 44.3649 26.2888 44.3649 28.2736C44.3649 30.2585 43.8608 32.0779 42.8526 33.732C41.8444 35.386 40.4582 36.6541 38.6939 37.5362V42.4511H29.2422Z" fill="#1C1C1C"/>
</g>
</svg>
