<svg width="20" height="20" viewBox="0 0 20 20" fill="none" xmlns="http://www.w3.org/2000/svg">
<path d="M10.4 20L12.575 18C14.3583 16.3333 15.5417 15.0625 16.125 14.1875C16.7083 13.3125 17 12.375 17 11.375C17 10.9417 16.9417 10.5333 16.825 10.15C16.7083 9.76667 16.5333 9.38333 16.3 9H18C18.55 9 19.0208 9.19583 19.4125 9.5875C19.8042 9.97917 20 10.45 20 11V20H10.4ZM0 20V11C0 10.45 0.191667 9.97917 0.575 9.5875C0.958333 9.19583 1.43333 9 2 9H3.675C3.45833 9.35 3.29167 9.72917 3.175 10.1375C3.05833 10.5458 3 10.9583 3 11.375C3 12.375 3.27917 13.3125 3.8375 14.1875C4.39583 15.0625 5.58333 16.3333 7.4 18L9.6 20H0ZM17 8C16.15 8 15.4375 7.7125 14.8625 7.1375C14.2875 6.5625 14 5.85 14 5C14 4.16667 14.2875 3.45833 14.8625 2.875C15.4375 2.29167 16.15 2 17 2C17.8333 2 18.5417 2.29167 19.125 2.875C19.7083 3.45833 20 4.16667 20 5C20 5.85 19.7083 6.5625 19.125 7.1375C18.5417 7.7125 17.8333 8 17 8ZM10 7C9.01667 7 8.1875 6.6625 7.5125 5.9875C6.8375 5.3125 6.5 4.48333 6.5 3.5C6.5 2.53333 6.8375 1.70833 7.5125 1.025C8.1875 0.341667 9.01667 0 10 0C10.9667 0 11.7917 0.341667 12.475 1.025C13.1583 1.70833 13.5 2.53333 13.5 3.5C13.5 4.48333 13.1583 5.3125 12.475 5.9875C11.7917 6.6625 10.9667 7 10 7ZM5 11.375C5 12.0583 5.33333 12.825 6 13.675C6.66667 14.525 7.99167 15.85 9.975 17.65C11.9417 15.8833 13.2708 14.5708 13.9625 13.7125C14.6542 12.8542 15 12.075 15 11.375C15 10.7083 14.775 10.1458 14.325 9.6875C13.875 9.22917 13.3333 9 12.7 9C12.3167 9 11.9583 9.09167 11.625 9.275C11.2917 9.45833 11 9.68333 10.75 9.95L9.975 10.75L9.225 9.975C8.99167 9.725 8.725 9.5 8.425 9.3C8.125 9.1 7.75 9 7.3 9C6.61667 9 6.0625 9.22917 5.6375 9.6875C5.2125 10.1458 5 10.7083 5 11.375ZM3 8C2.15 8 1.4375 7.7125 0.8625 7.1375C0.2875 6.5625 0 5.85 0 5C0 4.16667 0.2875 3.45833 0.8625 2.875C1.4375 2.29167 2.15 2 3 2C3.83333 2 4.54167 2.29167 5.125 2.875C5.70833 3.45833 6 4.16667 6 5C6 5.85 5.70833 6.5625 5.125 7.1375C4.54167 7.7125 3.83333 8 3 8Z" fill="#1C1C1C"/>
</svg>
