<svg width="24" height="24" viewBox="0 0 24 24" fill="none" xmlns="http://www.w3.org/2000/svg">
<mask id="mask0_367_7774" style="mask-type:alpha" maskUnits="userSpaceOnUse" x="0" y="0" width="24" height="24">
<rect width="24" height="24" fill="#D9D9D9"/>
</mask>
<g mask="url(#mask0_367_7774)">
<path d="M12.4 22L14.575 20C16.3583 18.3333 17.5417 17.0625 18.125 16.1875C18.7083 15.3125 19 14.375 19 13.375C19 12.9417 18.9417 12.5333 18.825 12.15C18.7083 11.7667 18.5333 11.3833 18.3 11H20C20.55 11 21.0208 11.1958 21.4125 11.5875C21.8042 11.9792 22 12.45 22 13V22H12.4ZM2 22V13C2 12.45 2.19167 11.9792 2.575 11.5875C2.95833 11.1958 3.43333 11 4 11H5.675C5.45833 11.35 5.29167 11.7292 5.175 12.1375C5.05833 12.5458 5 12.9583 5 13.375C5 14.375 5.27917 15.3125 5.8375 16.1875C6.39583 17.0625 7.58333 18.3333 9.4 20L11.6 22H2ZM19 10C18.15 10 17.4375 9.7125 16.8625 9.1375C16.2875 8.5625 16 7.85 16 7C16 6.16667 16.2875 5.45833 16.8625 4.875C17.4375 4.29167 18.15 4 19 4C19.8333 4 20.5417 4.29167 21.125 4.875C21.7083 5.45833 22 6.16667 22 7C22 7.85 21.7083 8.5625 21.125 9.1375C20.5417 9.7125 19.8333 10 19 10ZM12 9C11.0167 9 10.1875 8.6625 9.5125 7.9875C8.8375 7.3125 8.5 6.48333 8.5 5.5C8.5 4.53333 8.8375 3.70833 9.5125 3.025C10.1875 2.34167 11.0167 2 12 2C12.9667 2 13.7917 2.34167 14.475 3.025C15.1583 3.70833 15.5 4.53333 15.5 5.5C15.5 6.48333 15.1583 7.3125 14.475 7.9875C13.7917 8.6625 12.9667 9 12 9ZM7 13.375C7 14.0583 7.33333 14.825 8 15.675C8.66667 16.525 9.99167 17.85 11.975 19.65C13.9417 17.8833 15.2708 16.5708 15.9625 15.7125C16.6542 14.8542 17 14.075 17 13.375C17 12.7083 16.775 12.1458 16.325 11.6875C15.875 11.2292 15.3333 11 14.7 11C14.3167 11 13.9583 11.0917 13.625 11.275C13.2917 11.4583 13 11.6833 12.75 11.95L11.975 12.75L11.225 11.975C10.9917 11.725 10.725 11.5 10.425 11.3C10.125 11.1 9.75 11 9.3 11C8.61667 11 8.0625 11.2292 7.6375 11.6875C7.2125 12.1458 7 12.7083 7 13.375ZM5 10C4.15 10 3.4375 9.7125 2.8625 9.1375C2.2875 8.5625 2 7.85 2 7C2 6.16667 2.2875 5.45833 2.8625 4.875C3.4375 4.29167 4.15 4 5 4C5.83333 4 6.54167 4.29167 7.125 4.875C7.70833 5.45833 8 6.16667 8 7C8 7.85 7.70833 8.5625 7.125 9.1375C6.54167 9.7125 5.83333 10 5 10Z" fill="#A9A9A9"/>
</g>
</svg>
