<svg width="117" height="127" viewBox="0 0 117 127" fill="none" xmlns="http://www.w3.org/2000/svg">
<path opacity="0.7" d="M104.574 71.7985C104.574 71.7985 117.566 58.1902 114.395 33.6374C111.224 9.08466 91.1125 -0.569483 77.3821 3.67655C63.6518 7.92258 60.3415 15.9901 49.1097 20.3016C37.8778 24.6131 16.9571 20.6906 5.91414 36.0466C-5.1288 51.4026 7.42769 77.8768 23.9778 94.7733C40.5279 111.67 84.5083 102.898 104.574 71.7985Z" fill="#FFEBEB"/>
<path d="M27.0029 33.9516L29.5079 25.3277L37.0259 23.2849L41.5814 13.0739L48.6452 7.62744L55.4786 15.1168L57.5292 18.7467L67.5522 23.0586L63.9083 37.811L52.0619 47.5694L43.1778 50.5173L36.5684 49.1565L31.101 44.6183L27.0029 33.9516Z" fill="#EBEBEB"/>
<path opacity="0.5" d="M27.0029 33.9516L29.5079 25.3277L37.0259 23.2849L41.5814 13.0739L48.6452 7.62744L55.4786 15.1168L57.5292 18.7467L67.5522 23.0586L63.9083 37.811L52.0619 47.5694L43.1778 50.5173L36.5684 49.1565L31.101 44.6183L27.0029 33.9516Z" fill="white"/>
<path d="M43.1895 50.679H43.1538L36.5475 49.3182C36.5212 49.3123 36.4967 49.3001 36.4761 49.2826L31.0088 44.7574C30.9883 44.7401 30.9727 44.7178 30.9634 44.6927L26.862 34.026C26.8507 33.9925 26.8507 33.9561 26.862 33.9226L29.354 25.289C29.3613 25.2622 29.3757 25.2379 29.3957 25.2186C29.4157 25.1993 29.4405 25.1856 29.4676 25.1791L36.9109 23.1557L41.4341 13.0061C41.4457 12.9815 41.4623 12.9595 41.4827 12.9415L48.5465 7.51117C48.5792 7.48666 48.6198 7.47508 48.6605 7.47867C48.7013 7.48225 48.7393 7.50073 48.7671 7.53056L55.6005 15.0199C55.6081 15.0288 55.6146 15.0386 55.62 15.049L57.6447 18.6336L67.6189 22.9229C67.6538 22.9385 67.6821 22.9659 67.6987 23.0002C67.7153 23.0345 67.7192 23.0735 67.7098 23.1104L64.066 37.8628C64.0584 37.8965 64.0388 37.9264 64.0108 37.9468L52.1676 47.7052C52.1518 47.7173 52.1343 47.7271 52.1157 47.7343L43.2284 50.6855L43.1895 50.679ZM36.6546 49.0079L43.1797 50.3525L51.9924 47.424L63.7739 37.727L67.3723 23.1589L57.4662 18.8954C57.4334 18.8821 57.406 18.8582 57.3883 18.8276L55.3474 15.2106L48.6276 7.8344L41.7164 13.1645L37.1738 23.3399C37.1635 23.3614 37.1485 23.3804 37.13 23.3955C37.1115 23.4106 37.0899 23.4214 37.0667 23.4272L29.6363 25.4474L27.1703 33.9323L31.2392 44.5085L36.6546 49.0079Z" fill="#263238"/>
<path d="M72.7643 16.0931L70.2237 15.4951L68.4553 19.3448L65.5059 23.285L60.7134 24.6426L56.8392 25.3246L52.2966 33.496L49.1071 34.1748L42.2737 45.294L33.1593 39.395L32.0172 35.3093L28.3734 31.4532L23.8307 31.6794L17.2245 33.2665L15.1609 26.9053L8.27558 24.6782C8.27558 25.0208 8.27558 25.3634 8.27558 25.7093C8.25672 31.3863 9.66087 36.9781 12.3607 41.9776C16.8579 50.1781 24.8496 58.7858 23.3603 69.0226C23.1039 70.7842 22.9157 72.2355 23.9216 73.7288H58.6563C60.1326 71.6828 59.8147 69.1292 59.7206 66.1523C59.5486 60.6573 61.158 55.2851 63.8997 50.5886C66.2035 46.6451 69.5423 43.1542 71.4599 39.0297C73.3776 34.9053 74.1498 30.241 74.1498 25.7158C74.1464 22.4591 73.68 19.2194 72.7643 16.0931Z" fill="#EBEBEB"/>
<path d="M58.6368 73.9145H23.9183C23.892 73.9146 23.866 73.9081 23.8428 73.8957C23.8196 73.8833 23.7998 73.8653 23.7853 73.8434C22.7243 72.2725 22.9514 70.6919 23.1948 69.0208C24.3272 61.2632 19.9922 54.4753 15.8001 47.9492C14.5022 45.9257 13.2757 44.0122 12.2309 42.0793C9.51221 37.0582 8.10098 31.4382 8.12631 25.7333C8.12631 25.3875 8.12631 25.0416 8.12631 24.699C8.12719 24.6742 8.13378 24.6499 8.1456 24.628C8.15742 24.6062 8.17413 24.5873 8.19445 24.5729C8.21451 24.5577 8.23805 24.5476 8.26297 24.5437C8.28789 24.5397 8.3134 24.542 8.33722 24.5503L15.2225 26.7741C15.2472 26.7813 15.2696 26.7945 15.2877 26.8126C15.3059 26.8307 15.3192 26.853 15.3263 26.8776L17.3316 33.0901L23.7918 31.5354L28.3766 31.3059C28.4 31.3042 28.4234 31.3076 28.4453 31.316C28.4672 31.3244 28.4869 31.3375 28.5031 31.3544L32.1502 35.2138C32.1669 35.2341 32.1801 35.257 32.1891 35.2817L33.3086 39.3059L42.2153 45.0756L48.9611 34.0857C48.9724 34.0669 48.9875 34.0507 49.0053 34.0379C49.0232 34.0251 49.0434 34.0161 49.0649 34.0113L52.1831 33.3649L56.703 25.2582C56.715 25.2374 56.7314 25.2195 56.751 25.2055C56.7706 25.1916 56.7929 25.182 56.8165 25.1774L60.6907 24.4954L65.4053 23.1539L68.3093 19.2751L70.0744 15.4448C70.0888 15.4106 70.1151 15.3826 70.1484 15.366C70.1818 15.3494 70.22 15.3452 70.2561 15.3543L72.8 15.9491C72.8279 15.9557 72.8535 15.9697 72.8741 15.9896C72.8946 16.0095 72.9094 16.0346 72.9168 16.0622C73.8348 19.2132 74.298 22.4782 74.2926 25.7592C74.2926 30.7047 73.3548 35.3334 71.5865 39.1411C70.4703 41.5459 68.8479 43.7665 67.284 45.929C66.1147 47.4726 65.0252 49.0747 64.0198 50.729C61.1385 55.668 59.7011 61.0175 59.8633 66.2086C59.8633 66.5642 59.8893 66.9133 59.9055 67.2559C60.0093 69.8224 60.1034 72.0365 58.7698 73.8822C58.7512 73.8965 58.7297 73.9068 58.7068 73.9124C58.6839 73.918 58.66 73.9187 58.6368 73.9145ZM23.9897 73.5913H58.5525C59.7725 71.8458 59.6816 69.7125 59.581 67.2333C59.581 66.8907 59.5518 66.5383 59.5388 66.1828C59.3734 60.9335 60.8367 55.5161 63.7408 50.5318C64.7523 48.8684 65.8471 47.2566 67.0212 45.7027C68.5786 43.5694 70.188 41.3617 71.2912 38.9859C73.0434 35.2202 73.9681 30.64 73.9681 25.7333C73.9713 22.5221 73.5213 19.3264 72.6313 16.24L70.3113 15.6937L68.5981 19.4238C68.5939 19.4342 68.5885 19.4439 68.5819 19.4529L65.6324 23.3931C65.6117 23.4215 65.582 23.442 65.5481 23.4513L60.7621 24.8154L56.9496 25.4845L52.4329 33.5879C52.4209 33.6081 52.405 33.6256 52.386 33.6395C52.3671 33.6534 52.3455 33.6633 52.3226 33.6687L49.2012 34.341L42.4035 45.4021C42.3807 45.4381 42.3445 45.4636 42.3029 45.4732C42.2814 45.4784 42.259 45.4791 42.2372 45.4752C42.2155 45.4713 42.1947 45.4629 42.1764 45.4506L33.0652 39.5354C33.0319 39.5134 33.0077 39.4801 32.9971 39.4417L31.8679 35.398L28.2987 31.6227L23.8178 31.8457L17.231 33.4295C17.1915 33.4388 17.1499 33.4331 17.1144 33.4133C17.079 33.3936 17.0523 33.3613 17.0395 33.3229L15.0148 27.0457L8.41509 24.9156C8.41509 25.1838 8.41509 25.4521 8.41509 25.7236C8.38948 31.3744 9.78736 36.9412 12.4807 41.9144C13.5353 43.8376 14.752 45.7447 16.0499 47.7682C20.268 54.3524 24.6419 61.163 23.4933 69.0596C23.2597 70.708 23.052 72.1367 23.9897 73.5816V73.5913Z" fill="#263238"/>
<path d="M19.5019 42.7434H19.4727C19.4306 42.7355 19.3934 42.7114 19.369 42.6763C19.3447 42.6412 19.3353 42.5979 19.3429 42.5559L19.7972 40.0606L20.8939 36.2787L17.1073 33.3955C17.089 33.3831 17.0734 33.3671 17.0615 33.3485C17.0496 33.3299 17.0417 33.309 17.0382 33.2873C17.0347 33.2655 17.0357 33.2432 17.0412 33.2218C17.0466 33.2004 17.0564 33.1804 17.07 33.1629C17.0835 33.1455 17.1005 33.131 17.1199 33.1203C17.1392 33.1096 17.1606 33.103 17.1827 33.1009C17.2047 33.0987 17.2269 33.1011 17.248 33.1079C17.2691 33.1146 17.2886 33.1256 17.3052 33.1401L21.1794 36.088C21.2049 36.1084 21.2237 36.1359 21.2336 36.167C21.2434 36.198 21.2437 36.2313 21.2346 36.2626L20.0957 40.122L19.6447 42.6012C19.6411 42.6377 19.6249 42.6718 19.5989 42.6978C19.5728 42.7237 19.5386 42.7398 19.5019 42.7434Z" fill="#263238"/>
<path d="M25.9713 51.595C25.9412 51.5954 25.9116 51.5874 25.8858 51.572C25.8601 51.5566 25.8391 51.5344 25.8253 51.5078L22.746 45.3663C22.7364 45.3455 22.7314 45.3229 22.7314 45.3001C22.7314 45.2772 22.7364 45.2546 22.746 45.2338L24.0731 41.8592C24.0796 41.838 24.0904 41.8183 24.1049 41.8013C24.1194 41.7844 24.1372 41.7707 24.1573 41.7609C24.1774 41.7512 24.1992 41.7457 24.2215 41.7448C24.2438 41.7438 24.2661 41.7475 24.2869 41.7555C24.3077 41.7636 24.3266 41.7758 24.3425 41.7914C24.3584 41.8071 24.3708 41.8258 24.3791 41.8465C24.3873 41.8671 24.3912 41.8892 24.3905 41.9115C24.3898 41.9337 24.3845 41.9555 24.3749 41.9756L23.077 45.2855L26.1238 51.3558C26.1338 51.3746 26.1398 51.3953 26.1416 51.4165C26.1434 51.4377 26.1409 51.459 26.1342 51.4792C26.1276 51.4994 26.1169 51.5181 26.1028 51.5341C26.0888 51.5501 26.0716 51.5631 26.0524 51.5724C26.0283 51.5879 26 51.5958 25.9713 51.595Z" fill="#263238"/>
<path d="M22.7448 41.4528C22.7234 41.4571 22.7013 41.4571 22.6799 41.4528L19.8732 40.2439C19.8536 40.2354 19.8359 40.2232 19.8211 40.2079C19.8062 40.1926 19.7946 40.1745 19.7867 40.1547C19.7709 40.1147 19.7717 40.07 19.7889 40.0306C19.8061 39.9912 19.8383 39.9602 19.8785 39.9444C19.9187 39.9286 19.9635 39.9294 20.003 39.9465L22.8097 41.1587C22.8424 41.1744 22.8688 41.2005 22.8848 41.2329C22.9008 41.2654 22.9054 41.3022 22.898 41.3375C22.8905 41.3729 22.8713 41.4047 22.8436 41.4279C22.8158 41.4512 22.7811 41.4645 22.7448 41.4657V41.4528Z" fill="#263238"/>
<path d="M56.1645 43.419C56.1431 43.4174 56.1223 43.4116 56.1033 43.4019C56.0842 43.3922 56.0673 43.3789 56.0534 43.3627C56.0395 43.3464 56.029 43.3276 56.0224 43.3074C56.0159 43.2871 56.0134 43.2657 56.0152 43.2445L56.132 41.4796C56.1361 41.4373 56.1561 41.3981 56.188 41.37C56.2199 41.3418 56.2614 41.3267 56.304 41.3277C56.3256 41.3289 56.3467 41.3344 56.3662 41.3439C56.3856 41.3534 56.403 41.3667 56.4172 41.3829C56.4314 41.3992 56.4422 41.4181 56.4489 41.4386C56.4557 41.4591 56.4583 41.4807 56.4565 41.5022L56.3364 43.2671C56.3352 43.2883 56.3298 43.3091 56.3204 43.3282C56.3111 43.3474 56.2981 43.3645 56.2821 43.3786C56.2661 43.3927 56.2475 43.4036 56.2273 43.4105C56.2071 43.4174 56.1858 43.4203 56.1645 43.419Z" fill="#263238"/>
<path d="M56.3933 40.0111C56.3676 40.0114 56.3422 40.0057 56.3191 39.9944C56.296 39.9832 56.2759 39.9668 56.2603 39.9465L55.1343 38.3756L52.863 36.5719C52.8352 36.5499 52.8157 36.5191 52.8079 36.4846L52.1232 33.5335C52.1185 33.5127 52.1179 33.4912 52.1215 33.4701C52.1251 33.4491 52.1329 33.429 52.1443 33.4109C52.1558 33.3929 52.1707 33.3773 52.1883 33.3651C52.2058 33.3528 52.2256 33.3442 52.2465 33.3396C52.2882 33.3307 52.3317 33.3382 52.368 33.3605C52.4042 33.3827 52.4305 33.4181 52.4412 33.4592L53.1096 36.3683L55.3452 38.1493C55.3566 38.1585 55.3665 38.1694 55.3744 38.1816L56.5133 39.7687C56.538 39.8037 56.548 39.8468 56.5414 39.889C56.5347 39.9312 56.5119 39.9692 56.4777 39.9949C56.4514 40.0075 56.4223 40.0131 56.3933 40.0111Z" fill="#263238"/>
<path d="M57.5693 61.4366C58.1709 57.6161 59.4919 53.9432 61.463 50.6115C63.7667 46.6681 67.1055 43.1772 69.0199 39.0527C70.9343 34.9282 71.7098 30.264 71.7131 25.7387C71.7131 24.8983 71.6839 24.0676 71.6254 23.2466" fill="#EBEBEB"/>
<path d="M57.5676 61.7604H57.5222C57.437 61.7484 57.3601 61.7032 57.3083 61.6347C57.2566 61.5662 57.2343 61.4801 57.2464 61.3952C57.849 57.5322 59.1848 53.8189 61.1822 50.4537C62.1953 48.7828 63.2934 47.1645 64.4723 45.6052C66.0233 43.4751 67.6294 41.2739 68.7262 38.9143C70.4686 35.168 71.3901 30.6104 71.3901 25.7361C71.3901 24.9118 71.3609 24.0811 71.3025 23.2666C71.2995 23.2241 71.3049 23.1815 71.3185 23.1412C71.332 23.1008 71.3534 23.0635 71.3814 23.0314C71.4095 22.9993 71.4436 22.973 71.4818 22.954C71.52 22.935 71.5616 22.9237 71.6042 22.9207C71.6468 22.9177 71.6896 22.9232 71.7301 22.9367C71.7706 22.9502 71.8081 22.9715 71.8403 22.9994C71.8726 23.0273 71.899 23.0613 71.918 23.0993C71.9371 23.1374 71.9484 23.1789 71.9514 23.2213C72.0131 24.052 72.0423 24.8957 72.0423 25.7361C72.0423 30.7042 71.0981 35.3555 69.32 39.1858C68.194 41.6036 66.5717 43.8307 65.0012 45.9737C63.84 47.5144 62.7571 49.1121 61.7565 50.7608C59.7945 54.0606 58.4819 57.7027 57.8888 61.4922C57.8758 61.5675 57.8363 61.6358 57.7775 61.6849C57.7187 61.734 57.6443 61.7608 57.5676 61.7604Z" fill="#263238"/>
<path d="M57.2295 71.2515C57.4891 69.742 57.3431 68.0418 57.2847 66.1768C57.2847 65.8535 57.2684 65.5012 57.2847 65.165" fill="#EBEBEB"/>
<path d="M57.2334 71.5718H57.1782C57.1359 71.5648 57.0955 71.5495 57.0592 71.5268C57.0229 71.5041 56.9915 71.4745 56.9667 71.4396C56.942 71.4047 56.9244 71.3653 56.9151 71.3237C56.9057 71.282 56.9047 71.2389 56.9122 71.1969C57.1198 70.0074 57.0614 68.6627 57.003 67.2405C57.003 66.8946 56.9738 66.5455 56.9641 66.1867C56.9543 65.828 56.9479 65.5015 56.9641 65.1621C56.9641 65.0764 56.9983 64.9942 57.0591 64.9335C57.12 64.8729 57.2025 64.8389 57.2885 64.8389C57.3746 64.8389 57.4571 64.8729 57.518 64.9335C57.5788 64.9942 57.613 65.0764 57.613 65.1621C57.613 65.4853 57.613 65.8312 57.613 66.1641C57.613 66.4971 57.639 66.8688 57.652 67.2114C57.7606 68.5752 57.7269 69.9466 57.5514 71.3035C57.5384 71.3783 57.4995 71.4462 57.4413 71.4952C57.3832 71.5443 57.3096 71.5714 57.2334 71.5718Z" fill="#263238"/>
<path d="M27.3062 32.7907L25.707 33.0894L33.8665 76.7734L35.4657 76.4747L27.3062 32.7907Z" fill="white"/>
<path d="M55.4874 32.7922L47.3584 76.4819L48.9578 76.7795L57.0867 33.0898L55.4874 32.7922Z" fill="white"/>
<path d="M41.4001 47.3953C38.9165 47.3953 36.6389 45.0743 35.0392 42.1081C34.7656 42.4862 34.4138 42.8011 34.0077 43.0313C33.6016 43.2614 33.1507 43.4015 32.6857 43.4421C28.6349 43.4421 26.9973 35.0259 26.9268 34.668L27.469 34.5704C27.469 34.6518 29.0959 42.8998 32.6912 42.8998C33.407 42.8998 34.1282 42.4009 34.7843 41.5983C33.5387 39.1842 32.8389 36.5258 32.7345 33.8112C32.7345 31.4849 33.5968 30.1509 35.1097 30.1509C36.8721 30.1509 37.8807 31.5716 37.8807 34.0444C37.7935 36.7559 36.942 39.3876 35.4242 41.6363C36.9372 44.5429 39.0954 46.8584 41.3893 46.8584C43.1245 46.8584 44.8598 45.5027 46.2697 43.0625C46.3945 42.8401 46.5192 42.6124 46.6385 42.3792C45.0117 40.6331 44.1061 37.7699 44.1061 35.0422C44.1061 32.0434 45.2232 30.1617 47.0181 30.1617C47.3634 30.1612 47.702 30.2568 47.996 30.4378C48.29 30.6188 48.5279 30.8781 48.6829 31.1866C49.8976 33.2852 49.2252 38.3284 47.2892 42.2762C48.044 43.0373 49.0697 43.4683 50.1416 43.4746C53.2326 43.4746 55.5644 35.1778 55.5969 35.0964L56.1392 35.2429C56.0361 35.6008 53.661 44.0169 50.1741 44.0169C49.0197 44.0061 47.9126 43.5563 47.0777 42.7588L46.7686 43.3011C45.6841 45.1611 43.8837 47.3953 41.4001 47.3953ZM47.0452 30.6932C45.2937 30.6932 44.6754 33.0195 44.6754 35.0314C44.6754 37.2005 45.4021 40.0962 46.9151 41.8586C48.6775 38.1223 49.339 33.3612 48.2436 31.4632C48.1387 31.2335 47.9699 31.0388 47.7574 30.9023C47.545 30.7658 47.2978 30.6932 47.0452 30.6932ZM35.1151 30.6932C33.5208 30.6932 33.2822 32.6453 33.2822 33.8112C33.3878 36.3463 34.0291 38.8302 35.1639 41.0994C36.5162 38.9913 37.2662 36.5535 37.333 34.0498C37.333 32.7918 37.0402 30.6932 35.1043 30.6932H35.1151Z" fill="white"/>
<path d="M57.7843 73.1533H25.0244C24.4721 73.1533 24.0244 73.601 24.0244 74.1533V93.4456H58.7843V74.1533C58.7843 73.601 58.3366 73.1533 57.7843 73.1533Z" fill="#455A64"/>
<path d="M54.8181 93.4248C52.7738 97.0526 48.8531 100.295 41.3805 100.295C33.908 100.295 29.9927 97.0418 27.9375 93.4248H54.8181Z" fill="#455A64"/>
<path d="M54.8181 93.4248C54.2106 94.509 53.451 95.5006 52.5623 96.3694L28.637 94.5311C28.3855 94.1817 28.152 93.8197 27.9375 93.4465L54.8181 93.4248Z" fill="#37474F"/>
<path d="M59.7974 77.9637L23.0039 81.3637V79.6935L59.7974 76.2935V77.9637Z" fill="#37474F"/>
<path d="M59.7974 83.013L23.0039 86.4131V84.7483L59.7974 81.3428V83.013Z" fill="#37474F"/>
<path d="M59.7974 88.0599L23.0039 91.4599V89.7951L59.7974 86.3896V88.0599Z" fill="#37474F"/>
<path d="M67.0614 120.79L62.662 120.487C62.662 120.487 54.7748 123.52 53.8631 123.826C52.9514 124.131 61.7528 125.495 61.7528 125.495L66.4553 123.977L71.4608 124.129L67.0614 120.79Z" fill="#EBEBEB"/>
<path d="M61.7523 125.616H61.7324C53.7136 124.373 53.6838 124.008 53.6738 123.889C53.6738 123.852 53.6738 123.755 53.8254 123.708C54.7221 123.407 62.5398 120.401 62.6168 120.372C62.6348 120.368 62.6534 120.368 62.6714 120.372L67.0684 120.675C67.0926 120.676 67.1159 120.685 67.1354 120.699L71.5349 124.036C71.5555 124.052 71.5707 124.074 71.5782 124.1C71.5858 124.125 71.5854 124.152 71.5771 124.177C71.5685 124.202 71.552 124.224 71.53 124.239C71.508 124.253 71.4818 124.261 71.4554 124.259L66.4722 124.108L61.7896 125.618L61.7523 125.616ZM54.0514 123.892C54.896 124.224 59.0818 124.95 61.7523 125.365L66.425 123.857H66.4672L71.0852 123.998L67.0261 120.918L62.6913 120.617C62.1249 120.824 55.368 123.422 54.0415 123.892H54.0514Z" fill="#263238"/>
<path d="M58.7568 119.812L62.0458 119.315L63.9114 119.897L67.4216 118.265C67.4216 118.265 66.9819 119.812 66.7633 120.488C66.4999 121.122 66.1754 121.73 65.7944 122.301L63.2532 123.002L60.7293 123.099L58.7568 119.812Z" fill="#EBEBEB"/>
<path opacity="0.5" d="M58.7568 119.812L62.0458 119.315L63.9114 119.897L67.4216 118.265C67.4216 118.265 66.9819 119.812 66.7633 120.488C66.4999 121.122 66.1754 121.73 65.7944 122.301L63.2532 123.002L60.7293 123.099L58.7568 119.812Z" fill="white"/>
<path d="M60.7289 123.223C60.7076 123.223 60.6866 123.217 60.668 123.207C60.6494 123.196 60.6336 123.182 60.6221 123.164L58.6497 119.875C58.6399 119.857 58.6348 119.837 58.6348 119.816C58.6348 119.796 58.6399 119.776 58.6497 119.758C58.6591 119.74 58.6725 119.724 58.6889 119.712C58.7052 119.7 58.7241 119.692 58.7441 119.688L62.0356 119.206C62.0536 119.203 62.0722 119.203 62.0902 119.206L63.9086 119.773L67.3864 118.151C67.4075 118.14 67.4315 118.136 67.455 118.139C67.4785 118.142 67.5005 118.152 67.5181 118.168C67.5362 118.184 67.5496 118.204 67.5566 118.227C67.5637 118.25 67.5641 118.274 67.5578 118.297C67.5578 118.312 67.1157 119.852 66.8971 120.533C66.6295 121.179 66.2966 121.796 65.9034 122.374C65.888 122.399 65.863 122.418 65.8338 122.426L63.2926 123.126H63.2652L60.7413 123.223H60.7289ZM58.9577 119.907L60.7985 122.972L63.2329 122.878L65.7171 122.195C66.0834 121.647 66.3946 121.065 66.6462 120.456C66.8076 119.959 67.0933 118.965 67.2275 118.498L63.9658 120.026C63.937 120.037 63.9051 120.037 63.8763 120.026L62.0381 119.455L58.9577 119.907Z" fill="#263238"/>
<path d="M64.689 121.259L61.8049 121.381L58.2823 113.506L58.4562 116.238C52.6334 118.598 44.1252 119.59 36.859 116.273C36.6255 116.166 36.397 116.055 36.1709 115.94C37.716 119.58 40.7393 122.744 44.9623 124.672C51.98 127.874 60.2523 126.717 65.7994 122.315L64.689 121.259Z" fill="#EBEBEB"/>
<path d="M53.4102 126.589C50.4776 126.598 47.5772 125.978 44.9045 124.771C40.8106 122.903 37.6682 119.78 36.051 115.977C36.0405 115.954 36.0374 115.928 36.0423 115.903C36.0472 115.878 36.0598 115.855 36.0783 115.838C36.097 115.82 36.1206 115.809 36.146 115.806C36.1713 115.802 36.1971 115.806 36.2199 115.818C36.446 115.932 36.672 116.042 36.9056 116.148C44.2934 119.519 52.8041 118.362 58.3214 116.148L58.155 113.518C58.1528 113.489 58.1609 113.46 58.1776 113.437C58.1944 113.413 58.2189 113.396 58.2469 113.389C58.2755 113.382 58.3054 113.386 58.3315 113.399C58.3577 113.412 58.3787 113.434 58.391 113.461L61.8688 121.256L64.6684 121.139C64.7014 121.14 64.733 121.152 64.7578 121.174L65.8683 122.215C65.8809 122.227 65.891 122.243 65.8978 122.259C65.9046 122.276 65.9081 122.294 65.908 122.312C65.9066 122.329 65.9017 122.347 65.8936 122.362C65.8855 122.378 65.8744 122.392 65.8608 122.404C62.3979 125.156 57.9215 126.589 53.4102 126.589ZM36.4162 116.191C38.0458 119.798 41.0839 122.756 45.0064 124.545C51.7136 127.603 59.9634 126.696 65.6025 122.292L64.6361 121.385L61.8042 121.504C61.7793 121.504 61.7549 121.497 61.7338 121.484C61.7127 121.471 61.6958 121.452 61.685 121.43L58.4556 114.186L58.5847 116.218C58.5865 116.244 58.58 116.27 58.5662 116.291C58.5523 116.313 58.5318 116.33 58.5077 116.34C52.9358 118.6 44.3083 119.795 36.8136 116.375C36.672 116.315 36.5429 116.253 36.4162 116.191Z" fill="#263238"/>
<path d="M58.4504 116.227L58.0256 117.218L55.5017 118.447L55.4371 119.935L56.1501 122.914L55.3725 123.56L52.8486 124.854" fill="#EBEBEB"/>
<path d="M52.8489 124.978C52.8214 124.977 52.7949 124.968 52.7734 124.951C52.7519 124.934 52.7367 124.91 52.7301 124.883C52.7236 124.856 52.7261 124.828 52.7373 124.803C52.7484 124.778 52.7676 124.757 52.7918 124.744L55.3033 123.455L56.0113 122.866L55.3157 119.965C55.3145 119.953 55.3145 119.941 55.3157 119.93L55.3803 118.439C55.3816 118.417 55.3888 118.396 55.401 118.377C55.4132 118.358 55.43 118.343 55.4498 118.333L57.934 117.123L58.3389 116.174C58.3525 116.144 58.3772 116.12 58.4078 116.108C58.4384 116.096 58.4725 116.097 58.5029 116.109C58.5181 116.116 58.532 116.125 58.5436 116.136C58.5551 116.148 58.5642 116.162 58.5703 116.177C58.5763 116.193 58.5792 116.209 58.5787 116.226C58.5782 116.242 58.5744 116.258 58.5674 116.273L58.1427 117.267C58.131 117.294 58.1098 117.316 58.083 117.329L55.6262 118.526L55.5641 119.922L56.2721 122.884C56.2779 122.906 56.2773 122.929 56.2703 122.951C56.2632 122.973 56.2501 122.993 56.2323 123.008L55.4548 123.656L55.4324 123.671L52.9085 124.965C52.8901 124.975 52.8695 124.979 52.8489 124.978Z" fill="#263238"/>
<path d="M56.1531 122.913L55.5693 124.336L56.799 124.853" fill="#EBEBEB"/>
<path d="M56.7984 124.977C56.7828 124.979 56.7669 124.979 56.7512 124.977L55.5091 124.457C55.4794 124.444 55.4558 124.42 55.4433 124.39C55.4308 124.36 55.4304 124.326 55.4421 124.296L56.0234 122.873C56.0296 122.857 56.0387 122.844 56.0502 122.832C56.0617 122.82 56.0755 122.811 56.0906 122.805C56.1057 122.798 56.1219 122.795 56.1383 122.795C56.1547 122.795 56.1709 122.798 56.1861 122.804C56.2012 122.81 56.215 122.82 56.2267 122.831C56.2383 122.843 56.2476 122.856 56.2539 122.871C56.2603 122.887 56.2636 122.903 56.2637 122.919C56.2637 122.935 56.2606 122.952 56.2544 122.967L55.7178 124.276L56.8357 124.746C56.8507 124.752 56.8643 124.761 56.8757 124.773C56.8871 124.785 56.8961 124.799 56.9021 124.814C56.9081 124.829 56.911 124.846 56.9107 124.862C56.9104 124.878 56.9068 124.895 56.9003 124.91C56.8907 124.929 56.8762 124.945 56.8583 124.957C56.8405 124.968 56.8198 124.975 56.7984 124.977Z" fill="#263238"/>
<path d="M35.3762 120.79L30.9768 120.487C30.9768 120.487 23.0971 123.52 22.1854 123.826C21.2737 124.131 30.0726 125.495 30.0726 125.495L34.7751 123.977L39.7831 124.129L35.3762 120.79Z" fill="#EBEBEB"/>
<path d="M30.0721 125.615H30.0547C22.0358 124.373 22.006 124.008 21.9961 123.889C21.9961 123.852 21.9961 123.755 22.1451 123.708C23.0419 123.407 30.8595 120.401 30.939 120.371C30.9562 120.368 30.974 120.368 30.9912 120.371L35.3906 120.674C35.4149 120.676 35.4381 120.685 35.4577 120.699L39.8472 124.026C39.8679 124.042 39.883 124.064 39.8906 124.09C39.8981 124.115 39.8977 124.142 39.8894 124.167C39.8805 124.192 39.8639 124.213 39.842 124.228C39.8201 124.243 39.7941 124.25 39.7677 124.249L34.7845 124.098L30.1019 125.608C30.0924 125.612 30.0823 125.614 30.0721 125.615ZM22.3712 123.891C23.2183 124.224 27.4016 124.95 30.0721 125.365L34.7472 123.857C34.7612 123.854 34.7755 123.854 34.7895 123.857L39.4075 123.998L35.3459 120.918L31.0111 120.617C30.4472 120.823 23.7002 123.422 22.3613 123.891H22.3712Z" fill="#263238"/>
<path d="M47.3678 123.064C47.3678 123.064 45.85 123.519 42.8293 123.825C39.8086 124.13 34.7881 123.976 34.7881 123.976C34.7881 123.976 36.4574 125.645 40.5538 125.949C44.6502 126.252 47.3678 123.064 47.3678 123.064Z" fill="#EBEBEB"/>
<path d="M41.0909 126.089C40.9096 126.089 40.7258 126.089 40.5394 126.069C36.4456 125.766 34.7663 124.132 34.6967 124.062C34.6792 124.044 34.6675 124.021 34.6631 123.996C34.6587 123.972 34.6617 123.946 34.6719 123.923C34.6835 123.902 34.7003 123.884 34.7207 123.871C34.7411 123.858 34.7645 123.85 34.7886 123.849C34.8383 123.849 39.8215 123.998 42.8124 123.7C45.8034 123.401 47.3237 122.954 47.3386 122.954C47.3642 122.946 47.3917 122.947 47.417 122.956C47.4423 122.965 47.464 122.982 47.4788 123.004C47.4937 123.027 47.5008 123.053 47.4993 123.08C47.4977 123.107 47.4875 123.132 47.4702 123.153C47.4354 123.175 44.8917 126.089 41.0909 126.089ZM35.1414 124.102C35.7599 124.559 37.4616 125.592 40.5593 125.816C43.7887 126.064 46.1661 124.077 46.9784 123.29C45.6112 123.598 44.2254 123.817 42.8298 123.945C40.2935 124.199 36.3412 124.134 35.129 124.107L35.1414 124.102Z" fill="#263238"/>
<path d="M13.127 125.202C13.127 125.202 14.6423 124.748 17.6779 124.445C20.7135 124.142 25.7166 124.293 25.7166 124.293C25.7166 124.293 24.0473 122.624 19.9534 122.321C15.8595 122.018 13.127 125.202 13.127 125.202Z" fill="#EBEBEB"/>
<path d="M13.1311 125.329C13.1071 125.329 13.0834 125.323 13.063 125.311C13.0425 125.298 13.0263 125.28 13.0162 125.258C13.0061 125.236 13.0026 125.212 13.0063 125.188C13.01 125.165 13.0205 125.143 13.0367 125.125C13.064 125.093 15.8562 121.895 19.965 122.198C24.0738 122.502 25.7382 124.139 25.8077 124.208C25.8257 124.225 25.838 124.248 25.8429 124.272C25.8478 124.297 25.845 124.322 25.835 124.345C25.826 124.368 25.8094 124.389 25.7879 124.402C25.7664 124.415 25.7411 124.422 25.7158 124.419C25.6661 124.419 20.6854 124.27 17.6945 124.571C14.7036 124.871 13.1808 125.316 13.1659 125.316C13.1553 125.323 13.1434 125.327 13.1311 125.329ZM19.411 122.427C16.4599 122.427 14.2912 124.235 13.5261 124.976C14.8914 124.667 16.2756 124.449 17.6696 124.322C20.2035 124.074 24.1558 124.134 25.3705 124.161C24.7544 123.704 23.0503 122.67 19.9551 122.447C19.7663 122.434 19.5874 122.427 19.411 122.427Z" fill="#263238"/>
<path d="M11.6353 123.545L7.0918 124.522C7.0918 124.522 9.24307 124.522 9.96099 125.302C10.6789 126.082 16.5688 125.669 16.5688 125.669L11.6353 123.545Z" fill="#EBEBEB"/>
<path d="M13.4221 125.908C11.8645 125.908 10.2498 125.801 9.86724 125.387C9.19651 124.641 7.10983 124.641 7.08995 124.641C7.05921 124.641 7.02966 124.629 7.00681 124.609C6.98396 124.588 6.96936 124.56 6.96575 124.53C6.96202 124.499 6.96993 124.468 6.98789 124.444C7.00585 124.419 7.03255 124.401 7.06263 124.395L11.6086 123.419C11.6329 123.412 11.6589 123.412 11.6831 123.419L16.6167 125.563C16.6419 125.574 16.6626 125.593 16.6757 125.618C16.6887 125.642 16.6933 125.67 16.6887 125.697C16.6839 125.725 16.67 125.75 16.6494 125.769C16.6287 125.788 16.6023 125.799 16.5744 125.801C16.2813 125.811 14.8778 125.908 13.4221 125.908ZM7.98425 124.455C8.68478 124.54 9.60888 124.738 10.0511 125.218C10.4932 125.697 13.7102 125.715 16.0428 125.58L11.621 123.675L7.98425 124.455Z" fill="#263238"/>
<path d="M27.6963 121.954L30.6425 120.473L32.7093 118.499L34.4259 120.394L36.9199 122.744L36.9348 124.031L31.8001 123.484L27.6963 121.954Z" fill="#EBEBEB"/>
<path opacity="0.5" d="M27.6963 121.954L30.6425 120.473L32.7093 118.499L34.4259 120.394L36.9199 122.744L36.9348 124.031L31.8001 123.484L27.6963 121.954Z" fill="white"/>
<path d="M36.9396 124.155H36.9247L31.7875 123.611H31.7577L27.6538 122.081C27.6316 122.072 27.6124 122.057 27.5983 122.038C27.5842 122.019 27.5759 121.996 27.5744 121.972C27.5732 121.948 27.579 121.924 27.5908 121.903C27.6027 121.882 27.6202 121.864 27.6414 121.853L30.5727 120.382L32.6246 118.42C32.6502 118.398 32.6828 118.385 32.7165 118.385C32.7498 118.387 32.7809 118.402 32.8035 118.427L34.52 120.32L37.0042 122.662C37.0287 122.686 37.0429 122.718 37.0439 122.752L37.0613 124.039C37.0612 124.056 37.0573 124.074 37.0501 124.09C37.0428 124.107 37.0323 124.121 37.0191 124.133C36.9958 124.149 36.9679 124.157 36.9396 124.155ZM31.8297 123.363L36.8129 123.892L36.798 122.799L34.3437 120.484L32.7041 118.678L30.7317 120.566L30.7019 120.586L28.0091 121.937L31.8297 123.363Z" fill="#263238"/>
<path d="M36.9388 124.031L31.4165 122.67L26.8854 120.104L23.897 120.809L19.8105 121.621L24.5453 125.047L28.833 125.976L34.0571 125.273L36.9388 124.031Z" fill="#EBEBEB"/>
<path d="M28.8315 126.101H28.8067L24.5166 125.174C24.5006 125.17 24.4855 125.164 24.4718 125.154L19.7271 121.721C19.7074 121.707 19.6922 121.688 19.6834 121.665C19.6746 121.643 19.6725 121.618 19.6774 121.595C19.6835 121.571 19.696 121.55 19.7136 121.533C19.7311 121.516 19.753 121.505 19.7768 121.5L23.8607 120.688L26.8417 119.985C26.8705 119.974 26.9024 119.974 26.9312 119.985L31.4473 122.541L36.9522 123.897C36.9779 123.903 37.0011 123.917 37.0181 123.938C37.0351 123.958 37.0451 123.983 37.0466 124.009C37.0487 124.035 37.0427 124.061 37.0293 124.083C37.016 124.106 36.9959 124.123 36.9721 124.133L34.0905 125.375C34.0799 125.378 34.0688 125.378 34.0582 125.375L28.8415 126.079L28.8315 126.101ZM24.5961 124.931L28.8365 125.85L34.0234 125.152L36.5498 124.074L31.3852 122.799L31.3554 122.787L26.8641 120.246L23.9228 120.941L20.1122 121.687L24.5961 124.931Z" fill="#263238"/>
</svg>
