<svg width="18" height="22" viewBox="0 0 18 22" fill="none" xmlns="http://www.w3.org/2000/svg">
<path d="M5.75065 12.0807H7.91732V9.10156H10.084V12.0807H12.2507V6.9349L9.00065 4.76823L5.75065 6.9349V12.0807ZM9.00065 21.8307C6.09371 19.3571 3.92253 17.0595 2.48711 14.938C1.05169 12.8165 0.333984 10.853 0.333984 9.04739C0.333984 6.33906 1.20516 4.18142 2.94753 2.57448C4.68989 0.967535 6.7076 0.164062 9.00065 0.164062C11.2937 0.164062 13.3114 0.967535 15.0538 2.57448C16.7961 4.18142 17.6673 6.33906 17.6673 9.04739C17.6673 10.853 16.9496 12.8165 15.5142 14.938C14.0788 17.0595 11.9076 19.3571 9.00065 21.8307Z" fill="#1C1C1C"/>
</svg>
