<svg width="24" height="24" viewBox="0 0 24 24" fill="none" xmlns="http://www.w3.org/2000/svg">
<mask id="mask0_367_7394" style="mask-type:alpha" maskUnits="userSpaceOnUse" x="0" y="0" width="24" height="24">
<rect width="24" height="24" fill="#D9D9D9"/>
</mask>
<g mask="url(#mask0_367_7394)">
<path d="M3 5V3H15V5H3ZM7.5 17.5H10.5V15H13V12H10.5V9.5H7.5V12H5V15H7.5V17.5ZM4 21C3.45 21 2.97917 20.8042 2.5875 20.4125C2.19583 20.0208 2 19.55 2 19V8C2 7.45 2.19583 6.97917 2.5875 6.5875C2.97917 6.19583 3.45 6 4 6H14C14.55 6 15.0208 6.19583 15.4125 6.5875C15.8042 6.97917 16 7.45 16 8V19C16 19.55 15.8042 20.0208 15.4125 20.4125C15.0208 20.8042 14.55 21 14 21H4ZM19 13.75C18.4167 13.4667 17.9375 12.9958 17.5625 12.3375C17.1875 11.6792 17 10.9 17 10C17 8.86667 17.2875 7.91667 17.8625 7.15C18.4375 6.38333 19.15 6 20 6C20.85 6 21.5625 6.38333 22.1375 7.15C22.7125 7.91667 23 8.86667 23 10C23 10.9 22.8125 11.6792 22.4375 12.3375C22.0625 12.9958 21.5833 13.4667 21 13.75V20C21 20.2833 20.9042 20.5208 20.7125 20.7125C20.5208 20.9042 20.2833 21 20 21C19.7167 21 19.4792 20.9042 19.2875 20.7125C19.0958 20.5208 19 20.2833 19 20V13.75Z" fill="#1C1C1C"/>
</g>
</svg>
