<svg width="245" height="46" viewBox="0 0 245 46" fill="none" xmlns="http://www.w3.org/2000/svg">
<g clip-path="url(#clip0_367_7719)">
<mask id="mask0_367_7719" style="mask-type:luminance" maskUnits="userSpaceOnUse" x="188" y="11" width="21" height="26">
<path d="M206.543 11.8789H208.459V18.941H206.543V11.8789ZM188.059 36.4815V11.8789H189.975V23.2674H208.459V36.4815H206.543V24.9529H189.975V36.4815H188.059Z" fill="white"/>
</mask>
<g mask="url(#mask0_367_7719)">
<path d="M208.461 11.8789H188.059V36.4815H208.461V11.8789Z" fill="#1C1C1C"/>
</g>
<mask id="mask1_367_7719" style="mask-type:luminance" maskUnits="userSpaceOnUse" x="106" y="11" width="3" height="26">
<path d="M108.871 11.8809H106.954V36.4817H108.871V11.8809Z" fill="white"/>
</mask>
<g mask="url(#mask1_367_7719)">
<path d="M108.871 11.8809H106.954V36.4817H108.871V11.8809Z" fill="#1C1C1C"/>
</g>
<mask id="mask2_367_7719" style="mask-type:luminance" maskUnits="userSpaceOnUse" x="70" y="11" width="25" height="26">
<path d="M81.8819 36.5693H83.5835L94.9664 11.792H92.9337L82.7681 34.4307L72.6408 11.792H70.4971L81.8819 36.5693Z" fill="white"/>
</mask>
<g mask="url(#mask2_367_7719)">
<path d="M94.9645 11.792H70.4971V36.5693H94.9645V11.792Z" fill="#1C1C1C"/>
</g>
<mask id="mask3_367_7719" style="mask-type:luminance" maskUnits="userSpaceOnUse" x="220" y="11" width="26" height="26">
<path d="M229.885 23.9227L220.9 11.8789H223.304L230.961 22.3282L229.885 23.9227ZM231.992 36.4815V26.7457L231.922 26.6492L234.142 23.5386L242.709 11.8789H245.002L233.91 26.7111V36.4815H231.992Z" fill="white"/>
</mask>
<g mask="url(#mask3_367_7719)">
<path d="M245 11.8789H220.9V36.4815H245V11.8789Z" fill="#1C1C1C"/>
</g>
<mask id="mask4_367_7719" style="mask-type:luminance" maskUnits="userSpaceOnUse" x="121" y="11" width="22" height="26">
<path d="M121.99 36.4815H142.429V34.8343H124.725L142.429 12.8964V11.8789H122.618V13.5279H139.693L121.99 35.4641V36.4815Z" fill="white"/>
</mask>
<g mask="url(#mask4_367_7719)">
<path d="M142.429 11.8789H121.99V36.4815H142.429V11.8789Z" fill="#1C1C1C"/>
</g>
<mask id="mask5_367_7719" style="mask-type:luminance" maskUnits="userSpaceOnUse" x="155" y="11" width="21" height="26">
<path d="M155.393 36.4815H175.833V34.8343H158.13L175.833 12.8964V11.8789H156.022V13.5279H173.098L155.393 35.4641V36.4815Z" fill="white"/>
</mask>
<g mask="url(#mask5_367_7719)">
<path d="M175.833 11.8789H155.393V36.4815H175.833V11.8789Z" fill="#1C1C1C"/>
</g>
<mask id="mask6_367_7719" style="mask-type:luminance" maskUnits="userSpaceOnUse" x="0" y="0" width="56" height="46">
<path d="M24.5708 40.4595C24.5708 43.5192 27.1797 46 30.3972 46C33.6148 46 36.2236 43.5192 36.2236 40.4595C36.2236 37.3999 33.6148 34.9191 30.3972 34.9191C27.1797 34.9191 24.5708 37.3999 24.5708 40.4595ZM8.93676 24.4406C8.93676 28.2938 12.2232 31.419 16.2753 31.419C21.9486 31.419 22.2605 25.4927 30.2824 25.4927C36.5069 25.4927 38.0267 29.6171 41.3476 29.6171C44.3546 29.6171 46.7912 27.2982 46.7912 24.4406C46.7912 21.583 44.3546 19.2642 41.3476 19.2642C37.9214 19.2642 36.4476 23.2976 30.2824 23.2976C22.3735 23.2976 21.9409 17.4605 16.2753 17.4605C12.2232 17.4605 8.93676 20.5856 8.93676 24.4406ZM44.0751 6.98018C44.0751 10.0398 46.684 12.5206 49.9015 12.5206C53.1191 12.5206 55.7279 10.0398 55.7279 6.98018C55.7279 3.92055 53.1191 1.43972 49.9015 1.43972C46.684 1.43972 44.0751 3.91873 44.0751 6.98018ZM16.5088 5.83714C10.3436 5.83714 8.86977 1.80374 5.44359 1.80374C2.4366 1.80374 0 4.12076 0 6.98018C0 9.83959 2.4366 12.1566 5.44359 12.1566C8.76449 12.1566 10.2843 8.03221 16.5088 8.03221C24.5287 8.03221 24.8407 13.9604 30.5159 13.9604C34.568 13.9604 37.8544 10.8352 37.8544 6.98018C37.8544 3.12515 34.568 0 30.5159 0C24.8503 0 24.4177 5.83714 16.5088 5.83714Z" fill="white"/>
</mask>
<g mask="url(#mask6_367_7719)">
<path d="M55.7279 0H0V46H55.7279V0Z" fill="#1C1C1C"/>
</g>
</g>
<defs>
<clipPath id="clip0_367_7719">
<rect width="245" height="46" fill="white"/>
</clipPath>
</defs>
</svg>
