<svg width="23" height="18" viewBox="0 0 23 18" fill="none" xmlns="http://www.w3.org/2000/svg">
<path d="M2.30047 17.75C1.72516 17.75 1.24479 17.5573 0.859375 17.1719C0.473958 16.7865 0.28125 16.3061 0.28125 15.7308V2.26922C0.28125 1.69391 0.473958 1.21354 0.859375 0.828125C1.24479 0.442708 1.72516 0.25 2.30047 0.25H20.762C21.3373 0.25 21.8177 0.442708 22.2031 0.828125C22.5885 1.21354 22.7812 1.69391 22.7812 2.26922V15.7308C22.7812 16.3061 22.5885 16.7865 22.2031 17.1719C21.8177 17.5573 21.3373 17.75 20.762 17.75H2.30047ZM11.5312 9.14425L1.53125 2.60578V15.7308C1.53125 15.9551 1.60336 16.1394 1.74759 16.2837C1.89182 16.4279 2.07611 16.5 2.30047 16.5H20.762C20.9864 16.5 21.1707 16.4279 21.3149 16.2837C21.4591 16.1394 21.5312 15.9551 21.5312 15.7308V2.60578L11.5312 9.14425ZM11.5312 7.75L21.1466 1.5H1.91588L11.5312 7.75ZM1.53125 2.60578V1.5V15.7308C1.53125 15.9551 1.60336 16.1394 1.74759 16.2837C1.89182 16.4279 2.07611 16.5 2.30047 16.5H1.53125V2.60578Z" fill="#ADADAD"/>
</svg>
