<svg width="35" height="35" viewBox="0 0 35 35" fill="none" xmlns="http://www.w3.org/2000/svg">
<g clip-path="url(#clip0_958_40217)">
<path d="M13.1402 0.506175C12.0822 0.480875 11.0299 0.667408 10.0451 1.0548C9.06022 1.44219 8.1628 2.02262 7.40559 2.76194C6.64838 3.50126 6.04666 4.38455 5.63583 5.35984C5.22501 6.33513 5.01337 7.38273 5.01337 8.44102C5.01337 9.4993 5.22501 10.5469 5.63583 11.5222C6.04666 12.4975 6.64838 13.3808 7.40559 14.1201C8.1628 14.8594 9.06022 15.4398 10.0451 15.8272C11.0299 16.2146 12.0822 16.4012 13.1402 16.3759C14.1982 16.4012 15.2506 16.2146 16.2354 15.8272C17.2202 15.4398 18.1177 14.8594 18.8749 14.1201C19.6321 13.3808 20.2338 12.4975 20.6446 11.5222C21.0554 10.5469 21.2671 9.4993 21.2671 8.44102C21.2671 7.38273 21.0554 6.33513 20.6446 5.35984C20.2338 4.38455 19.6321 3.50126 18.8749 2.76194C18.1177 2.02262 17.2202 1.44219 16.2354 1.0548C15.2506 0.667408 14.1982 0.480875 13.1402 0.506175ZM8.60344 20.9081C6.49779 20.9081 4.47837 21.7446 2.98945 23.2335C1.50053 24.7224 0.664063 26.7418 0.664062 28.8475L0.664063 34.5117H25.6164V28.8475C25.6164 26.7418 24.7799 24.7224 23.291 23.2335C21.8021 21.7446 19.7827 20.9081 17.677 20.9081H8.60344ZM29.019 23.1901H27.8848V34.5321H34.69V28.8611C34.69 27.3571 34.0925 25.9146 33.029 24.8511C31.9655 23.7876 30.523 23.1901 29.019 23.1901Z" fill="#1C1C1C"/>
<path d="M26.7496 9.58008C25.2456 9.58008 23.8031 10.1776 22.7396 11.2411C21.6761 12.3046 21.0786 13.747 21.0786 15.2511C21.0786 16.7551 21.6761 18.1975 22.7396 19.2611C23.8031 20.3246 25.2456 20.922 26.7496 20.922C28.2536 20.922 29.6961 20.3246 30.7596 19.2611C31.8231 18.1975 32.4206 16.7551 32.4206 15.2511C32.4206 13.747 31.8231 12.3046 30.7596 11.2411C29.6961 10.1776 28.2536 9.58008 26.7496 9.58008Z" fill="#1C1C1C"/>
</g>
<defs>
<clipPath id="clip0_958_40217">
<rect width="34.0259" height="34.0259" fill="white" transform="translate(0.664062 0.505859)"/>
</clipPath>
</defs>
</svg>
