<svg width="24" height="24" viewBox="0 0 24 24" fill="none" xmlns="http://www.w3.org/2000/svg">
<mask id="mask0_367_7779" style="mask-type:alpha" maskUnits="userSpaceOnUse" x="0" y="0" width="24" height="24">
<rect width="24" height="24" fill="#D9D9D9"/>
</mask>
<g mask="url(#mask0_367_7779)">
<path d="M8.75 22.4258C7.98333 22.4258 7.29583 22.2258 6.6875 21.8258C6.07917 21.4258 5.60833 20.8758 5.275 20.1758C5.00833 20.5258 4.67083 20.7966 4.2625 20.9883C3.85417 21.1799 3.43333 21.2758 3 21.2758C2.15 21.2758 1.4375 20.9841 0.8625 20.4008C0.2875 19.8174 0 19.1091 0 18.2758C0 17.5591 0.233333 16.9133 0.7 16.3383C1.16667 15.7633 1.75833 15.4341 2.475 15.3508C2.24167 15.0174 2.0625 14.6633 1.9375 14.2883C1.8125 13.9133 1.75 13.5174 1.75 13.1008C1.75 12.4341 1.92083 11.8091 2.2625 11.2258C2.60417 10.6424 3.08333 10.1674 3.7 9.80078C3.78333 10.1008 3.89583 10.4216 4.0375 10.7633C4.17917 11.1049 4.34167 11.4008 4.525 11.6508C4.29167 11.8341 4.10833 12.0549 3.975 12.3133C3.84167 12.5716 3.775 12.8424 3.775 13.1258C3.775 14.0591 4.15833 14.6341 4.925 14.8508C5.69167 15.0674 6.41667 15.2424 7.1 15.3758L7.575 16.1758C7.39167 16.7091 7.23333 17.1633 7.1 17.5383C6.96667 17.9133 6.9 18.2508 6.9 18.5508C6.9 19.0508 7.07917 19.4883 7.4375 19.8633C7.79583 20.2383 8.23333 20.4258 8.75 20.4258C9.38333 20.4258 9.90833 20.1424 10.325 19.5758C10.7417 19.0091 11.0833 18.3424 11.35 17.5758C11.6167 16.8091 11.8208 16.0341 11.9625 15.2508C12.1042 14.4674 12.2167 13.8674 12.3 13.4508L14.25 13.9758C14.1 14.7258 13.9167 15.5841 13.7 16.5508C13.4833 17.5174 13.1792 18.4383 12.7875 19.3133C12.3958 20.1883 11.8792 20.9258 11.2375 21.5258C10.5958 22.1258 9.76667 22.4258 8.75 22.4258ZM10.1 15.3258C9.33333 14.6424 8.6375 14.0049 8.0125 13.4133C7.3875 12.8216 6.85 12.2466 6.4 11.6883C5.95 11.1299 5.60417 10.5716 5.3625 10.0133C5.12083 9.45495 5 8.87578 5 8.27578C5 7.19245 5.37083 6.27995 6.1125 5.53828C6.85417 4.79661 7.76667 4.42578 8.85 4.42578C8.91667 4.42578 8.975 4.42995 9.025 4.43828C9.075 4.44661 9.13333 4.45078 9.2 4.45078C9.13333 4.28411 9.08333 4.11745 9.05 3.95078C9.01667 3.78411 9 3.60911 9 3.42578C9 2.59245 9.29167 1.88411 9.875 1.30078C10.4583 0.717448 11.1667 0.425781 12 0.425781C12.8333 0.425781 13.5417 0.717448 14.125 1.30078C14.7083 1.88411 15 2.59245 15 3.42578C15 3.60911 14.9833 3.77995 14.95 3.93828C14.9167 4.09661 14.8667 4.25911 14.8 4.42578H15.15C16.15 4.42578 17 4.74661 17.7 5.38828C18.4 6.02995 18.8167 6.82578 18.95 7.77578C18.65 7.72578 18.3125 7.70078 17.9375 7.70078C17.5625 7.70078 17.2167 7.71745 16.9 7.75078C16.7833 7.36745 16.5708 7.05078 16.2625 6.80078C15.9542 6.55078 15.5833 6.42578 15.15 6.42578C14.5667 6.42578 14.1125 6.59661 13.7875 6.93828C13.4625 7.27995 13.0167 7.77578 12.45 8.42578H11.525C10.9417 7.74245 10.4875 7.23828 10.1625 6.91328C9.8375 6.58828 9.4 6.42578 8.85 6.42578C8.31667 6.42578 7.875 6.60078 7.525 6.95078C7.175 7.30078 7 7.74245 7 8.27578C7 8.65911 7.10833 9.05495 7.325 9.46328C7.54167 9.87162 7.84583 10.3049 8.2375 10.7633C8.62917 11.2216 9.10417 11.7091 9.6625 12.2258C10.2208 12.7424 10.8417 13.3008 11.525 13.9008L10.1 15.3258ZM15.225 22.4258C14.8583 22.4258 14.4958 22.3758 14.1375 22.2758C13.7792 22.1758 13.4333 22.0174 13.1 21.8008C13.2833 21.5674 13.4667 21.2924 13.65 20.9758C13.8333 20.6591 14 20.3674 14.15 20.1008C14.3333 20.2174 14.5167 20.3008 14.7 20.3508C14.8833 20.4008 15.0667 20.4258 15.25 20.4258C15.7833 20.4258 16.2292 20.2383 16.5875 19.8633C16.9458 19.4883 17.125 19.0424 17.125 18.5258C17.125 18.2091 17.0583 17.8674 16.925 17.5008C16.7917 17.1341 16.6333 16.6841 16.45 16.1508L16.925 15.3508C17.625 15.2174 18.3542 15.0424 19.1125 14.8258C19.8708 14.6091 20.25 14.0341 20.25 13.1008C20.25 12.4341 20.0042 11.9508 19.5125 11.6508C19.0208 11.3508 18.4833 11.2008 17.9 11.2008C17.2 11.2008 16.3833 11.3341 15.45 11.6008C14.5167 11.8674 13.425 12.2091 12.175 12.6258L11.65 10.6758C12.95 10.2591 14.1083 9.90911 15.125 9.62578C16.1417 9.34245 17.075 9.20078 17.925 9.20078C19.075 9.20078 20.0833 9.54245 20.95 10.2258C21.8167 10.9091 22.25 11.8674 22.25 13.1008C22.25 13.5174 22.1875 13.9133 22.0625 14.2883C21.9375 14.6633 21.7583 15.0174 21.525 15.3508C22.2417 15.4341 22.8333 15.7633 23.3 16.3383C23.7667 16.9133 24 17.5591 24 18.2758C24 19.1091 23.7125 19.8174 23.1375 20.4008C22.5625 20.9841 21.85 21.2758 21 21.2758C20.5667 21.2758 20.1458 21.1799 19.7375 20.9883C19.3292 20.7966 18.9917 20.5258 18.725 20.1758C18.3917 20.8758 17.9208 21.4258 17.3125 21.8258C16.7042 22.2258 16.0083 22.4258 15.225 22.4258Z" fill="#1C1C1C"/>
</g>
</svg>
