<svg width="22" height="22" viewBox="0 0 22 22" fill="none" xmlns="http://www.w3.org/2000/svg">
<path fill-rule="evenodd" clip-rule="evenodd" d="M10.0835 3.66634C6.53967 3.66634 3.66683 6.53918 3.66683 10.083C3.66683 13.6268 6.53967 16.4997 10.0835 16.4997C13.6273 16.4997 16.5002 13.6268 16.5002 10.083C16.5002 6.53918 13.6273 3.66634 10.0835 3.66634ZM1.8335 10.083C1.8335 5.52666 5.52715 1.83301 10.0835 1.83301C14.6398 1.83301 18.3335 5.52666 18.3335 10.083C18.3335 14.6394 14.6398 18.333 10.0835 18.333C5.52715 18.333 1.8335 14.6394 1.8335 10.083Z" fill="#353535"/>
<path fill-rule="evenodd" clip-rule="evenodd" d="M14.6142 14.6142C14.9722 14.2562 15.5526 14.2562 15.9106 14.6142L19.8981 18.6017C20.256 18.9597 20.256 19.5401 19.8981 19.8981C19.5401 20.256 18.9597 20.256 18.6017 19.8981L14.6142 15.9106C14.2562 15.5526 14.2562 14.9722 14.6142 14.6142Z" fill="#353535"/>
</svg>
