<svg width="46" height="47" viewBox="0 0 46 47" fill="none" xmlns="http://www.w3.org/2000/svg">
<mask id="mask0_958_40235" style="mask-type:alpha" maskUnits="userSpaceOnUse" x="-1" y="0" width="47" height="47">
<rect x="-0.00585938" y="0.861328" width="45.3679" height="45.3679" fill="#D9D9D9"/>
</mask>
<g mask="url(#mask0_958_40235)">
<path d="M32.129 32.9975C32.9166 32.9975 33.5861 32.7218 34.1374 32.1705C34.6888 31.6191 34.9644 30.9496 34.9644 30.162C34.9644 29.3744 34.6888 28.7049 34.1374 28.1535C33.5861 27.6022 32.9166 27.3265 32.129 27.3265C31.3413 27.3265 30.6718 27.6022 30.1205 28.1535C29.5691 28.7049 29.2935 29.3744 29.2935 30.162C29.2935 30.9496 29.5691 31.6191 30.1205 32.1705C30.6718 32.7218 31.3413 32.9975 32.129 32.9975ZM32.129 38.6685C33.1056 38.6685 34.0035 38.4401 34.8227 37.9832C35.6418 37.5264 36.3034 36.9199 36.8075 36.1638C36.1144 35.7542 35.374 35.4392 34.5864 35.2186C33.7987 34.9981 32.9796 34.8878 32.129 34.8878C31.2783 34.8878 30.4592 34.9981 29.6715 35.2186C28.8839 35.4392 28.1435 35.7542 27.4504 36.1638C27.9545 36.9199 28.6161 37.5264 29.4352 37.9832C30.2544 38.4401 31.1523 38.6685 32.129 38.6685ZM32.129 42.4491C29.514 42.4491 27.285 41.5276 25.4419 39.6845C23.5988 37.8415 22.6773 35.6124 22.6773 32.9975C22.6773 30.3825 23.5988 28.1535 25.4419 26.3105C27.285 24.4674 29.514 23.5459 32.129 23.5459C34.7439 23.5459 36.9729 24.4674 38.816 26.3105C40.6591 28.1535 41.5806 30.3825 41.5806 32.9975C41.5806 35.6124 40.6591 37.8415 38.816 39.6845C36.9729 41.5276 34.7439 42.4491 32.129 42.4491ZM22.6773 42.4491C18.2981 41.3464 14.6828 38.8339 11.8316 34.9115C8.98031 30.989 7.55469 26.6334 7.55469 21.8446V10.3136L22.6773 4.64258L37.7999 10.3136V21.0412C36.9808 20.6316 36.0593 20.3165 35.0353 20.096C34.0114 19.8755 33.0426 19.7652 32.129 19.7652C28.4743 19.7652 25.3553 21.0569 22.7718 23.6404C20.1884 26.2238 18.8967 29.3429 18.8967 32.9975C18.8967 34.9508 19.2668 36.7151 20.0072 38.2904C20.7476 39.8657 21.6849 41.2362 22.8191 42.4019C22.7876 42.4019 22.764 42.4098 22.7482 42.4255C22.7324 42.4413 22.7088 42.4491 22.6773 42.4491Z" fill="#1C1C1C"/>
</g>
</svg>
