<svg width="47" height="47" viewBox="0 0 47 47" fill="none" xmlns="http://www.w3.org/2000/svg">
<mask id="mask0_958_40208" style="mask-type:alpha" maskUnits="userSpaceOnUse" x="0" y="0" width="47" height="47">
<rect x="0.888672" y="0.833984" width="45.3679" height="45.3679" fill="#D9D9D9"/>
</mask>
<g mask="url(#mask0_958_40208)">
<path d="M0.888672 34.8597V31.8825C0.888672 30.5277 1.58179 29.425 2.96803 28.5744C4.35427 27.7237 6.18159 27.2984 8.44998 27.2984C8.85956 27.2984 9.25337 27.3063 9.63144 27.322C10.0095 27.3378 10.3718 27.3772 10.7184 27.4402C10.2773 28.1018 9.94649 28.7949 9.72596 29.5195C9.50542 30.2442 9.39515 31.0003 9.39515 31.7879V34.8597H0.888672ZM12.2306 34.8597V31.7879C12.2306 30.7798 12.5063 29.8582 13.0577 29.0233C13.609 28.1884 14.3888 27.4559 15.3969 26.8258C16.4051 26.1957 17.6102 25.7231 19.0122 25.4081C20.4142 25.093 21.9343 24.9355 23.5726 24.9355C25.2424 24.9355 26.7783 25.093 28.1803 25.4081C29.5823 25.7231 30.7874 26.1957 31.7955 26.8258C32.8037 27.4559 33.5756 28.1884 34.1112 29.0233C34.6468 29.8582 34.9146 30.7798 34.9146 31.7879V34.8597H12.2306ZM37.7501 34.8597V31.7879C37.7501 30.9688 37.6477 30.1969 37.4429 29.4723C37.2381 28.7477 36.9309 28.0703 36.5214 27.4402C36.8679 27.3772 37.2224 27.3378 37.5847 27.322C37.947 27.3063 38.3172 27.2984 38.6952 27.2984C40.9636 27.2984 42.7909 27.7159 44.1772 28.5507C45.5634 29.3856 46.2565 30.4962 46.2565 31.8825V34.8597H37.7501ZM8.44998 25.4081C7.4103 25.4081 6.52027 25.0379 5.7799 24.2975C5.03952 23.5571 4.66933 22.6671 4.66933 21.6274C4.66933 20.5562 5.03952 19.6583 5.7799 18.9337C6.52027 18.2091 7.4103 17.8468 8.44998 17.8468C9.52117 17.8468 10.4191 18.2091 11.1437 18.9337C11.8683 19.6583 12.2306 20.5562 12.2306 21.6274C12.2306 22.6671 11.8683 23.5571 11.1437 24.2975C10.4191 25.0379 9.52117 25.4081 8.44998 25.4081ZM38.6952 25.4081C37.6556 25.4081 36.7655 25.0379 36.0251 24.2975C35.2848 23.5571 34.9146 22.6671 34.9146 21.6274C34.9146 20.5562 35.2848 19.6583 36.0251 18.9337C36.7655 18.2091 37.6556 17.8468 38.6952 17.8468C39.7664 17.8468 40.6643 18.2091 41.389 18.9337C42.1136 19.6583 42.4759 20.5562 42.4759 21.6274C42.4759 22.6671 42.1136 23.5571 41.389 24.2975C40.6643 25.0379 39.7664 25.4081 38.6952 25.4081ZM23.5726 23.5177C21.9973 23.5177 20.6584 22.9664 19.5557 21.8637C18.453 20.761 17.9016 19.422 17.9016 17.8468C17.9016 16.24 18.453 14.8931 19.5557 13.8062C20.6584 12.7193 21.9973 12.1758 23.5726 12.1758C25.1794 12.1758 26.5262 12.7193 27.6132 13.8062C28.7001 14.8931 29.2436 16.24 29.2436 17.8468C29.2436 19.422 28.7001 20.761 27.6132 21.8637C26.5262 22.9664 25.1794 23.5177 23.5726 23.5177Z" fill="#1C1C1C"/>
</g>
</svg>
