<svg width="75" height="66" viewBox="0 0 75 66" fill="none" xmlns="http://www.w3.org/2000/svg">
<path d="M39.0063 15.6747C38.8564 16.1771 39.1426 16.7051 39.6447 16.8548L39.7443 16.8845L39.7487 16.8796C40.2195 16.9647 40.6865 16.6827 40.8249 16.2157C42.0857 11.9792 46.0579 9.01956 50.4835 9.01956C51.0075 9.01956 51.4324 8.5946 51.4324 8.07067C51.4324 7.54671 51.0074 7.12178 50.4835 7.12178C45.0445 7.12178 40.4739 10.7431 39.0063 15.6747ZM39.0063 15.6747L39.161 15.7209M39.0063 15.6747C39.0063 15.6748 39.0063 15.6748 39.0062 15.6748L39.161 15.7209M39.161 15.7209C39.0367 16.1377 39.274 16.5758 39.6908 16.7001L39.161 15.7209Z" fill="#1C1C1C" stroke="#F9FFF9" stroke-width="0.322847"/>
<path d="M61.5077 46.6567H56.783C56.3482 46.6567 55.9956 46.304 55.9956 45.8692C55.9956 45.4344 56.3482 45.0818 56.783 45.0818H61.5077C68.0205 45.0818 73.3195 39.7827 73.3195 33.2699C73.3195 26.7572 68.0205 21.4581 61.5077 21.4581H61.3941C61.1657 21.4581 60.9486 21.3591 60.799 21.1864C60.6494 21.0137 60.5819 20.7848 60.6145 20.5587C60.6848 20.0682 60.7203 19.5755 60.7203 19.0957C60.7203 13.4514 56.1276 8.85874 50.4833 8.85874C48.2874 8.85874 46.1933 9.54496 44.4271 10.8437C44.039 11.1289 43.4878 11.0023 43.2634 10.5754C38.2613 1.05057 25.1966 -0.22851 18.4232 8.05724C15.5699 11.5479 14.4488 16.0887 15.3471 20.5143C15.4461 21.0031 15.0721 21.4587 14.5754 21.4587H14.2599C7.7471 21.4587 2.44804 26.7578 2.44804 33.2705C2.44804 39.7833 7.7471 45.0824 14.2599 45.0824H18.9845C19.4193 45.0824 19.772 45.435 19.772 45.8698C19.772 46.3046 19.4193 46.6573 18.9845 46.6573H14.2599C6.87854 46.6573 0.873047 40.6518 0.873047 33.2705C0.873047 26.0962 6.54606 20.2217 13.6417 19.8978C12.9752 15.3063 14.2497 10.6749 17.2038 7.06055C24.4557 -1.81125 38.3534 -0.816834 44.2283 9.07587C46.1025 7.90087 48.2471 7.28446 50.483 7.28446C57.3215 7.28446 62.7404 13.1049 62.2662 19.9051C69.2965 20.2994 74.8942 26.1429 74.8942 33.2699C74.8942 40.6518 68.8887 46.6567 61.5073 46.6567L61.5077 46.6567Z" fill="#1C1C1C"/>
<path d="M17.9304 45.4249C17.9304 56.3694 26.8341 65.273 37.7784 65.273C48.7229 65.273 57.6265 56.3692 57.6265 45.4249C57.6265 34.4805 48.7229 25.5769 37.7784 25.5769C26.834 25.5769 17.9304 34.4806 17.9304 45.4249ZM19.8285 45.4249C19.8285 35.5276 27.881 27.475 37.7784 27.475C47.6757 27.475 55.7284 35.5275 55.7284 45.4249C55.7284 55.3222 47.6757 63.3749 37.7784 63.3749C27.8811 63.3749 19.8285 55.3223 19.8285 45.4249Z" fill="#1C1C1C" stroke="#F9FFF9" stroke-width="0.322847"/>
<path d="M37.4001 53.349C37.4001 53.7565 37.7306 54.087 38.138 54.087C38.5454 54.087 38.876 53.757 38.876 53.349V38.3597C38.876 37.9522 38.5455 37.6218 38.138 37.6218C37.7306 37.6218 37.4001 37.9523 37.4001 38.3597V53.349Z" fill="#1C1C1C" stroke="#B2CFF1" stroke-width="0.322847"/>
<path d="M38.1379 39.4054L34.0477 43.4955C33.7598 43.784 33.2922 43.7838 33.004 43.4956C32.7157 43.2073 32.7157 42.7403 33.004 42.452L37.6159 37.8401L38.1379 39.4054ZM38.1379 39.4054L42.2281 43.4956C42.372 43.6395 42.5614 43.7117 42.7499 43.7117L38.1379 39.4054ZM42.7499 43.7117C42.938 43.7117 43.1276 43.6401 43.2717 43.4955L42.7499 43.7117Z" fill="#1C1C1C" stroke="#B2CFF1" stroke-width="0.322847"/>
</svg>
