<svg width="203" height="203" viewBox="0 0 203 203" fill="none" xmlns="http://www.w3.org/2000/svg">
<path d="M156.85 34.9403C156.85 34.9403 137.967 19.5123 113.408 26.3453C88.8494 33.1783 78.5614 54.3593 64.4813 68.9022C57.1043 76.5188 46.2113 79.3242 37.4417 85.1909C9.42771 103.94 13.5689 146.091 35.1762 161.99C56.0609 177.341 83.8475 175.185 107.4 168.1C150.46 155.141 202.318 115.604 179.927 64.9762C174.688 53.2986 166.784 43.0116 156.85 34.9403Z" fill="#FFCF47"/>
<path opacity="0.7" d="M156.85 34.9403C156.85 34.9403 137.967 19.5123 113.408 26.3453C88.8494 33.1783 78.5614 54.3593 64.4813 68.9022C57.1043 76.5188 46.2113 79.3242 37.4417 85.1909C9.42771 103.94 13.5689 146.091 35.1762 161.99C56.0609 177.341 83.8475 175.185 107.4 168.1C150.46 155.141 202.318 115.604 179.927 64.9762C174.688 53.2986 166.784 43.0116 156.85 34.9403Z" fill="white"/>
<path d="M101.5 182.351C148.87 182.351 187.272 179.292 187.272 175.518C187.272 171.744 148.87 168.685 101.5 168.685C54.1297 168.685 15.7285 171.744 15.7285 175.518C15.7285 179.292 54.1297 182.351 101.5 182.351Z" fill="#FFCF47"/>
<path opacity="0.5" d="M101.5 182.351C148.87 182.351 187.272 179.292 187.272 175.518C187.272 171.744 148.87 168.685 101.5 168.685C54.1297 168.685 15.7285 171.744 15.7285 175.518C15.7285 179.292 54.1297 182.351 101.5 182.351Z" fill="white"/>
<path d="M170.252 32.9915H81.5129C79.5868 32.9915 78.0254 34.5529 78.0254 36.479V82.7346C78.0254 84.6607 79.5868 86.2221 81.5129 86.2221H170.252C172.178 86.2221 173.74 84.6607 173.74 82.7346V36.479C173.74 34.5529 172.178 32.9915 170.252 32.9915Z" fill="#263238"/>
<path d="M173.086 34.9849H84.3469C82.4208 34.9849 80.8594 36.5463 80.8594 38.4724V84.728C80.8594 86.6541 82.4208 88.2155 84.3469 88.2155H173.086C175.012 88.2155 176.574 86.6541 176.574 84.728V38.4724C176.574 36.5463 175.012 34.9849 173.086 34.9849Z" fill="white" stroke="#263238" stroke-miterlimit="10"/>
<path d="M89.8115 72.739H167.678" stroke="#263238" stroke-miterlimit="10"/>
<path d="M92.3452 41.4607C92.3452 42.0637 92.1664 42.6532 91.8313 43.1546C91.4963 43.6561 91.0201 44.0469 90.463 44.2776C89.9058 44.5084 89.2928 44.5688 88.7013 44.4512C88.1098 44.3335 87.5665 44.0431 87.1401 43.6167C86.7137 43.1903 86.4233 42.647 86.3057 42.0555C86.188 41.4641 86.2484 40.851 86.4792 40.2939C86.7099 39.7367 87.1008 39.2605 87.6022 38.9255C88.1036 38.5904 88.6931 38.4116 89.2961 38.4116C89.6965 38.4116 90.093 38.4905 90.463 38.6437C90.8329 38.7969 91.169 39.0215 91.4521 39.3047C91.7353 39.5878 91.9599 39.9239 92.1131 40.2939C92.2663 40.6638 92.3452 41.0603 92.3452 41.4607Z" fill="#FFCF47" stroke="#263238" stroke-miterlimit="10"/>
<path d="M87.2783 39.1748L91.3383 43.7179" stroke="#263238" stroke-miterlimit="10"/>
<path d="M91.614 39.2156L87.4688 43.6775" stroke="#263238" stroke-miterlimit="10"/>
<path d="M161.393 83.7536H145.429C144.98 83.7541 144.535 83.666 144.119 83.4942C143.704 83.3224 143.326 83.0703 143.008 82.7524C142.69 82.4344 142.438 82.0569 142.266 81.6414C142.094 81.2259 142.006 80.7806 142.007 80.331C142.007 79.8816 142.095 79.4365 142.267 79.0213C142.439 78.606 142.691 78.2287 143.009 77.9109C143.327 77.5931 143.704 77.341 144.12 77.169C144.535 76.997 144.98 76.9084 145.429 76.9084H161.393C162.301 76.9095 163.171 77.2705 163.812 77.9121C164.454 78.5537 164.815 79.4236 164.816 80.331C164.816 81.2388 164.455 82.1093 163.813 82.7512C163.172 83.393 162.301 83.7536 161.393 83.7536Z" fill="#FFCF47" stroke="#263238" stroke-miterlimit="10"/>
<path d="M145.592 80.4489V79.0198H145.953V80.4367C145.953 80.9929 146.209 81.2487 146.66 81.2487C147.11 81.2487 147.374 80.997 147.374 80.4367V79.0198H147.719V80.4489C147.719 80.731 147.607 81.0016 147.408 81.2011C147.208 81.4005 146.938 81.5126 146.656 81.5126C146.373 81.5126 146.103 81.4005 145.903 81.2011C145.704 81.0016 145.592 80.731 145.592 80.4489Z" fill="#263238"/>
<path d="M150.845 79.8967C150.845 80.4448 150.439 80.7737 149.798 80.7737H149.177V81.537H148.815V79.0198H149.814C150.452 79.0198 150.845 79.3527 150.845 79.8967ZM150.488 79.8967C150.488 79.5395 150.245 79.3324 149.786 79.3324H149.177V80.4611H149.786C150.245 80.4611 150.488 80.2581 150.488 79.8967Z" fill="#263238"/>
<path d="M151.734 79.0197H152.794C152.968 79.0057 153.143 79.0279 153.307 79.0848C153.472 79.1417 153.623 79.2321 153.752 79.3504C153.88 79.4686 153.982 79.6121 154.052 79.7718C154.122 79.9315 154.158 80.1039 154.158 80.2783C154.158 80.4526 154.122 80.6251 154.052 80.7848C153.982 80.9445 153.88 81.088 153.752 81.2062C153.623 81.3244 153.472 81.4149 153.307 81.4718C153.143 81.5287 152.968 81.5509 152.794 81.5369H151.734V79.0197ZM152.77 81.2243C152.901 81.2365 153.034 81.2211 153.159 81.1791C153.285 81.1371 153.4 81.0694 153.497 80.9804C153.595 80.8914 153.673 80.7829 153.726 80.662C153.78 80.5411 153.807 80.4104 153.807 80.2783C153.807 80.1461 153.78 80.0154 153.726 79.8945C153.673 79.7736 153.595 79.6652 153.497 79.5762C153.4 79.4871 153.285 79.4195 153.159 79.3775C153.034 79.3355 152.901 79.3201 152.77 79.3323H152.092V81.2243H152.77Z" fill="#263238"/>
<path d="M156.627 80.9077H155.287L155.011 81.537H154.642L155.782 79.0198H156.136L157.281 81.537H156.903L156.627 80.9077ZM156.501 80.6194L155.957 79.4014L155.413 80.6194H156.501Z" fill="#263238"/>
<path d="M158.385 79.3324H157.528V79.0198H159.607V79.3324H158.746V81.537H158.389L158.385 79.3324Z" fill="#263238"/>
<path d="M162.181 81.2244V81.537H160.37V79.0198H162.144V79.3324H160.727V80.1038H161.994V80.4124H160.731V81.2244H162.181Z" fill="#263238"/>
<path d="M186.228 41.8667C188.823 31.1165 182.211 20.2983 171.461 17.7035C160.711 15.1087 149.893 21.72 147.298 32.4701C144.703 43.2203 151.314 54.0385 162.065 56.6333C172.815 59.2281 183.633 52.6169 186.228 41.8667Z" fill="#263238"/>
<path d="M187.417 39.7249C189.147 29.2292 182.041 19.3182 171.546 17.5882C161.05 15.8582 151.139 22.9642 149.409 33.4599C147.679 43.9556 154.785 53.8666 165.281 55.5966C175.776 57.3266 185.687 50.2206 187.417 39.7249Z" fill="white" stroke="#263238" stroke-miterlimit="10"/>
<path d="M182.985 49.1665C181.195 51.2464 178.981 52.9194 176.492 54.0731C174.003 55.2269 171.295 55.8347 168.551 55.8559C165.808 55.877 163.091 55.311 160.584 54.1957C158.077 53.0805 155.838 51.4419 154.017 49.3898C154.792 48.1231 156.006 46.9904 157.382 46.7589C157.937 46.6644 158.486 46.5397 159.027 46.3854C159.157 46.3529 159.282 46.3164 159.408 46.2758C159.766 46.1662 160.119 46.0444 160.464 45.9104C160.638 45.8414 160.809 45.7724 160.979 45.6952C161.15 45.6181 161.361 45.5288 161.552 45.4394C161.743 45.3501 161.925 45.2527 162.108 45.1552C162.291 45.0578 162.474 44.9563 162.652 44.8507C162.831 44.7452 163.009 44.6356 163.184 44.5219C163.359 44.4082 163.472 44.3311 163.614 44.2296C163.665 44.1985 163.714 44.1646 163.761 44.1281C163.907 44.0225 164.049 43.9129 164.191 43.8033C164.357 43.6733 164.516 43.5434 164.674 43.3973C164.832 43.2511 164.983 43.1212 165.137 42.9913C165.433 42.7071 165.722 42.4066 165.994 42.0899L167.065 41.9072L167.228 41.8788L171.328 41.1764L172.664 40.945L173.009 40.8882C173.46 41.891 174.41 42.5406 175.445 42.9669L175.579 43.0237C175.831 43.1252 176.087 43.2105 176.343 43.2876C177.699 43.6936 179.14 43.9332 180.317 44.7168C181.811 45.6993 182.603 47.3801 182.985 49.1665Z" fill="#FFCF47"/>
<path d="M166.079 41.753C165.392 42.5449 164.473 43.1002 163.453 43.34C162.432 43.5798 161.362 43.4919 160.395 43.0887C160.311 43.3718 160.287 43.6691 160.324 43.9618C160.361 44.2546 160.458 44.5366 160.61 44.7899C160.288 44.6182 160.017 44.3645 159.824 44.0543C159.632 43.7442 159.524 43.3887 159.514 43.0238C159.258 43.5818 159.099 44.1789 159.043 44.7899C157.122 45.1593 155.084 44.0388 154.13 42.3295C153.681 41.4525 153.438 40.4844 153.421 39.4993C153.403 38.5141 153.611 37.538 154.029 36.6455L152.949 38.0625C152.599 37.2058 152.888 36.2192 153.355 35.4275C153.821 34.6358 154.479 33.9619 154.954 33.1702C156.213 31.0508 156.046 28.42 156.444 25.9921C156.538 25.0765 156.876 24.2029 157.423 23.4627C158.011 22.7644 159.022 22.3462 159.859 22.6832C160.009 21.5423 161.446 21.0105 162.514 20.576C164.28 19.8655 166.168 19.1672 168.044 19.4961C171.052 20.0239 173.058 22.9836 175.936 23.9946C177.426 24.5183 179.054 24.4858 180.577 24.904C182.099 25.3222 183.642 26.4346 183.74 28.0099L182.116 27.1614C183.294 28.6819 183.982 30.525 184.089 32.4459C184.196 34.3668 183.715 36.2746 182.712 37.9163L182.408 36.4182C182.578 37.1449 181.978 37.8107 181.393 38.2776C179.789 39.5565 177.775 40.5025 175.737 40.267C175.136 40.198 174.548 40.0275 173.947 39.9301C172.198 39.6673 170.413 40.0204 168.896 40.9288C168.055 41.4665 167.077 41.7525 166.079 41.753Z" fill="#263238"/>
<path d="M166.793 38.3304C166.213 39.1424 165.275 41.5784 165.055 43.6084C164.836 45.6384 165.055 48.9676 165.563 48.9676C166.07 48.9676 166.939 44.6234 166.939 44.6234C166.939 44.6234 167.301 46.288 168.157 46.7955C169.014 47.303 170.545 50.7012 170.545 50.7012C170.545 50.7012 172.575 47.0107 172.859 45.7805C173.143 44.5503 173.224 43.9738 173.585 44.4042C174.229 45.4178 174.786 46.4839 175.25 47.5913C175.611 48.4601 175.9 44.7493 175.392 42.7193C174.885 40.6893 173.728 39.321 173.585 38.8135C173.443 38.306 172.644 37.7985 172.644 37.7985C169.834 34.855 167.374 37.5346 166.793 38.3304Z" fill="white" stroke="#263238" stroke-linecap="round" stroke-linejoin="round"/>
<path d="M166.213 39.5606C166.784 40.8661 167.221 42.2265 167.516 43.6206C167.877 45.5775 170.196 49.8486 170.557 50.7134C170.918 51.5782 172.007 47.9648 172.437 45.5044C172.867 43.0441 172.339 37.084 172.339 37.084C170.313 39.7555 166.213 39.5606 166.213 39.5606Z" fill="white" stroke="#263238" stroke-linecap="round" stroke-linejoin="round"/>
<path d="M161.97 26.118C161.609 26.9889 161.203 27.8399 160.752 28.6677C160.374 29.4026 159.855 30.174 159.94 31.0347C160.025 31.8954 162.417 36.7187 163.432 37.819C164.447 38.9192 167.942 41.6638 169.453 40.6366C172.794 38.363 172.493 31.6275 172.136 30.5272C171.779 29.4269 171.324 29.7152 171.324 29.7152C171.137 29.8329 170.654 29.4432 170.476 29.3701C169.444 28.9357 168.316 28.9073 167.272 28.481C166.155 28.0428 165.15 27.3587 164.333 26.4794C163.683 25.7486 163.115 24.9082 162.112 24.6321C162.421 24.7173 162.234 25.4278 161.97 26.118Z" fill="white" stroke="#263238" stroke-linecap="round" stroke-linejoin="round"/>
<path d="M162.644 31.729C162.751 31.548 162.895 31.3913 163.066 31.2686C163.237 31.146 163.432 31.06 163.638 31.0161C163.844 30.9723 164.056 30.9715 164.263 31.0138C164.469 31.0561 164.664 31.1407 164.836 31.2621" stroke="#263238" stroke-linecap="round" stroke-linejoin="round"/>
<path d="M168.896 29.5161C166.984 28.9192 166.691 30.4093 166.691 30.4093" stroke="#263238" stroke-linecap="round" stroke-linejoin="round"/>
<path d="M164.913 33.0523C164.991 33.3812 164.934 33.6775 164.783 33.7141C164.633 33.7506 164.446 33.5111 164.377 33.1782C164.308 32.8452 164.357 32.5529 164.507 32.5164C164.658 32.4798 164.836 32.7194 164.913 33.0523Z" fill="#263238"/>
<path d="M168.827 32.0741C168.905 32.407 168.848 32.7034 168.698 32.7399C168.547 32.7765 168.361 32.5329 168.292 32.204C168.222 31.8751 168.271 31.5747 168.421 31.5422C168.572 31.5097 168.746 31.7533 168.827 32.0741Z" fill="#263238"/>
<path d="M166.708 31.3433C166.708 33.3083 168.011 34.5628 167.926 35.2571C167.924 35.2729 167.919 35.2881 167.91 35.3014C167.901 35.3147 167.889 35.3258 167.876 35.3337C167.862 35.3416 167.846 35.3461 167.83 35.3469C167.814 35.3477 167.798 35.3448 167.784 35.3383C167.483 35.18 167.126 34.9323 166.83 34.778" stroke="#263238" stroke-linecap="round" stroke-linejoin="round"/>
<path d="M165.425 36.4587C165.711 36.8172 166.087 37.0926 166.516 37.2561C166.944 37.4196 167.409 37.4653 167.861 37.3885" stroke="#263238" stroke-linecap="round" stroke-linejoin="round"/>
<path d="M166.595 40.4862C166.595 40.4862 168.32 44.461 169.749 44.1159C171.178 43.7708 172.019 37.2463 172.019 37.2463C172.019 37.2463 170.322 40.4334 168.905 40.9288C167.727 41.3429 166.595 40.4862 166.595 40.4862Z" fill="#263238"/>
<path d="M165.141 42.9832C164.991 43.1253 164.836 43.2674 164.678 43.3892C164.52 43.511 164.361 43.6612 164.195 43.7952C164.057 43.9088 163.911 44.0144 163.765 44.12C163.718 44.1565 163.669 44.1904 163.618 44.2215C163.476 44.327 163.334 44.4204 163.188 44.5138C163.042 44.6072 162.839 44.7411 162.656 44.8426C162.473 44.9441 162.295 45.0538 162.112 45.1471C161.929 45.2405 161.743 45.342 161.556 45.4313C161.369 45.5207 161.178 45.61 160.983 45.6871C160.789 45.7643 160.642 45.8373 160.468 45.9023C160.123 46.0363 159.769 46.1581 159.412 46.2677C159.286 46.3083 159.156 46.3448 159.031 46.3773C158.49 46.5316 157.941 46.6563 157.386 46.7508C156.01 46.9823 154.796 48.115 154.021 49.3817" stroke="#263238" stroke-linecap="round" stroke-linejoin="round"/>
<path d="M182.984 49.1666C182.603 47.3802 181.811 45.6994 180.325 44.7006C179.148 43.9171 177.706 43.6816 176.35 43.2715C176.095 43.1944 175.839 43.1091 175.587 43.0076L175.453 42.9548" stroke="#263238" stroke-linecap="round" stroke-linejoin="round"/>
<path d="M171.446 53.0237C171.446 53.4743 171.194 53.8357 170.885 53.8357C170.577 53.8357 170.325 53.4743 170.325 53.0237C170.325 52.573 170.577 52.2117 170.885 52.2117C171.194 52.2117 171.446 52.573 171.446 53.0237Z" fill="#263238"/>
<path d="M159.416 49.2314C160.362 50.9036 161.064 52.7029 161.499 54.5744" stroke="#263238" stroke-linecap="round" stroke-linejoin="round"/>
<path d="M161.328 49.4224L161.864 52.3699" stroke="#263238" stroke-linecap="round" stroke-linejoin="round"/>
<path d="M187.417 39.7249C189.147 29.2292 182.041 19.3182 171.546 17.5882C161.05 15.8582 151.139 22.9642 149.409 33.4599C147.679 43.9556 154.785 53.8666 165.281 55.5966C175.776 57.3266 185.687 50.2206 187.417 39.7249Z" stroke="#263238" stroke-miterlimit="10"/>
<path d="M130.81 160.882V175.161C130.81 176.184 139.656 178.587 150.907 178.587C162.157 178.587 171.548 176.184 171.548 175.161V160.882H130.81Z" fill="white" stroke="#263238" stroke-miterlimit="10"/>
<path d="M130.81 169.736C130.81 170.759 139.656 173.167 150.907 173.167C162.157 173.167 171.548 170.759 171.548 169.736" fill="white"/>
<path d="M130.81 169.736C130.81 170.759 139.656 173.167 150.907 173.167C162.157 173.167 171.548 170.759 171.548 169.736" stroke="#263238" stroke-width="2" stroke-miterlimit="10"/>
<path d="M171.548 160.881C171.548 161.328 169.822 161.896 166.944 162.392C156.491 163.962 145.862 163.962 135.41 162.392C132.535 161.896 130.81 161.328 130.81 160.881C130.81 159.854 139.928 159.03 151.175 159.03C162.421 159.03 171.548 159.854 171.548 160.881Z" fill="#FFCF47" stroke="#263238" stroke-miterlimit="10"/>
<path d="M166.943 162.4C156.49 163.97 145.862 163.97 135.409 162.4C138.377 161.88 144.341 161.527 151.174 161.527C158.007 161.527 163.975 161.872 166.943 162.4Z" fill="#263238"/>
<path d="M158.462 97.8216C158.462 97.8216 158.462 95.7185 155.518 92.779C152.575 89.8396 150.687 88.1506 150.687 88.1506C150.687 88.1506 149.213 92.9861 151.946 95.9337C153.955 98.0074 156.134 99.9088 158.462 101.618V97.8216Z" fill="#FFCF47"/>
<path d="M154.19 110.952C154.19 110.952 154.19 108.849 151.247 105.909C148.303 102.97 146.411 101.281 146.411 101.281C146.411 101.281 144.942 106.116 147.674 109.06C149.676 111.134 151.849 113.035 154.17 114.744L154.19 110.952Z" fill="#FFCF47"/>
<path d="M158.275 101.406C158.275 101.406 158.502 99.3115 161.738 96.6968C164.974 94.0822 167.016 92.6084 167.016 92.6084C167.016 92.6084 167.97 97.5738 164.941 100.209C162.729 102.052 160.366 103.706 157.877 105.154L158.275 101.406Z" fill="#FFCF47"/>
<path d="M153.118 116.928C153.118 116.928 153.557 114.874 157.052 112.612C160.548 110.351 162.736 109.1 162.736 109.1C162.736 109.1 163.163 114.139 159.874 116.445C157.475 118.05 154.947 119.451 152.314 120.635L153.118 116.928Z" fill="#FFCF47"/>
<path d="M154.089 133.814C154.089 133.814 154.089 131.71 157.028 128.767C159.968 125.823 161.864 124.143 161.864 124.143C161.864 124.143 163.338 128.978 160.605 131.917C158.597 133.992 156.417 135.894 154.089 137.601V133.814Z" fill="#FFCF47"/>
<path d="M154.041 137.939C154.041 137.939 154.337 135.856 151.844 132.527C149.351 129.197 147.727 127.249 147.727 127.249C147.727 127.249 145.58 131.82 147.869 135.109C149.564 137.444 151.452 139.634 153.513 141.653L154.041 137.939Z" fill="#FFCF47"/>
<path d="M151.134 150.183C151.134 150.183 151.134 148.08 154.081 145.141C157.029 142.201 158.913 140.512 158.913 140.512C158.913 140.512 160.37 145.348 157.65 148.291C155.64 150.364 153.46 152.265 151.134 153.975V150.183Z" fill="#FFCF47"/>
<path d="M158.925 157.8C157.805 159.774 156.558 161.673 155.189 163.484C154.808 163.484 154.418 163.512 154.028 163.52H153.695L153.131 161.36L153.099 161.239C152.992 160.597 153.02 159.941 153.18 159.31C153.357 158.447 153.645 157.611 154.036 156.821C154.215 156.444 154.442 156.042 154.67 155.624C156.773 152.047 158.174 149.94 158.174 149.94C158.174 149.94 160.825 154.243 158.925 157.8Z" fill="#FFCF47"/>
<path d="M153.598 163.541C153.395 162.863 153.192 162.168 152.993 161.474C152.839 160.934 152.688 160.394 152.538 159.85C152.388 159.306 152.254 158.815 152.132 158.311C151.682 156.618 151.32 155.1 151.138 154.016C150.953 152.855 150.953 151.673 151.138 150.512C151.219 149.96 151.332 149.404 151.47 148.839C151.986 146.696 152.814 144.402 153.431 141.572C153.565 140.971 153.687 140.354 153.793 139.704V139.627C153.85 139.266 153.906 138.892 153.955 138.511C153.955 138.413 153.98 138.32 153.988 138.223C154.008 138.048 154.028 137.873 154.04 137.695V137.674C154.061 137.48 154.073 137.268 154.081 137.09C154.12 136.33 154.12 135.568 154.081 134.808C153.837 129.692 152.124 124.723 152.457 120.529C152.493 120.053 152.561 119.579 152.66 119.112C152.91 117.974 153.236 116.854 153.634 115.759C153.764 115.381 153.906 115.007 154.04 114.634C154.04 114.61 154.04 114.585 154.069 114.557C154.097 114.528 154.126 114.415 154.15 114.346C155.47 111.041 157.09 107.919 157.885 103.79C157.983 103.254 158.072 102.722 158.153 102.186V102.166C158.186 101.93 158.222 101.695 158.255 101.459C158.255 101.329 158.291 101.195 158.308 101.053C158.352 100.745 158.389 100.428 158.421 100.119C158.535 99.1653 158.62 98.2072 158.689 97.249" stroke="#263238" stroke-linecap="round" stroke-linejoin="round"/>
<path d="M158.246 102.799L161.421 100.367" stroke="#263238" stroke-linecap="round" stroke-linejoin="round"/>
<path d="M158.397 99.9977L157.069 97.6348" stroke="#263238" stroke-linecap="round" stroke-linejoin="round"/>
<path d="M152.863 118.881C152.863 118.881 155.519 116.887 158.247 114.898" stroke="#263238" stroke-linecap="round" stroke-linejoin="round"/>
<path d="M154.191 114.736C154.191 114.736 151.978 110.399 149.469 107.517" stroke="#263238" stroke-linecap="round" stroke-linejoin="round"/>
<path d="M154.194 136.822C155.711 134.033 157.626 131.479 159.878 129.242" stroke="#263238" stroke-linecap="round" stroke-linejoin="round"/>
<path d="M153.675 139.753C152.871 137.857 151.908 136.031 150.797 134.297C149.25 132.011 149.026 131.714 149.026 131.714" stroke="#263238" stroke-linecap="round" stroke-linejoin="round"/>
<path d="M151.134 154.032C151.808 152.362 152.607 150.746 153.525 149.197C154.445 147.76 155.482 146.402 156.627 145.137" stroke="#263238" stroke-linecap="round" stroke-linejoin="round"/>
<path d="M154.028 163.533C154.066 162.397 154.343 161.282 154.84 160.26C155.965 158.121 157.203 155.315 157.719 154.211" stroke="#263238" stroke-linecap="round" stroke-linejoin="round"/>
<path d="M139.193 125.909C139.193 125.909 138.962 124.589 140.488 122.425C142.015 120.261 143.018 118.999 143.018 118.999C143.018 118.999 144.467 121.869 143.07 124.017C142.035 125.533 140.874 126.959 139.599 128.28L139.193 125.909Z" fill="#FFCF47"/>
<path d="M143.293 133.675C143.293 133.675 143.066 132.356 144.592 130.196C146.119 128.036 147.122 126.765 147.122 126.765C147.122 126.765 148.567 129.64 147.175 131.779C146.146 133.296 144.991 134.723 143.724 136.047L143.293 133.675Z" fill="#FFCF47"/>
<path d="M139.692 128.134C139.692 128.134 139.319 126.842 137.013 125.555C134.707 124.268 133.249 123.57 133.249 123.57C133.249 123.57 133.192 126.786 135.397 128.101C136.986 129.02 138.649 129.802 140.37 130.44L139.692 128.134Z" fill="#FFCF47"/>
<path d="M144.613 137.293C144.613 137.293 144.114 136.055 141.678 135.015C139.242 133.976 137.724 133.432 137.724 133.432C137.724 133.432 138.004 136.635 140.314 137.723C141.99 138.469 143.726 139.073 145.503 139.53L144.613 137.293Z" fill="#FFCF47"/>
<path d="M145.839 148.003C145.839 148.003 145.612 146.68 143.448 145.161C141.284 143.643 139.916 142.786 139.916 142.786C139.916 142.786 139.51 145.977 141.54 147.528C143.027 148.602 144.6 149.552 146.241 150.37L145.839 148.003Z" fill="#FFCF47"/>
<path d="M146.319 150.581C146.319 150.581 145.912 149.306 147.106 146.952C148.3 144.597 149.136 143.208 149.136 143.208C149.136 143.208 150.979 145.847 149.887 148.161C149.072 149.81 148.122 151.388 147.045 152.879L146.319 150.581Z" fill="#FFCF47"/>
<path d="M150.013 161.214C150.013 161.214 150.167 159.887 152.258 158.218C154.349 156.55 155.652 155.648 155.652 155.648C155.652 155.648 156.233 158.811 154.292 160.471C152.87 161.636 151.353 162.679 149.757 163.59L150.013 161.214Z" fill="#FFCF47"/>
<path d="M149.465 157.934C149.465 157.934 149.237 156.618 147.073 155.092C144.909 153.565 143.541 152.717 143.541 152.717C143.541 152.717 143.135 155.908 145.165 157.455C146.652 158.531 148.226 159.482 149.871 160.297L149.465 157.934Z" fill="#FFCF47"/>
<path d="M149.03 163.549C148.478 163.549 147.926 163.524 147.386 163.504C146.679 163.484 145.989 163.451 145.311 163.419C143.882 161.417 145.027 158.547 145.027 158.547C145.027 158.547 146.131 159.708 147.84 161.742C148.314 162.29 148.714 162.897 149.03 163.549Z" fill="#FFCF47"/>
<path opacity="0.2" d="M158.462 97.8216C158.462 97.8216 158.462 95.7185 155.518 92.779C152.575 89.8396 150.687 88.1506 150.687 88.1506C150.687 88.1506 149.213 92.9861 151.946 95.9337C153.955 98.0074 156.134 99.9088 158.462 101.618V97.8216Z" fill="black"/>
<path opacity="0.2" d="M154.19 110.952C154.19 110.952 154.19 108.849 151.247 105.909C148.303 102.97 146.411 101.281 146.411 101.281C146.411 101.281 144.942 106.116 147.674 109.06C149.676 111.134 151.849 113.035 154.17 114.744L154.19 110.952Z" fill="black"/>
<path opacity="0.2" d="M158.275 101.406C158.275 101.406 158.502 99.3115 161.738 96.6968C164.974 94.0822 167.016 92.6084 167.016 92.6084C167.016 92.6084 167.97 97.5738 164.941 100.209C162.729 102.052 160.366 103.706 157.877 105.154L158.275 101.406Z" fill="black"/>
<path opacity="0.2" d="M153.118 116.928C153.118 116.928 153.557 114.874 157.052 112.612C160.548 110.351 162.736 109.1 162.736 109.1C162.736 109.1 163.163 114.139 159.874 116.445C157.475 118.05 154.947 119.451 152.314 120.635L153.118 116.928Z" fill="black"/>
<path opacity="0.2" d="M154.089 133.814C154.089 133.814 154.089 131.71 157.028 128.767C159.968 125.823 161.864 124.143 161.864 124.143C161.864 124.143 163.338 128.978 160.605 131.917C158.597 133.992 156.417 135.894 154.089 137.601V133.814Z" fill="black"/>
<path opacity="0.2" d="M151.134 150.183C151.134 150.183 151.134 148.08 154.081 145.141C157.029 142.201 158.913 140.512 158.913 140.512C158.913 140.512 160.37 145.348 157.65 148.291C155.64 150.364 153.46 152.265 151.134 153.975V150.183Z" fill="black"/>
<path opacity="0.2" d="M139.193 125.909C139.193 125.909 138.962 124.589 140.488 122.425C142.015 120.261 143.018 118.999 143.018 118.999C143.018 118.999 144.467 121.869 143.07 124.017C142.035 125.533 140.874 126.959 139.599 128.28L139.193 125.909Z" fill="black"/>
<path opacity="0.2" d="M151.844 132.526C149.347 129.193 147.727 127.248 147.727 127.248C147.727 127.248 147.633 127.443 147.508 127.78C147.408 127.426 147.279 127.081 147.122 126.749C147.122 126.749 146.119 128.016 144.592 130.18C143.066 132.344 143.293 133.659 143.293 133.659L143.699 136.03C144.842 134.842 145.894 133.569 146.846 132.222C146.928 133.256 147.28 134.251 147.865 135.109C149.559 137.444 151.447 139.634 153.508 141.653L154.036 137.922C154.036 137.922 154.336 135.856 151.844 132.526Z" fill="black"/>
<path opacity="0.2" d="M139.692 128.134C139.692 128.134 139.319 126.842 137.013 125.555C134.707 124.268 133.249 123.57 133.249 123.57C133.249 123.57 133.192 126.786 135.397 128.101C136.986 129.02 138.649 129.802 140.37 130.44L139.692 128.134Z" fill="black"/>
<path opacity="0.2" d="M144.613 137.293C144.613 137.293 144.114 136.055 141.678 135.015C139.242 133.976 137.724 133.432 137.724 133.432C137.724 133.432 138.004 136.635 140.314 137.723C141.99 138.469 143.726 139.073 145.503 139.53L144.613 137.293Z" fill="black"/>
<path opacity="0.2" d="M145.839 148.003C145.839 148.003 145.612 146.68 143.448 145.161C141.284 143.643 139.916 142.786 139.916 142.786C139.916 142.786 139.51 145.977 141.54 147.528C143.027 148.602 144.6 149.552 146.241 150.37L145.839 148.003Z" fill="black"/>
<path opacity="0.2" d="M146.319 150.581C146.319 150.581 145.912 149.306 147.106 146.952C148.3 144.597 149.136 143.208 149.136 143.208C149.136 143.208 150.979 145.847 149.887 148.161C149.072 149.81 148.122 151.388 147.045 152.879L146.319 150.581Z" fill="black"/>
<path opacity="0.2" d="M158.173 149.94C158.173 149.94 156.773 152.063 154.669 155.624C154.426 156.03 154.215 156.436 154.036 156.821C153.537 157.199 152.94 157.658 152.258 158.202C150.167 159.87 150.013 161.198 150.013 161.198L149.757 163.573C150.925 162.905 152.052 162.166 153.131 161.36L153.695 163.52H154.028C154.434 163.52 154.807 163.5 155.189 163.484C156.557 161.673 157.805 159.774 158.924 157.8C160.824 154.243 158.173 149.94 158.173 149.94Z" fill="black"/>
<path opacity="0.2" d="M149.465 157.934C149.465 157.934 149.237 156.618 147.073 155.092C144.909 153.565 143.541 152.717 143.541 152.717C143.541 152.717 143.135 155.908 145.165 157.455C146.652 158.531 148.226 159.482 149.871 160.297L149.465 157.934Z" fill="black"/>
<path opacity="0.2" d="M149.03 163.549C148.478 163.549 147.926 163.524 147.386 163.504C146.679 163.484 145.989 163.451 145.311 163.419C143.882 161.417 145.027 158.547 145.027 158.547C145.027 158.547 146.131 159.708 147.84 161.742C148.314 162.29 148.714 162.897 149.03 163.549Z" fill="black"/>
<path d="M149.693 163.557C149.81 162.286 149.887 161.121 149.883 160.358C149.871 159.62 149.744 158.888 149.506 158.19C149.396 157.841 149.254 157.487 149.1 157.13C148.539 155.851 147.776 154.511 147.09 152.818C146.92 152.412 146.757 151.982 146.611 151.523C146.546 151.336 146.481 151.142 146.42 150.947C146.422 150.918 146.422 150.89 146.42 150.861C146.375 150.719 146.339 150.577 146.298 150.435C146.262 150.309 146.233 150.179 146.205 150.029C146.112 149.623 146.043 149.193 145.986 148.771C145.555 145.498 146.103 142.136 145.421 139.506C145.345 139.212 145.251 138.924 145.141 138.641C144.862 137.957 144.538 137.292 144.171 136.651C144.045 136.424 143.915 136.205 143.765 135.99C143.759 135.974 143.752 135.96 143.745 135.945C143.716 135.896 143.692 135.856 143.663 135.815C142.482 133.882 141.126 132.104 140.18 129.603C140.058 129.278 139.944 128.95 139.835 128.613C139.826 128.596 139.819 128.578 139.815 128.56C139.774 128.434 139.733 128.312 139.697 128.182C139.672 128.117 139.648 128.048 139.628 127.979C139.563 127.776 139.502 127.573 139.441 127.37C139.266 126.786 139.108 126.197 138.962 125.6" stroke="#263238" stroke-linecap="round" stroke-linejoin="round"/>
<path d="M139.867 129.002L137.613 127.821" stroke="#263238" stroke-linecap="round" stroke-linejoin="round"/>
<path d="M139.469 127.265L140.045 125.641" stroke="#263238" stroke-linecap="round" stroke-linejoin="round"/>
<path d="M144.987 138.503C144.987 138.503 143.115 137.545 141.179 136.591" stroke="#263238" stroke-linecap="round" stroke-linejoin="round"/>
<path d="M143.724 136.046C144.275 134.299 145.003 132.612 145.896 131.012" stroke="#263238" stroke-linecap="round" stroke-linejoin="round"/>
<path d="M146.099 149.887C144.845 148.304 143.368 146.912 141.714 145.754" stroke="#263238" stroke-linecap="round" stroke-linejoin="round"/>
<path d="M146.744 151.682C147.044 150.402 147.452 149.15 147.962 147.938C148.689 146.339 148.774 146.127 148.774 146.127" stroke="#263238" stroke-linecap="round" stroke-linejoin="round"/>
<path d="M149.785 162.635C150.521 161.727 151.336 160.886 152.221 160.122C152.782 159.708 153.309 159.249 153.796 158.75" stroke="#263238" stroke-linecap="round" stroke-linejoin="round"/>
<path d="M149.883 160.37C149.279 159.395 148.6 158.467 147.853 157.597C147.121 156.797 146.324 156.059 145.47 155.392" stroke="#263238" stroke-linecap="round" stroke-linejoin="round"/>
<path d="M145.778 161.182C146.091 161.628 146.72 162.562 147.402 163.5" stroke="#263238" stroke-linecap="round" stroke-linejoin="round"/>
<path d="M111.711 172.185C108.024 169.598 103.773 165.412 102.373 159.318C101.25 162.217 99.7369 164.949 97.8743 167.438C95.2472 170.839 91.6076 173.317 87.4807 174.515C86.4698 174.823 85.9014 175.169 85.9014 175.534C85.9014 176.829 93.0388 177.881 101.845 177.881C110.651 177.881 117.793 176.829 117.793 175.534C117.793 175.217 117.354 174.909 116.575 174.633C114.849 174.043 113.213 173.219 111.711 172.185Z" fill="white" stroke="#263238" stroke-miterlimit="10"/>
<path d="M100.761 106.372L97.4561 162.169L101.955 168.685L106.392 163.058L103.838 106.526L100.761 106.372Z" fill="white" stroke="#263238" stroke-miterlimit="10"/>
<path d="M120.229 101.597H76.0273V104.512C76.0273 106.733 87.7445 108.536 102.198 108.536C116.652 108.536 128.369 106.733 128.369 104.512V101.597H120.229Z" fill="#263238"/>
<path d="M102.198 105.621C116.652 105.621 128.369 103.82 128.369 101.597C128.369 99.3753 116.652 97.574 102.198 97.574C87.7444 97.574 76.0273 99.3753 76.0273 101.597C76.0273 103.82 87.7444 105.621 102.198 105.621Z" fill="#FFCF47"/>
<path d="M102.198 105.621C116.652 105.621 128.369 103.82 128.369 101.597C128.369 99.3753 116.652 97.574 102.198 97.574C87.7444 97.574 76.0273 99.3753 76.0273 101.597C76.0273 103.82 87.7444 105.621 102.198 105.621Z" stroke="#263238" stroke-linecap="round" stroke-linejoin="round"/>
<path d="M120.05 93.5425H106.652C106.652 93.5425 106.652 97.1396 108.544 101.845C108.544 102.747 110.708 103.469 113.38 103.469C116.051 103.469 118.211 102.742 118.211 101.845C118.215 101.801 118.215 101.756 118.211 101.711C120.03 97.0706 120.05 93.5425 120.05 93.5425Z" fill="white" stroke="#263238" stroke-linecap="round" stroke-linejoin="round"/>
<path d="M113.396 95.4953C117.112 95.4953 120.124 94.621 120.124 93.5425C120.124 92.4639 117.112 91.5896 113.396 91.5896C109.681 91.5896 106.669 92.4639 106.669 93.5425C106.669 94.621 109.681 95.4953 113.396 95.4953Z" fill="white" stroke="#263238" stroke-linecap="round" stroke-linejoin="round"/>
<path d="M113.396 95.1746C116.73 95.1746 119.433 94.4439 119.433 93.5425C119.433 92.6411 116.73 91.9104 113.396 91.9104C110.061 91.9104 107.358 92.6411 107.358 93.5425C107.358 94.4439 110.061 95.1746 113.396 95.1746Z" fill="white" stroke="#263238" stroke-linecap="round" stroke-linejoin="round"/>
<path d="M107.927 94.2325C108.893 94.7888 110.976 95.1704 113.396 95.1704C115.815 95.1704 117.898 94.7888 118.86 94.2325C117.898 93.6804 115.811 93.2947 113.396 93.2947C110.98 93.2947 108.893 93.6804 107.927 94.2325Z" fill="#263238" stroke="#263238" stroke-linecap="round" stroke-linejoin="round"/>
<path d="M110.582 94.3869C110.582 94.3869 108.832 90.0183 109.344 88.8531C109.855 87.6879 111.528 87.834 112.113 88.9993C112.697 90.1645 112.986 94.533 112.986 94.533C112.986 94.533 111.244 95.1177 110.582 94.3869Z" fill="#FFCF47" stroke="#263238" stroke-miterlimit="10"/>
<path d="M112.113 94.8254C112.113 94.8254 110.728 87.1114 111.089 85.6498C111.451 84.1882 113.278 83.6807 114.585 84.7728C115.892 85.865 115.397 91.4028 115.397 92.2026C115.397 93.0024 115.324 94.6792 115.324 94.6792C114.286 95.0147 113.177 95.0652 112.113 94.8254Z" fill="#FFCF47" stroke="#263238" stroke-miterlimit="10"/>
<path d="M114.951 94.6791C114.951 94.6791 113.871 91.691 114.516 90.5258C115.162 89.3605 116.481 89.799 116.481 90.745C116.481 91.691 116.554 93.9524 116.408 94.4599C116.262 94.9674 115.462 95.1176 114.951 94.6791Z" fill="#FFCF47" stroke="#263238" stroke-miterlimit="10"/>
<path d="M113.352 94.5979C111.529 87.6959 113.059 84.2571 113.059 84.2571C113.059 84.2571 115.244 88.0451 114.078 94.5979" stroke="#263238" stroke-linecap="round" stroke-linejoin="round"/>
<path d="M110.363 88.707C110.363 88.707 108.687 88.7801 111.456 94.5331" stroke="#263238" stroke-linecap="round" stroke-linejoin="round"/>
<path d="M70.5223 172.863C66.8358 170.581 62.585 166.895 61.1843 161.523C60.0415 164.111 58.5259 166.517 56.6858 168.665C54.0996 171.689 50.405 173.801 46.2922 174.901C45.2813 175.173 44.7129 175.477 44.7129 175.798C44.7129 176.939 51.8504 177.865 60.6565 177.865C69.4626 177.865 76.6042 176.939 76.6042 175.798C76.6042 175.518 76.1657 175.246 75.3862 174.986C73.6821 174.486 72.048 173.772 70.5223 172.863Z" fill="white" stroke="#263238" stroke-miterlimit="10"/>
<path d="M59.5724 114.874L56.2676 164.032L60.7661 169.777L65.2036 164.82L62.6499 115.012L59.5724 114.874Z" fill="white" stroke="#263238" stroke-miterlimit="10"/>
<path d="M78.7029 117.131H34.5098V120.05C34.5098 122.267 46.2269 124.07 60.6805 124.07C75.1341 124.07 86.8513 122.267 86.8513 120.05V117.131H78.7029Z" fill="#263238"/>
<path d="M60.6766 121.158C75.1303 121.158 86.8474 119.357 86.8474 117.135C86.8474 114.913 75.1303 113.112 60.6766 113.112C46.2229 113.112 34.5059 114.913 34.5059 117.135C34.5059 119.357 46.2229 121.158 60.6766 121.158Z" fill="#FFCF47" stroke="#263238" stroke-miterlimit="10"/>
<path d="M102.637 164.99C101.76 165.965 100.201 165.961 98.9831 165.579C97.083 164.994 95.4509 163.744 93.5792 163.086C91.2813 162.274 88.557 162.307 86.7706 160.65C85.876 159.756 85.2863 158.602 85.0857 157.354L85.037 157.077C84.8793 155.737 84.8698 154.384 85.0086 153.042L89.4543 150.448C92.3856 154.609 97.3713 158.543 100.225 160.845C100.952 161.394 101.638 161.994 102.28 162.64C103.307 163.915 102.637 164.99 102.637 164.99Z" fill="white"/>
<path d="M84.992 153.038C84.8532 154.38 84.8627 155.733 85.0204 157.073C85.187 158.423 85.7967 159.68 86.754 160.646C88.5404 162.307 91.2647 162.27 93.5626 163.082C95.4343 163.74 97.0664 164.99 98.9665 165.575C100.217 165.957 101.76 165.961 102.62 164.986C102.62 164.986 103.29 163.91 102.247 162.631C101.204 161.353 93.4124 156.103 89.4214 150.451L84.992 153.038Z" stroke="#263238" stroke-miterlimit="10"/>
<path d="M48.6715 100.315C48.6715 100.315 43.5397 105.56 44.0066 111.882C44.4735 118.203 52.6666 121.008 58.0786 123.172C61.4426 124.55 64.5501 126.486 67.2704 128.897C67.2704 128.897 65.5043 133.846 70.1449 140.03C74.7855 146.213 85.3049 153.951 85.3049 153.951C86.2733 153.941 87.2164 153.641 88.0125 153.09C88.8086 152.538 89.4211 151.761 89.7709 150.858C89.7709 150.858 79.6209 133.071 77.1159 125.649C77.1159 125.649 76.649 119.965 74.3104 117.915C74.3104 117.915 77.4123 114.602 77.3839 110.879C77.3554 107.156 73.8923 101.35 69.8323 98.6582L69.5318 99.5879L65.8778 102.556C65.8778 102.556 57.5548 103.213 51.7815 98.4227V97.0342L51.3227 97.6107L48.6715 100.315Z" fill="#263238"/>
<path d="M73.1045 116.197C73.5441 116.745 73.9508 117.319 74.3225 117.915" stroke="white" stroke-linecap="round" stroke-linejoin="round"/>
<path d="M62.8691 106.531C62.8691 106.531 68.3014 110.724 71.992 114.878" stroke="white" stroke-linecap="round" stroke-linejoin="round"/>
<path d="M67.2705 110.221C67.2705 110.221 69.1949 108.378 69.5482 106.531" stroke="white" stroke-linecap="round" stroke-linejoin="round"/>
<path d="M102.636 164.99C101.759 165.965 100.2 165.961 98.9823 165.579C97.0822 164.995 95.4501 163.744 93.5784 163.086C91.2805 162.274 88.5562 162.307 86.7698 160.65C85.8522 159.798 85.024 157.894 84.9062 155.592C85.9875 156.701 87.2321 157.639 88.5968 158.373C89.9772 159.095 91.4388 159.948 92.807 160.695C94.2121 161.527 95.7617 162.087 97.3745 162.343C97.8514 162.396 98.3339 162.341 98.7874 162.185C99.9364 161.686 99.7577 160.914 99.7861 160.516C100.654 161.18 101.486 161.889 102.279 162.64C103.306 163.915 102.636 164.99 102.636 164.99Z" fill="#263238"/>
<path d="M64.6476 170.658C64.6476 173.845 63.6895 177.154 61.4646 179.42C61.0985 179.855 60.599 180.157 60.0436 180.28C59.6808 180.293 59.3205 180.216 58.9947 180.056C58.6689 179.896 58.3877 179.658 58.176 179.363C57.2828 178.275 57.0067 176.789 57.0676 175.38C57.1285 173.971 57.4736 172.595 57.6969 171.202C57.7863 170.621 57.8553 170.041 57.8999 169.456C58.0021 168.063 57.9722 166.662 57.8106 165.274C57.636 163.776 57.3031 162.286 58.4034 161.141C59.2438 160.268 60.8394 158.957 62.0574 159.952C62.4362 160.326 62.6997 160.801 62.8166 161.32C63.0034 161.901 63.1901 162.481 63.3647 163.07C64.1593 165.523 64.5915 168.08 64.6476 170.658Z" fill="white"/>
<path d="M57.8107 165.274C58.0409 167.246 58.0027 169.24 57.697 171.202C57.4778 172.595 57.1246 173.971 57.0677 175.38C57.0109 176.789 57.2829 178.275 58.1761 179.363C58.3878 179.658 58.669 179.896 58.9948 180.056C59.3207 180.216 59.6809 180.293 60.0437 180.28C60.5992 180.157 61.0986 179.855 61.4647 179.42C63.6896 177.138 64.6437 173.845 64.6478 170.658C64.6518 167.471 63.787 164.349 62.8005 161.32C62.6835 160.801 62.42 160.326 62.0412 159.952C60.8232 158.957 59.2439 160.268 58.3872 161.141C57.3032 162.286 57.6524 163.776 57.8107 165.274Z" stroke="#263238" stroke-miterlimit="10"/>
<path d="M57.7451 163.212C57.7451 163.212 60.0309 166.643 63.3519 163.212C63.3519 163.212 62.8932 153.598 63.9203 148.624C64.9475 143.651 68.8411 128.089 63.3519 122.714C57.8628 117.338 52.938 122.368 52.0245 126.717C51.111 131.065 53.9693 143.42 55.6785 149.14C57.3878 154.861 57.7451 163.212 57.7451 163.212Z" fill="#263238"/>
<path d="M65.1309 125.49C65.1309 125.49 61.7124 116.522 54.4287 121.711" stroke="white" stroke-linecap="round" stroke-linejoin="round"/>
<path d="M64.6476 170.658C64.6476 173.845 63.6895 177.154 61.4646 179.42C61.0985 179.855 60.599 180.158 60.0436 180.28C59.6808 180.293 59.3205 180.216 58.9947 180.056C58.6689 179.896 58.3877 179.658 58.176 179.363C57.2828 178.275 57.0067 176.789 57.0676 175.38C57.1285 173.971 57.4736 172.595 57.6969 171.202C57.7863 170.622 57.8553 170.041 57.8999 169.456C58.1557 170.674 58.2044 173.366 58.241 173.866C58.2547 174.358 58.3395 174.847 58.4927 175.315C58.5712 175.549 58.6993 175.762 58.8682 175.942C59.0371 176.121 59.2428 176.262 59.4711 176.354C59.7691 176.435 60.0834 176.432 60.3798 176.346C60.6762 176.26 60.9433 176.095 61.152 175.867C61.5641 175.407 61.8679 174.86 62.0411 174.268C63.1373 171.174 63.2835 167.832 63.2388 164.552C63.2119 164.055 63.2487 163.557 63.3484 163.07C64.1486 165.523 64.5863 168.079 64.6476 170.658Z" fill="#263238"/>
<path d="M50.2915 60.0881C49.9109 60.9735 49.7655 61.9422 49.8693 62.9004C49.9732 63.8585 50.3228 64.7736 50.8843 65.5569C52.825 68.3217 58.7972 70.912 62.2523 69.4423C65.7073 67.9726 71.9273 68.0497 74.7774 69.8483C77.6275 71.6469 88.3418 70.4126 88.3418 63.9126C88.3418 63.9126 89.8116 65.2037 89.4665 67.0956C89.4665 67.0956 94.2167 62.8935 88.6017 56.6533C88.6017 56.6533 90.1932 53.7748 86.8478 53.3485C83.5023 52.9222 83.1938 51.1073 82.873 49.2073C82.5523 47.3072 82.6294 42.6707 78.472 42.7113C78.472 42.7113 71.7567 36.061 64.262 39.3415C56.7672 42.6219 58.578 47.4615 55.0539 46.7753C54.9091 47.1949 54.9091 47.6509 55.0539 48.0705C55.0539 48.0705 56.1785 50.6607 54.5383 51.8706C52.898 53.0805 48.5376 55.2445 48.3184 61.2086C48.5091 60.8556 48.7953 60.5634 49.1442 60.3652C49.4931 60.1671 49.8906 60.071 50.2915 60.0881Z" fill="#263238"/>
<path d="M61.2529 66.5598L62.5197 65.8858V62.7637C62.5197 62.7637 64.4685 66.3405 66.6852 66.7181C68.902 67.0957 71.4719 63.2265 71.4719 63.2265C71.4719 63.2265 71.0335 65.7153 71.4719 66.3405C71.9104 66.9658 75.5766 68.8821 75.5766 68.8821C75.5766 68.8821 69.9454 74.1804 68.6746 78.2201C68.6746 78.2201 68.2686 74.4037 65.6377 72.394C63.628 70.9291 62.1012 68.8976 61.2529 66.5598Z" fill="white"/>
<path d="M61.253 66.5597C59.767 66.9992 58.205 67.1196 56.6692 66.9129C54.4565 66.5069 50.8391 65.1996 48.2163 67.0956C45.5936 68.9916 46.0808 76.6041 45.7803 78.7356C45.4799 80.8671 45.2322 82.9458 43.4093 84.7809C41.5863 86.6161 40.3643 91.8819 40.8434 93.8266C40.8434 93.8266 39.4995 95.6496 40.478 99.0315C41.4564 102.414 42.24 101.784 42.24 101.784C42.24 101.784 46.2513 101.943 48.33 100.688C48.33 100.688 50.4087 98.9991 51.103 97.6065C51.7972 96.2139 50.6361 93.8266 50.6361 93.8266L51.7932 95.0446V98.4347C51.7932 98.4347 56.1374 101.606 60.5953 102.231C65.8733 102.568 65.6987 102.56 65.6987 102.56L69.4339 99.9247C69.4339 99.9247 71.0579 94.87 72.6047 93.043C74.1516 91.216 77.7853 88.0777 78.0167 86.2222C78.2481 84.3668 77.4564 79.982 77.4564 79.982C77.4564 79.982 80.1076 82.755 80.7247 85.8934C81.3419 89.0318 89.6567 82.686 89.6567 82.686C89.6567 82.686 87.2004 78.0332 86.5549 75.5282C85.9094 73.0232 84.9309 70.0797 82.5193 69.7224C80.1076 69.3651 75.3777 69.02 75.3777 69.02C75.3777 69.02 70.1606 73.892 68.7112 78.4352C68.7112 78.4352 68.1631 74.9111 65.6215 72.4101C63.08 69.9092 61.3261 68.3136 61.253 66.5597Z" fill="#FFCF47"/>
<path opacity="0.6" d="M75.5766 68.8821C75.5766 68.8821 69.9535 74.3185 68.8208 77.7776C68.8208 77.7776 67.3998 74.1236 65.2439 72.0083C63.0881 69.8931 62.0243 68.2447 61.2529 66.5598L60.2217 66.913C60.2217 66.913 59.2229 69.3247 59.0605 70.4534L61.9797 72.0165L61.7401 77.3757C61.7401 77.3757 66.8882 82.678 67.4241 85.9017L68.837 86.7137C68.837 86.7137 69.5272 82.6983 69.1984 80.514C69.1984 80.514 70.0104 79.426 72.0079 78.6221C74.0054 77.8182 75.3655 77.1077 75.3655 77.1077L74.7971 73.6648C76.2626 73.3049 77.6841 72.7848 79.0357 72.1139L76.4982 69.0851L75.5766 68.8821Z" fill="white"/>
<path opacity="0.2" d="M84.5045 83.8634C84.5045 83.8634 82.8805 79.235 76.3358 76.2266L76.685 77.607L75.0325 77.3918C75.0325 77.3918 75.4385 84.4318 73.0431 86.7298C70.6477 89.0277 61.4315 87.1723 59.0361 89.2348L63.222 89.5637C63.222 89.5637 59.6086 90.5543 59.4178 91.7967C59.227 93.039 64.3872 92.3935 66.4537 93.3638C66.4537 93.3638 66.9369 99.4538 65.114 102.507L65.7027 102.548L69.5312 99.5878C69.5312 99.5878 71.8454 93.2664 73.5912 91.7967C75.337 90.3269 77.9841 87.8788 77.9436 85.9056C77.903 83.9324 77.5782 79.8156 77.5782 79.8156C77.5782 79.8156 79.8152 82.617 80.4202 84.8581C81.0251 87.0992 84.5045 83.8634 84.5045 83.8634Z" fill="black"/>
<path d="M84.2738 91.9833C84.2738 91.9833 85.646 97.7485 90.9118 97.6064C90.9118 97.6064 91.529 97.8866 92.2192 96.3032C92.9094 94.7198 93.6158 93.0876 92.9581 89.9817C92.3004 86.8758 90.1323 83.437 90.1323 83.437L83.8271 86.9855L84.2738 91.9833Z" fill="white"/>
<path d="M75.1102 53.3607C75.1102 53.3607 74.7042 46.2354 69.4262 44.5586C64.1482 42.8819 59.5563 46.9946 58.5332 52.5974C58.5332 52.5974 59.7512 58.525 60.5104 59.9379C61.2696 61.3508 64.339 66.1497 66.5355 66.7222C68.7319 67.2946 71.785 62.9748 73.003 61.1072C74.221 59.2396 75.0899 56.0972 75.2685 53.3607" fill="white"/>
<path d="M75.1102 53.3607C75.1102 53.3607 74.7042 46.2354 69.4262 44.5586C64.1482 42.8819 59.5563 46.9946 58.5332 52.5974C58.5332 52.5974 59.7512 58.525 60.5104 59.9379C61.2696 61.3508 64.339 66.1497 66.5355 66.7222C68.7319 67.2946 71.785 62.9748 73.003 61.1072C74.221 59.2396 75.0899 56.0972 75.2685 53.3607" stroke="#263238" stroke-miterlimit="10"/>
<path d="M66.4414 61.1477C66.5626 61.3538 66.713 61.5411 66.888 61.7039C67.5051 62.2764 67.7 61.367 67.7 60.8919C67.6666 59.7548 67.8627 58.6225 68.2765 57.5627" stroke="#263238" stroke-linecap="round" stroke-linejoin="round"/>
<path d="M69.04 56.4949C69.5313 55.7438 70.7777 54.8709 71.9754 55.6829" stroke="#263238" stroke-linecap="round" stroke-linejoin="round"/>
<path d="M62.6826 55.3499C63.9981 54.5379 65.5571 55.0251 65.8129 56.097" stroke="#263238" stroke-linecap="round" stroke-linejoin="round"/>
<path d="M70.2378 58.4642C70.2175 58.9392 70.0267 59.3168 69.8115 59.3086C69.5964 59.3005 69.438 58.9026 69.4543 58.4317C69.4705 57.9607 69.6654 57.575 69.8806 57.5831C70.0957 57.5913 70.2378 57.981 70.2378 58.4642Z" fill="#263238"/>
<path d="M64.7814 58.3301C64.7611 58.8051 64.5703 59.1827 64.3551 59.1746C64.1399 59.1665 63.9775 58.7686 63.9978 58.2976C64.0181 57.8267 64.2089 57.441 64.4241 57.4491C64.6393 57.4572 64.8017 57.851 64.7814 58.3301Z" fill="#263238"/>
<path d="M74.3184 58.4113C74.3184 58.4113 74.7528 58.6468 75.7881 57.7455C76.8234 56.8442 77.7044 55.0943 77.2822 54.3635C76.8599 53.6327 75.577 54.6924 75.577 54.6924L74.3184 58.4113Z" fill="white" stroke="#263238" stroke-miterlimit="10"/>
<path d="M58.651 53.7018C58.651 53.7018 57.5508 53.04 56.9134 53.5678C56.2069 54.1484 57.2341 56.1012 57.5873 56.6574C58.0339 57.3598 58.9109 57.9566 59.6539 57.3152L58.651 53.7018Z" fill="white" stroke="#263238" stroke-miterlimit="10"/>
<path d="M64.2783 61.8906C64.4436 62.3153 64.7095 62.6934 65.0532 62.9926C65.3969 63.2917 65.8081 63.5029 66.2515 63.608" stroke="#263238" stroke-linecap="round" stroke-linejoin="round"/>
<path d="M71.7195 62.9016C71.0821 64.3267 71.1146 65.5812 71.4922 67.0956" stroke="#263238" stroke-linecap="round" stroke-linejoin="round"/>
<path d="M62.3863 62.7637C62.5042 63.668 62.549 64.5804 62.5203 65.492C62.5621 66.0972 62.4763 66.7044 62.2686 67.2743" stroke="#263238" stroke-linecap="round" stroke-linejoin="round"/>
<path d="M58.1633 52.9627C58.1633 52.9627 64.1721 52.7232 65.5566 46.487C65.5566 46.487 68.1875 53.1292 75.8528 53.7016C75.8528 53.7016 77.221 48.9799 76.4496 45.9511C75.6782 42.9223 71.9024 40.3036 66.8355 40.7218C61.7686 41.14 57.5827 42.9792 58.1633 52.9627Z" fill="#263238"/>
<path d="M51.7979 95.0366V98.4267C51.7979 98.4267 57.831 103.019 65.8942 102.56L69.4264 99.9167C69.4264 99.9167 70.6119 95.471 73.0235 92.4707C75.4352 89.4703 78.4233 88.1224 77.9645 84.375C77.5058 80.6277 77.3799 79.365 77.3799 79.365" stroke="#263238" stroke-linecap="round" stroke-linejoin="round"/>
<path d="M62.3862 66.178C62.3862 66.178 58.9352 67.5137 55.4071 66.7302C51.8789 65.9466 49.4429 65.7639 47.4535 67.7533C45.4641 69.7427 46.5522 80.3393 44.8348 82.7144C43.1174 85.0895 39.8532 89.864 40.8479 93.8388" stroke="#263238" stroke-linecap="round" stroke-linejoin="round"/>
<path d="M51.0912 95.7471C52.0372 97.4645 50.0681 98.9951 48.6552 100.315C47.2423 101.634 43.2229 101.939 41.9806 101.711C40.7382 101.484 39.8856 97.1356 40.117 95.739C40.3485 94.3423 41.128 93.0228 42.2932 92.4707C43.4584 91.9185 44.3232 88.2889 45.1799 87.7935C46.0365 87.2982 46.5481 88.91 46.5481 88.91" stroke="#263238" stroke-miterlimit="10"/>
<path d="M62.0371 89.4216L69.9379 90.3838C70.6849 90.4732 71.501 90.6031 71.9922 91.1715" stroke="#263238" stroke-linecap="round" stroke-linejoin="round"/>
<path d="M52.999 83.2868C52.999 83.2868 53.4781 79.2553 52.999 77.3755" stroke="#263238" stroke-linecap="round" stroke-linejoin="round"/>
<path d="M53.21 81.8172C54.0685 80.9567 54.7693 79.9522 55.2806 78.8494" stroke="#263238" stroke-linecap="round" stroke-linejoin="round"/>
<path d="M82.4949 83.2951C81.9666 83.2094 81.4695 82.9885 81.0516 82.6541C80.6338 82.3196 80.3095 81.8828 80.1102 81.3861C79.9108 80.8894 79.8432 80.3496 79.9139 79.8191C79.9846 79.2886 80.1912 78.7853 80.5137 78.3582C80.9197 77.7979 81.5327 77.3878 81.9265 76.8072C82.1554 76.4616 82.3019 76.068 82.3547 75.6569C82.4075 75.2457 82.3652 74.8279 82.2311 74.4356C82.0969 74.0434 81.8745 73.6872 81.581 73.3945C81.2875 73.1017 80.9306 72.8803 80.538 72.7472C81.3179 72.6802 82.1024 72.6883 82.8806 72.7716C84.4803 73.003 85.4506 74.1195 85.1136 75.8004C84.7767 77.4812 82.8076 77.7045 81.6383 78.6424C81.3357 78.8566 81.0904 79.1419 80.924 79.4733C80.7576 79.8046 80.6753 80.1718 80.6842 80.5424C80.7131 81.1211 80.8962 81.6814 81.2146 82.1654C81.533 82.6494 81.975 83.0395 82.4949 83.2951Z" fill="white" stroke="#263238" stroke-miterlimit="10"/>
<path d="M71.2852 66.178C72.7872 67.5983 74.6583 68.5677 76.685 68.9753C79.8518 69.5112 83.3758 69.357 84.5532 70.7495C85.7306 72.1421 87.4886 79.58 89.7785 82.9011C92.0683 86.2222 95.3447 93.1729 91.3497 97.44C91.3497 97.44 87.0298 98.8529 84.5654 92.974" stroke="#263238" stroke-linecap="round" stroke-linejoin="round"/>
<path d="M76.6855 78.5286C76.6855 78.5286 79.1946 81.4436 80.2502 84.375" stroke="#263238" stroke-linecap="round" stroke-linejoin="round"/>
<path d="M82.0121 92.4707C83.1212 91.7582 84.4409 91.4472 85.7514 91.5897C87.9113 91.8455 87.7124 92.4504 87.3348 92.6047C86.9572 92.759 81.1839 94.0785 80.9931 93.7374C80.8022 93.3964 82.0121 92.4707 82.0121 92.4707Z" fill="white" stroke="#263238" stroke-miterlimit="10"/>
<path d="M61.2529 66.5598C61.4356 68.4721 63.0272 69.889 64.4279 71.2085C65.5898 72.2415 66.5951 73.4382 67.4119 74.761C69.5272 78.4394 69.0603 82.9988 68.5284 87.209" stroke="#263238" stroke-linecap="round" stroke-linejoin="round"/>
<path d="M60.4942 66.5393C59.8138 67.6665 59.3331 68.9026 59.0732 70.1933C59.0446 70.2817 59.0446 70.3769 59.0732 70.4653C59.1219 70.5406 59.1928 70.5988 59.2762 70.6318L61.9923 72.0284C61.7407 73.328 61.6386 74.652 61.6878 75.9747C61.6858 76.2143 61.7215 76.4527 61.7934 76.6812C61.9174 76.9704 62.0952 77.2335 62.3171 77.4566C64.5217 79.9698 66.9009 82.621 67.4205 85.9217" stroke="#263238" stroke-linecap="round" stroke-linejoin="round"/>
<path d="M75.837 68.7317C75.2708 69.0584 74.7575 69.469 74.3145 69.9497C71.957 72.3212 70.0903 75.1343 68.8213 78.228" stroke="#263238" stroke-linecap="round" stroke-linejoin="round"/>
<path d="M76.178 68.7644C77.1605 69.8471 78.1079 70.9703 79.02 72.1342C77.7565 72.9925 76.3004 73.5253 74.7814 73.6851C74.9722 74.7245 75.1589 75.7638 75.3498 76.7991C75.3801 76.9067 75.3801 77.0205 75.3498 77.128C75.2797 77.2515 75.1672 77.3453 75.0331 77.3919C73.0234 78.3704 70.5955 78.7967 69.1826 80.5343" stroke="#263238" stroke-linecap="round" stroke-linejoin="round"/>
<path d="M65.5566 46.4871C65.5566 46.4871 65.9099 54.5218 75.5767 54.6923" stroke="#263238" stroke-linecap="round" stroke-linejoin="round"/>
<path d="M86.843 83.2869C87.4636 84.8839 87.8254 86.5697 87.9149 88.2807C87.9758 90.81 85.6453 92.1701 83.9889 92.4706C82.3324 92.771 80.3105 92.6776 78.9626 90.9806C77.6147 89.2835 77.1396 85.666 77.1396 85.666L86.843 83.2869Z" fill="white" stroke="#263238" stroke-miterlimit="10"/>
<path d="M89.036 82.7021C88.714 82.7188 88.3988 82.8017 88.1103 82.9458C86.6136 83.5763 85.1773 84.3413 83.8189 85.2315C83.6971 85.3127 83.5591 85.4142 83.5469 85.5604C83.5469 85.7878 83.8027 85.9136 84.026 85.9664C85.3292 86.21 86.669 85.9217 87.9601 85.6335C88.3373 85.5674 88.7044 85.4528 89.0522 85.2924C90.1322 84.7403 90.8508 82.7265 89.036 82.7021Z" fill="white" stroke="#263238" stroke-miterlimit="10"/>
<path d="M89.771 85.666C88.6798 85.7939 87.6014 86.014 86.5473 86.3237C86.2125 86.3874 85.8937 86.5172 85.6095 86.7053C85.5575 86.7355 85.5138 86.7779 85.4819 86.8289C85.4501 86.8798 85.4312 86.9377 85.4268 86.9976C85.4268 87.1438 85.5729 87.2372 85.7028 87.2981C86.1694 87.4817 86.6606 87.5952 87.1604 87.6351C88.3784 87.7894 89.8481 87.9842 90.8996 87.2047C92.0567 86.3602 90.7251 85.5969 89.771 85.666Z" fill="white" stroke="#263238" stroke-miterlimit="10"/>
<path d="M86.5957 88.3293C86.235 88.327 85.8797 88.4179 85.5644 88.5932C85.4666 88.6469 85.3873 88.729 85.3371 88.8287C85.3024 88.9352 85.303 89.05 85.3389 89.1561C85.3747 89.2621 85.4439 89.3538 85.536 89.4174C85.722 89.5394 85.9328 89.6184 86.1531 89.6488L88.3496 90.1238C88.8043 90.2213 89.3524 90.2944 89.6366 89.8396C89.7322 89.6809 89.7827 89.4991 89.7827 89.3139C89.7827 89.1286 89.7322 88.9468 89.6366 88.7881C89.0966 88.1263 87.3346 88.2806 86.5957 88.3293Z" fill="white" stroke="#263238" stroke-miterlimit="10"/>
<path d="M42.6499 92.1621C41.9678 93.4735 41.8947 95.0041 41.8379 96.4738" stroke="#263238" stroke-linecap="round" stroke-linejoin="round"/>
<path d="M43.1338 93.0349C43.1448 94.5523 43.6007 96.033 44.4451 97.2938C45.2894 98.5546 46.4851 99.5399 47.884 100.128" stroke="#263238" stroke-linecap="round" stroke-linejoin="round"/>
<path d="M70.7897 91.6626C68.6136 91.5042 66.4049 91.3499 64.2734 91.8006" stroke="#263238" stroke-linecap="round" stroke-linejoin="round"/>
<path d="M65.6214 72.4021L57.6719 72.7025L59.2431 87.2089L66.6567 86.7339L65.6214 72.4021Z" fill="white" stroke="#263238" stroke-miterlimit="10"/>
<path d="M65.6952 76.5555L66.1378 77.3228L63.8723 81.464C65.0903 81.1717 67.0675 78.9955 67.3964 79.434C67.7252 79.8725 62.1184 85.3982 60.7461 85.7433C59.7638 85.9394 58.7524 85.9394 57.7701 85.7433C56.678 87.0222 50.5758 97.0341 50.5758 97.0341C50.5758 97.0341 44.3437 96.3602 45.5739 89.5231C45.5739 89.5231 53.2554 83.2626 55.5087 81.261C55.5087 81.261 56.41 77.7572 57.8067 77.3797L58.302 78.5977C58.302 78.5977 65.7886 75.1751 66.016 75.4268C66.2433 75.6785 66.016 76.2591 66.016 76.2591C66.016 76.2591 61.8342 80.0999 60.8314 80.3191" fill="white"/>
<path d="M65.6952 76.5555L66.1378 77.3228L63.8723 81.464C65.0903 81.1717 67.0675 78.9955 67.3964 79.434C67.7252 79.8725 62.1184 85.3982 60.7461 85.7433C59.7638 85.9394 58.7524 85.9394 57.7701 85.7433C56.678 87.0222 50.5758 97.0341 50.5758 97.0341C50.5758 97.0341 44.3437 96.3602 45.5739 89.5231C45.5739 89.5231 53.2554 83.2626 55.5087 81.261C55.5087 81.261 56.41 77.6476 57.8067 77.3797L58.302 78.5977C58.302 78.5977 65.7886 75.1751 66.016 75.4268C66.2433 75.6785 66.016 76.2591 66.016 76.2591C66.016 76.2591 61.8342 80.0999 60.8314 80.3191" stroke="#263238" stroke-miterlimit="10"/>
<path opacity="0.2" d="M65.8691 44.9565C66.8411 46.0581 67.9302 47.0506 69.1171 47.9163C69.6529 48.2677 70.2087 48.5876 70.7817 48.8744C72.6581 49.8293 74.616 50.6147 76.6322 51.2211" stroke="white" stroke-width="0.75" stroke-linecap="round" stroke-linejoin="round"/>
<path opacity="0.2" d="M66.2793 43.3284C69.1134 45.0549 72.1858 46.3558 75.3981 47.1894" stroke="white" stroke-width="0.75" stroke-linecap="round" stroke-linejoin="round"/>
<path d="M62.6826 63.1697C62.6826 63.1697 63.8275 68.2975 66.4422 68.7644C69.0568 69.2313 71.1396 63.6894 71.1396 63.6894C71.1396 63.6894 68.5453 66.7384 66.9091 66.7141C65.2729 66.6897 62.6826 63.1697 62.6826 63.1697Z" fill="#263238"/>
<path d="M59.4908 75.0329C59.8272 75.0329 60.0998 74.7603 60.0998 74.4239C60.0998 74.0876 59.8272 73.8149 59.4908 73.8149C59.1545 73.8149 58.8818 74.0876 58.8818 74.4239C58.8818 74.7603 59.1545 75.0329 59.4908 75.0329Z" fill="white" stroke="#263238" stroke-miterlimit="10"/>
</svg>
