<svg width="30" height="30" viewBox="0 0 30 30" fill="none" xmlns="http://www.w3.org/2000/svg">
<mask id="mask0_958_38860" style="mask-type:alpha" maskUnits="userSpaceOnUse" x="0" y="0" width="30" height="30">
<rect width="30" height="30" fill="#ADADAD"/>
</mask>
<g mask="url(#mask0_958_38860)">
<path d="M19.308 15.8081L18.3128 14.8129C18.5003 13.7215 18.191 12.7768 17.3849 11.9788C16.5788 11.1807 15.6381 10.8754 14.5628 11.0629L13.5676 10.0677C13.7775 9.98115 13.9967 9.91625 14.225 9.87298C14.4534 9.82971 14.7118 9.80807 15.0003 9.80807C16.2743 9.80807 17.3541 10.2508 18.2395 11.1362C19.1249 12.0216 19.5676 13.1013 19.5676 14.3754C19.5676 14.6638 19.546 14.9303 19.5027 15.1747C19.4594 15.4191 19.3945 15.6302 19.308 15.8081ZM23.2599 19.6494L22.3128 18.8129C23.1044 18.2087 23.8076 17.5473 24.4222 16.8285C25.0367 16.1098 25.5628 15.2921 26.0003 14.3754C24.9586 12.2712 23.4638 10.5993 21.5159 9.35976C19.568 8.12018 17.3961 7.50038 15.0003 7.50038C14.3961 7.50038 13.8024 7.54205 13.219 7.62538C12.6357 7.70872 12.0628 7.83372 11.5003 8.00038L10.5243 7.02441C11.2503 6.75037 11.989 6.55285 12.7407 6.43185C13.4923 6.31087 14.2455 6.25038 15.0003 6.25038C17.7134 6.25038 20.195 6.99598 22.445 8.48717C24.695 9.97835 26.348 11.9411 27.4041 14.3754C26.957 15.3802 26.3909 16.3245 25.7058 17.2083C25.0207 18.0921 24.2054 18.9058 23.2599 19.6494ZM24.6541 26.4235L19.7887 21.5725C19.2359 21.8177 18.5496 22.0336 17.7298 22.2204C16.9101 22.407 16.0003 22.5004 15.0003 22.5004C12.2711 22.5004 9.78954 21.7548 7.55556 20.2636C5.32158 18.7724 3.66854 16.8097 2.59644 14.3754C3.082 13.2712 3.72222 12.2372 4.51709 11.2732C5.31197 10.3093 6.16053 9.50039 7.06278 8.84654L3.57719 5.34654L4.46181 4.46191L25.5387 25.5389L24.6541 26.4235ZM7.94737 9.73116C7.23104 10.2408 6.49867 10.9106 5.75028 11.7408C5.00188 12.5709 4.41855 13.4491 4.00028 14.3754C5.04195 16.4796 6.53674 18.1514 8.48465 19.391C10.4326 20.6306 12.6044 21.2504 15.0003 21.2504C15.7214 21.2504 16.4482 21.1803 17.1806 21.04C17.9129 20.8998 18.4634 20.7584 18.832 20.6158L16.7936 18.5629C16.5964 18.6735 16.3216 18.7644 15.969 18.8357C15.6165 18.907 15.2936 18.9427 15.0003 18.9427C13.7262 18.9427 12.6465 18.5 11.7611 17.6146C10.8757 16.7292 10.433 15.6494 10.433 14.3754C10.433 14.0981 10.4686 13.7872 10.5399 13.4427C10.6112 13.0981 10.7022 12.8113 10.8128 12.5821L7.94737 9.73116Z" fill="#A8A8A8"/>
</g>
</svg>
