<svg width="26" height="17" viewBox="0 0 26 17" fill="none" xmlns="http://www.w3.org/2000/svg">
<path d="M13.0042 12.9423C14.2745 12.9423 15.3523 12.4977 16.2378 11.6085C17.1232 10.7193 17.5659 9.63962 17.5659 8.36934C17.5659 7.09907 17.1213 6.02123 16.2321 5.13581C15.3429 4.2504 14.2632 3.80769 12.9929 3.80769C11.7226 3.80769 10.6448 4.25228 9.75938 5.14147C8.87397 6.03066 8.43126 7.11039 8.43126 8.38066C8.43126 9.65093 8.87585 10.7288 9.76504 11.6142C10.6542 12.4996 11.734 12.9423 13.0042 12.9423ZM12.9986 11.75C12.0611 11.75 11.2642 11.4219 10.6079 10.7656C9.9517 10.1094 9.62357 9.3125 9.62357 8.375C9.62357 7.4375 9.9517 6.64062 10.6079 5.98438C11.2642 5.32812 12.0611 5 12.9986 5C13.9361 5 14.7329 5.32812 15.3892 5.98438C16.0454 6.64062 16.3736 7.4375 16.3736 8.375C16.3736 9.3125 16.0454 10.1094 15.3892 10.7656C14.7329 11.4219 13.9361 11.75 12.9986 11.75ZM13.002 16.5C10.2946 16.5 7.8271 15.7632 5.59954 14.2897C3.37196 12.8161 1.70368 10.8446 0.594727 8.375C1.70368 5.90544 3.37081 3.93389 5.5961 2.46034C7.82137 0.986782 10.2877 0.25 12.9951 0.25C15.7025 0.25 18.17 0.986782 20.3976 2.46034C22.6252 3.93389 24.2935 5.90544 25.4024 8.375C24.2935 10.8446 22.6263 12.8161 20.401 14.2897C18.1758 15.7632 15.7094 16.5 13.002 16.5ZM12.9986 15.25C15.3527 15.25 17.5142 14.6302 19.4829 13.3906C21.4517 12.151 22.9569 10.4792 23.9986 8.375C22.9569 6.27083 21.4517 4.59896 19.4829 3.35938C17.5142 2.11979 15.3527 1.5 12.9986 1.5C10.6444 1.5 8.48295 2.11979 6.5142 3.35938C4.54545 4.59896 3.04024 6.27083 1.99857 8.375C3.04024 10.4792 4.54545 12.151 6.5142 13.3906C8.48295 14.6302 10.6444 15.25 12.9986 15.25Z" fill="#A8A8A8"/>
</svg>
